M48
; DRILL file {KiCad (5.1.9)-1} date 01/15/21 23:01:52
; FORMAT={-:-/ absolute / inch / decimal}
; #@! TF.CreationDate,2021-01-15T23:01:52+01:00
; #@! TF.GenerationSoftware,Kicad,Pcbnew,(5.1.9)-1
; #@! TF.FileFunction,Plated,1,4,PTH
FMAT,2
INCH
T1C0.0079
T2C0.0118
T3C0.0157
T4C0.0236
T5C0.0315
T6C0.0598
%
G90
G05
T1
X13.8945Y-6.0835
X13.9345Y-6.1235
X13.983Y-6.84
X13.9845Y-6.3135
X14.0345Y-6.3735
X14.0835Y-6.2595
X14.0845Y-6.1285
X14.0845Y-6.9856
X14.1395Y-6.3135
X14.1395Y-6.3735
X14.1545Y-6.1085
X14.1817Y-6.1406
X14.2342Y-6.1398
X14.2345Y-6.9634
X14.2795Y-7.0445
X14.2842Y-6.1597
X14.2961Y-6.3924
X14.4295Y-6.7685
X14.4345Y-6.8233
X14.4795Y-6.2785
X14.4845Y-6.8235
X14.5845Y-6.9785
X14.602Y-5.369
X14.6245Y-5.8335
X14.7017Y-5.3492
X14.7145Y-6.3378
X14.7595Y-6.7035
X14.7745Y-5.2535
X14.7845Y-5.3335
X14.7945Y-6.8685
X14.8245Y-6.2935
X14.8352Y-5.7575
X14.8445Y-5.9935
X14.8607Y-5.7524
X14.8745Y-5.9735
X14.8838Y-5.7765
X14.8945Y-6.8335
X14.8995Y-6.7835
X14.9145Y-5.071
X14.922Y-5.036
X14.9295Y-7.0285
X14.9595Y-5.3497
X15.0533Y-5.7345
X15.09Y-5.67
X15.151Y-5.6835
X15.1745Y-6.7122
X15.2045Y-5.6985
X15.2095Y-6.5685
X15.2194Y-5.6489
X15.2345Y-6.9135
X15.2595Y-6.5465
X15.325Y-5.67
X15.3395Y-7.1285
X15.3995Y-7.1285
X15.4045Y-6.3635
X15.4095Y-6.4385
X15.4395Y-6.7122
X15.4595Y-7.1285
X15.4895Y-6.6585
X15.5045Y-6.8785
X15.5345Y-5.9881
X15.5695Y-6.6585
X15.6395Y-6.6585
X15.7095Y-6.6585
X15.7295Y-7.1035
X15.7529Y-6.8755
X15.779Y-6.7534
X15.7795Y-6.6585
X15.7795Y-7.0985
X15.8045Y-6.7585
X15.8054Y-6.97
X15.8295Y-6.6635
X15.8295Y-7.0985
X15.8485Y-6.9053
X15.8495Y-6.6443
X15.8495Y-6.7785
X15.8695Y-7.0078
X15.8795Y-5.9435
X15.8895Y-6.7785
X15.9095Y-7.0078
X15.9495Y-6.0135
X15.9495Y-6.0635
X15.9495Y-6.9685
X15.9595Y-6.7535
X15.9695Y-7.2235
X16.0145Y-5.9185
X16.0145Y-6.8685
X16.0245Y-6.6935
X16.0295Y-7.1985
X16.0995Y-6.8835
X16.152Y-7.0516
X16.1645Y-6.9135
X16.2145Y-6.1035
X16.2145Y-6.2285
X16.2519Y-6.8789
X16.2535Y-6.5344
X16.4795Y-5.7335
X16.5095Y-6.2285
T2
X13.8321Y-6.2703
X13.8345Y-7.0135
X13.8845Y-7.0135
X13.9095Y-6.316
X13.9845Y-7.0235
X14.0263Y-6.4962
X14.0263Y-6.5474
X14.0263Y-6.5986
X14.0263Y-6.6498
X14.0695Y-5.4335
X14.0695Y-5.8485
X14.0774Y-6.4962
X14.0774Y-6.5474
X14.0774Y-6.5986
X14.0774Y-6.6498
X14.1045Y-6.0135
X14.1095Y-5.2685
X14.1095Y-5.6035
X14.1095Y-5.6835
X14.1286Y-6.4962
X14.1286Y-6.5474
X14.1286Y-6.5986
X14.1286Y-6.6498
X14.1795Y-6.3135
X14.1798Y-6.4962
X14.1798Y-6.5474
X14.1798Y-6.5986
X14.1798Y-6.6498
X14.3151Y-6.4142
X14.3345Y-7.1235
X14.4095Y-6.286
X14.4295Y-6.5135
X14.4295Y-6.6735
X14.4853Y-5.0514
X14.4853Y-5.0764
X14.4853Y-5.1014
X14.4853Y-5.1264
X14.4853Y-5.1514
X14.4853Y-5.9764
X14.4853Y-6.0014
X14.4853Y-6.0264
X14.4853Y-6.0514
X14.4853Y-6.0764
X14.5053Y-5.9614
X14.5057Y-5.8574
X14.5057Y-5.8824
X14.5157Y-5.2399
X14.5157Y-5.2624
X14.5157Y-5.2849
X14.5345Y-6.9935
X14.5545Y-7.0285
X14.5547Y-5.3314
X14.5695Y-6.6735
X14.5945Y-5.3155
X14.5945Y-5.3415
X14.5953Y-5.9114
X14.5953Y-5.9364
X14.5953Y-5.9614
X14.5953Y-5.9864
X14.5953Y-6.0114
X14.5953Y-6.0364
X14.5953Y-6.0614
X14.6003Y-5.0464
X14.6003Y-5.0714
X14.6003Y-5.0964
X14.6003Y-5.1214
X14.6003Y-5.1464
X14.6003Y-5.1714
X14.6003Y-5.1964
X14.6095Y-5.6585
X14.6145Y-5.3285
X14.6145Y-6.4285
X14.6145Y-6.5535
X14.6187Y-5.5077
X14.6187Y-5.5589
X14.6187Y-5.6101
X14.6345Y-5.6585
X14.6395Y-6.3235
X14.6699Y-5.5077
X14.6699Y-5.5589
X14.6699Y-5.6101
X14.7045Y-7.1235
X14.7145Y-5.0785
X14.7145Y-5.2085
X14.7211Y-5.5077
X14.7211Y-5.5589
X14.7211Y-5.6101
X14.7257Y-6.0394
X14.7723Y-5.5077
X14.7723Y-5.5589
X14.7723Y-5.6101
X14.7791Y-5.1694
X14.7857Y-6.0414
X14.7945Y-6.2135
X14.8235Y-5.5077
X14.8235Y-5.5589
X14.8235Y-5.6101
X14.833Y-6.595
X14.8353Y-5.2014
X14.8395Y-6.6965
X14.8746Y-5.5077
X14.8746Y-5.5589
X14.8746Y-5.6101
X14.8941Y-5.1694
X14.8945Y-6.4435
X14.9053Y-5.9214
X14.9145Y-5.8035
X14.9195Y-6.4435
X14.9258Y-5.5077
X14.9258Y-5.5589
X14.9258Y-5.6101
X14.9445Y-6.4435
X14.9553Y-5.2014
X14.9557Y-5.2674
X14.9695Y-6.5635
X14.9757Y-5.9224
X14.9795Y-7.0235
X15.0045Y-5.9585
X15.0095Y-6.6885
X15.0295Y-7.104
X15.0295Y-7.129
X15.0357Y-5.9224
X15.0495Y-6.1585
X15.0495Y-6.1835
X15.0495Y-6.3035
X15.0495Y-6.3285
X15.0545Y-7.104
X15.0545Y-7.129
X15.0645Y-5.9585
X15.0701Y-7.1935
X15.0701Y-7.2185
X15.0701Y-7.2435
X15.0745Y-6.1585
X15.0745Y-6.1835
X15.0745Y-6.3035
X15.0745Y-6.3285
X15.0795Y-7.104
X15.0795Y-7.129
X15.0951Y-7.1935
X15.0951Y-7.2185
X15.0951Y-7.2435
X15.0953Y-5.9219
X15.0995Y-6.1585
X15.0995Y-6.1835
X15.0995Y-6.3035
X15.0995Y-6.3285
X15.1495Y-5.6235
X15.1507Y-5.8324
X15.1845Y-5.326
X15.1845Y-5.351
X15.2095Y-5.326
X15.2095Y-5.351
X15.22Y-5.7727
X15.2345Y-5.326
X15.2345Y-5.351
X15.2595Y-5.326
X15.2595Y-5.351
X15.2595Y-5.9935
X15.2595Y-6.3835
X15.2645Y-6.8185
X15.2845Y-5.326
X15.2845Y-5.351
X15.2845Y-6.3835
X15.2895Y-5.9785
X15.2895Y-6.2985
X15.3045Y-7.1135
X15.3095Y-5.326
X15.3095Y-5.351
X15.3095Y-6.3835
X15.3285Y-5.5734
X15.3345Y-5.326
X15.3345Y-5.351
X15.3345Y-6.3835
X15.345Y-5.785
X15.3595Y-5.326
X15.3595Y-5.351
X15.3595Y-6.3835
X15.3845Y-6.3835
X15.392Y-6.336
X15.3995Y-7.2435
X15.4845Y-6.1135
X15.4845Y-6.1385
X15.4845Y-6.1635
X15.4845Y-6.1885
X15.4845Y-6.2135
X15.4895Y-6.5935
X15.5095Y-6.1135
X15.5095Y-6.1635
X15.5095Y-6.1885
X15.5395Y-6.1135
X15.5395Y-6.1385
X15.5395Y-6.1635
X15.5395Y-6.1885
X15.5395Y-6.2135
X15.5595Y-6.8235
X15.5645Y-6.1135
X15.5645Y-6.1385
X15.5645Y-6.1635
X15.5695Y-6.5935
X15.595Y-5.535
X15.595Y-5.56
X15.595Y-5.585
X15.595Y-5.61
X15.6095Y-6.1635
X15.625Y-5.56
X15.625Y-5.585
X15.625Y-5.61
X15.626Y-5.5345
X15.6395Y-6.5935
X15.655Y-5.56
X15.655Y-5.585
X15.655Y-5.61
X15.656Y-5.5345
X15.6614Y-6.4413
X15.6795Y-7.113
X15.685Y-5.56
X15.685Y-5.585
X15.685Y-5.61
X15.686Y-5.5345
X15.7045Y-6.8185
X15.7097Y-6.5902
X15.712Y-6.2674
X15.7395Y-6.9035
X15.7495Y-5.415
X15.7495Y-5.4485
X15.7495Y-5.4735
X15.7495Y-5.5
X15.7495Y-5.525
X15.7495Y-5.56
X15.7745Y-5.415
X15.7745Y-5.4485
X15.7745Y-5.4735
X15.7745Y-5.5
X15.7745Y-5.525
X15.7745Y-5.56
X15.7795Y-6.5935
X15.7845Y-6.085
X15.7895Y-5.9985
X15.7895Y-7.2435
X15.7995Y-5.415
X15.7995Y-5.4485
X15.7995Y-5.4735
X15.7995Y-5.5
X15.7995Y-5.525
X15.7995Y-5.56
X15.8245Y-5.415
X15.8245Y-5.4485
X15.8245Y-5.4735
X15.8245Y-5.5
X15.8245Y-5.525
X15.8245Y-5.56
X15.8795Y-6.6535
X15.9595Y-6.8085
X16.0195Y-6.9585
X16.0595Y-6.5784
X16.0595Y-6.6034
X16.0895Y-6.5784
X16.0895Y-6.6034
X16.1195Y-6.5784
X16.1195Y-6.6034
X16.1324Y-6.9741
X16.1345Y-7.1135
X16.1495Y-6.5784
X16.1495Y-6.6034
X16.1545Y-6.7935
X16.1795Y-6.5784
X16.1795Y-6.6034
X16.2095Y-7.1035
X16.2445Y-6.9485
X16.3045Y-5.6785
X16.3045Y-6.1085
T3
X16.3Y-6.6161
X16.3Y-6.6496
X16.3Y-6.6831
X16.3Y-6.7165
X16.3Y-6.75
X16.3Y-6.7835
X16.3Y-6.8169
X16.3Y-6.8504
X16.3531Y-6.6161
X16.3531Y-6.6496
X16.3531Y-6.6831
X16.3531Y-6.7165
X16.3531Y-6.75
X16.3531Y-6.7835
X16.3531Y-6.8169
X16.3531Y-6.8504
T6
X13.937Y-5.3449
X13.937Y-5.5449
X13.937Y-5.7449
X13.937Y-5.9449
X15.4795Y-5.0835
X15.6795Y-5.0835
X15.8795Y-5.0835
X16.0795Y-5.0835
T4
G00X16.3091Y-6.563
M15
G01X16.3681Y-6.563
M16
G05
G00X16.3091Y-6.9035
M15
G01X16.3681Y-6.9035
M16
G05
G00X16.4559Y-6.563
M15
G01X16.4874Y-6.563
M16
G05
G00X16.4559Y-6.9035
M15
G01X16.4874Y-6.9035
M16
G05
T5
G00X16.0495Y-5.4646
M15
G01X16.0495Y-5.3623
M16
G05
G00X16.2109Y-5.2245
M15
G01X16.1243Y-5.2245
M16
G05
G00X16.2779Y-5.4568
M15
G01X16.2779Y-5.3702
M16
G05
T0
M30
