G04 #@! TF.GenerationSoftware,KiCad,Pcbnew,(5.1.9)-1*
G04 #@! TF.CreationDate,2021-01-16T17:43:42+01:00*
G04 #@! TF.ProjectId,musical-box,6d757369-6361-46c2-9d62-6f782e6b6963,rev?*
G04 #@! TF.SameCoordinates,Original*
G04 #@! TF.FileFunction,Paste,Bot*
G04 #@! TF.FilePolarity,Positive*
%FSLAX46Y46*%
G04 Gerber Fmt 4.6, Leading zero omitted, Abs format (unit mm)*
G04 Created by KiCad (PCBNEW (5.1.9)-1) date 2021-01-16 17:43:42*
%MOMM*%
%LPD*%
G01*
G04 APERTURE LIST*
%ADD10C,0.010000*%
%ADD11R,0.430000X0.680000*%
%ADD12R,0.980000X0.730000*%
%ADD13R,0.780000X0.880000*%
%ADD14R,1.040000X0.630000*%
%ADD15R,0.230000X0.730000*%
%ADD16R,1.280000X0.230000*%
%ADD17R,0.630000X0.380000*%
%ADD18R,5.680000X1.580000*%
G04 APERTURE END LIST*
D10*
G36*
X400165000Y-137306000D02*
G01*
X399415000Y-137306000D01*
X399415000Y-137776000D01*
X400165000Y-137776000D01*
X400165000Y-137306000D01*
G37*
X400165000Y-137306000D02*
X399415000Y-137306000D01*
X399415000Y-137776000D01*
X400165000Y-137776000D01*
X400165000Y-137306000D01*
G36*
X403160500Y-141081000D02*
G01*
X402670500Y-141081000D01*
X402670500Y-141986000D01*
X403160500Y-141986000D01*
X403160500Y-141081000D01*
G37*
X403160500Y-141081000D02*
X402670500Y-141081000D01*
X402670500Y-141986000D01*
X403160500Y-141986000D01*
X403160500Y-141081000D01*
G36*
X403160500Y-136906000D02*
G01*
X402670500Y-136906000D01*
X402670500Y-137811000D01*
X403160500Y-137811000D01*
X403160500Y-136906000D01*
G37*
X403160500Y-136906000D02*
X402670500Y-136906000D01*
X402670500Y-137811000D01*
X403160500Y-137811000D01*
X403160500Y-136906000D01*
G36*
X400292000Y-141116000D02*
G01*
X399542000Y-141116000D01*
X399542000Y-141586000D01*
X400292000Y-141586000D01*
X400292000Y-141116000D01*
G37*
X400292000Y-141116000D02*
X399542000Y-141116000D01*
X399542000Y-141586000D01*
X400292000Y-141586000D01*
X400292000Y-141116000D01*
G36*
X403420500Y-137586000D02*
G01*
X402140500Y-137586000D01*
X402140500Y-139026000D01*
X403420500Y-139026000D01*
X403420500Y-137586000D01*
G37*
X403420500Y-137586000D02*
X402140500Y-137586000D01*
X402140500Y-139026000D01*
X403420500Y-139026000D01*
X403420500Y-137586000D01*
G36*
X401390500Y-137586000D02*
G01*
X400110500Y-137586000D01*
X400110500Y-139026000D01*
X401390500Y-139026000D01*
X401390500Y-137586000D01*
G37*
X401390500Y-137586000D02*
X400110500Y-137586000D01*
X400110500Y-139026000D01*
X401390500Y-139026000D01*
X401390500Y-137586000D01*
G36*
X403420500Y-139866000D02*
G01*
X402140500Y-139866000D01*
X402140500Y-141306000D01*
X403420500Y-141306000D01*
X403420500Y-139866000D01*
G37*
X403420500Y-139866000D02*
X402140500Y-139866000D01*
X402140500Y-141306000D01*
X403420500Y-141306000D01*
X403420500Y-139866000D01*
G36*
X401390500Y-139866000D02*
G01*
X400110500Y-139866000D01*
X400110500Y-141306000D01*
X401390500Y-141306000D01*
X401390500Y-139866000D01*
G37*
X401390500Y-139866000D02*
X400110500Y-139866000D01*
X400110500Y-141306000D01*
X401390500Y-141306000D01*
X401390500Y-139866000D01*
G36*
G01*
X376539000Y-134039000D02*
X377079000Y-134039000D01*
G75*
G02*
X377274000Y-134234000I0J-195000D01*
G01*
X377274000Y-134624000D01*
G75*
G02*
X377079000Y-134819000I-195000J0D01*
G01*
X376539000Y-134819000D01*
G75*
G02*
X376344000Y-134624000I0J195000D01*
G01*
X376344000Y-134234000D01*
G75*
G02*
X376539000Y-134039000I195000J0D01*
G01*
G37*
G36*
G01*
X376539000Y-132389000D02*
X377079000Y-132389000D01*
G75*
G02*
X377274000Y-132584000I0J-195000D01*
G01*
X377274000Y-132974000D01*
G75*
G02*
X377079000Y-133169000I-195000J0D01*
G01*
X376539000Y-133169000D01*
G75*
G02*
X376344000Y-132974000I0J195000D01*
G01*
X376344000Y-132584000D01*
G75*
G02*
X376539000Y-132389000I195000J0D01*
G01*
G37*
G36*
G01*
X373498000Y-134075000D02*
X374038000Y-134075000D01*
G75*
G02*
X374233000Y-134270000I0J-195000D01*
G01*
X374233000Y-134660000D01*
G75*
G02*
X374038000Y-134855000I-195000J0D01*
G01*
X373498000Y-134855000D01*
G75*
G02*
X373303000Y-134660000I0J195000D01*
G01*
X373303000Y-134270000D01*
G75*
G02*
X373498000Y-134075000I195000J0D01*
G01*
G37*
G36*
G01*
X373498000Y-132425000D02*
X374038000Y-132425000D01*
G75*
G02*
X374233000Y-132620000I0J-195000D01*
G01*
X374233000Y-133010000D01*
G75*
G02*
X374038000Y-133205000I-195000J0D01*
G01*
X373498000Y-133205000D01*
G75*
G02*
X373303000Y-133010000I0J195000D01*
G01*
X373303000Y-132620000D01*
G75*
G02*
X373498000Y-132425000I195000J0D01*
G01*
G37*
G36*
G01*
X392705000Y-163560000D02*
X392705000Y-164100000D01*
G75*
G02*
X392510000Y-164295000I-195000J0D01*
G01*
X392120000Y-164295000D01*
G75*
G02*
X391925000Y-164100000I0J195000D01*
G01*
X391925000Y-163560000D01*
G75*
G02*
X392120000Y-163365000I195000J0D01*
G01*
X392510000Y-163365000D01*
G75*
G02*
X392705000Y-163560000I0J-195000D01*
G01*
G37*
G36*
G01*
X394355000Y-163560000D02*
X394355000Y-164100000D01*
G75*
G02*
X394160000Y-164295000I-195000J0D01*
G01*
X393770000Y-164295000D01*
G75*
G02*
X393575000Y-164100000I0J195000D01*
G01*
X393575000Y-163560000D01*
G75*
G02*
X393770000Y-163365000I195000J0D01*
G01*
X394160000Y-163365000D01*
G75*
G02*
X394355000Y-163560000I0J-195000D01*
G01*
G37*
G36*
G01*
X414405000Y-145068000D02*
X413865000Y-145068000D01*
G75*
G02*
X413670000Y-144873000I0J195000D01*
G01*
X413670000Y-144483000D01*
G75*
G02*
X413865000Y-144288000I195000J0D01*
G01*
X414405000Y-144288000D01*
G75*
G02*
X414600000Y-144483000I0J-195000D01*
G01*
X414600000Y-144873000D01*
G75*
G02*
X414405000Y-145068000I-195000J0D01*
G01*
G37*
G36*
G01*
X414405000Y-146718000D02*
X413865000Y-146718000D01*
G75*
G02*
X413670000Y-146523000I0J195000D01*
G01*
X413670000Y-146133000D01*
G75*
G02*
X413865000Y-145938000I195000J0D01*
G01*
X414405000Y-145938000D01*
G75*
G02*
X414600000Y-146133000I0J-195000D01*
G01*
X414600000Y-146523000D01*
G75*
G02*
X414405000Y-146718000I-195000J0D01*
G01*
G37*
G36*
G01*
X405877250Y-180830000D02*
X405374750Y-180830000D01*
G75*
G02*
X405161000Y-180616250I0J213750D01*
G01*
X405161000Y-180188750D01*
G75*
G02*
X405374750Y-179975000I213750J0D01*
G01*
X405877250Y-179975000D01*
G75*
G02*
X406091000Y-180188750I0J-213750D01*
G01*
X406091000Y-180616250D01*
G75*
G02*
X405877250Y-180830000I-213750J0D01*
G01*
G37*
G36*
G01*
X405877250Y-182405000D02*
X405374750Y-182405000D01*
G75*
G02*
X405161000Y-182191250I0J213750D01*
G01*
X405161000Y-181763750D01*
G75*
G02*
X405374750Y-181550000I213750J0D01*
G01*
X405877250Y-181550000D01*
G75*
G02*
X406091000Y-181763750I0J-213750D01*
G01*
X406091000Y-182191250D01*
G75*
G02*
X405877250Y-182405000I-213750J0D01*
G01*
G37*
D11*
X409817000Y-179141000D03*
X410467000Y-177141000D03*
X409167000Y-177141000D03*
G36*
G01*
X380882000Y-182716750D02*
X380882000Y-183219250D01*
G75*
G02*
X380668250Y-183433000I-213750J0D01*
G01*
X380240750Y-183433000D01*
G75*
G02*
X380027000Y-183219250I0J213750D01*
G01*
X380027000Y-182716750D01*
G75*
G02*
X380240750Y-182503000I213750J0D01*
G01*
X380668250Y-182503000D01*
G75*
G02*
X380882000Y-182716750I0J-213750D01*
G01*
G37*
G36*
G01*
X382457000Y-182716750D02*
X382457000Y-183219250D01*
G75*
G02*
X382243250Y-183433000I-213750J0D01*
G01*
X381815750Y-183433000D01*
G75*
G02*
X381602000Y-183219250I0J213750D01*
G01*
X381602000Y-182716750D01*
G75*
G02*
X381815750Y-182503000I213750J0D01*
G01*
X382243250Y-182503000D01*
G75*
G02*
X382457000Y-182716750I0J-213750D01*
G01*
G37*
G36*
G01*
X380882000Y-181192750D02*
X380882000Y-181695250D01*
G75*
G02*
X380668250Y-181909000I-213750J0D01*
G01*
X380240750Y-181909000D01*
G75*
G02*
X380027000Y-181695250I0J213750D01*
G01*
X380027000Y-181192750D01*
G75*
G02*
X380240750Y-180979000I213750J0D01*
G01*
X380668250Y-180979000D01*
G75*
G02*
X380882000Y-181192750I0J-213750D01*
G01*
G37*
G36*
G01*
X382457000Y-181192750D02*
X382457000Y-181695250D01*
G75*
G02*
X382243250Y-181909000I-213750J0D01*
G01*
X381815750Y-181909000D01*
G75*
G02*
X381602000Y-181695250I0J213750D01*
G01*
X381602000Y-181192750D01*
G75*
G02*
X381815750Y-180979000I213750J0D01*
G01*
X382243250Y-180979000D01*
G75*
G02*
X382457000Y-181192750I0J-213750D01*
G01*
G37*
G36*
G01*
X387201250Y-173657000D02*
X386698750Y-173657000D01*
G75*
G02*
X386485000Y-173443250I0J213750D01*
G01*
X386485000Y-173015750D01*
G75*
G02*
X386698750Y-172802000I213750J0D01*
G01*
X387201250Y-172802000D01*
G75*
G02*
X387415000Y-173015750I0J-213750D01*
G01*
X387415000Y-173443250D01*
G75*
G02*
X387201250Y-173657000I-213750J0D01*
G01*
G37*
G36*
G01*
X387201250Y-175232000D02*
X386698750Y-175232000D01*
G75*
G02*
X386485000Y-175018250I0J213750D01*
G01*
X386485000Y-174590750D01*
G75*
G02*
X386698750Y-174377000I213750J0D01*
G01*
X387201250Y-174377000D01*
G75*
G02*
X387415000Y-174590750I0J-213750D01*
G01*
X387415000Y-175018250D01*
G75*
G02*
X387201250Y-175232000I-213750J0D01*
G01*
G37*
G36*
G01*
X362321750Y-182820000D02*
X362824250Y-182820000D01*
G75*
G02*
X363038000Y-183033750I0J-213750D01*
G01*
X363038000Y-183461250D01*
G75*
G02*
X362824250Y-183675000I-213750J0D01*
G01*
X362321750Y-183675000D01*
G75*
G02*
X362108000Y-183461250I0J213750D01*
G01*
X362108000Y-183033750D01*
G75*
G02*
X362321750Y-182820000I213750J0D01*
G01*
G37*
G36*
G01*
X362321750Y-181245000D02*
X362824250Y-181245000D01*
G75*
G02*
X363038000Y-181458750I0J-213750D01*
G01*
X363038000Y-181886250D01*
G75*
G02*
X362824250Y-182100000I-213750J0D01*
G01*
X362321750Y-182100000D01*
G75*
G02*
X362108000Y-181886250I0J213750D01*
G01*
X362108000Y-181458750D01*
G75*
G02*
X362321750Y-181245000I213750J0D01*
G01*
G37*
G36*
G01*
X402829250Y-182100000D02*
X402326750Y-182100000D01*
G75*
G02*
X402113000Y-181886250I0J213750D01*
G01*
X402113000Y-181458750D01*
G75*
G02*
X402326750Y-181245000I213750J0D01*
G01*
X402829250Y-181245000D01*
G75*
G02*
X403043000Y-181458750I0J-213750D01*
G01*
X403043000Y-181886250D01*
G75*
G02*
X402829250Y-182100000I-213750J0D01*
G01*
G37*
G36*
G01*
X402829250Y-183675000D02*
X402326750Y-183675000D01*
G75*
G02*
X402113000Y-183461250I0J213750D01*
G01*
X402113000Y-183033750D01*
G75*
G02*
X402326750Y-182820000I213750J0D01*
G01*
X402829250Y-182820000D01*
G75*
G02*
X403043000Y-183033750I0J-213750D01*
G01*
X403043000Y-183461250D01*
G75*
G02*
X402829250Y-183675000I-213750J0D01*
G01*
G37*
G36*
G01*
X414386250Y-156128500D02*
X413883750Y-156128500D01*
G75*
G02*
X413670000Y-155914750I0J213750D01*
G01*
X413670000Y-155487250D01*
G75*
G02*
X413883750Y-155273500I213750J0D01*
G01*
X414386250Y-155273500D01*
G75*
G02*
X414600000Y-155487250I0J-213750D01*
G01*
X414600000Y-155914750D01*
G75*
G02*
X414386250Y-156128500I-213750J0D01*
G01*
G37*
G36*
G01*
X414386250Y-157703500D02*
X413883750Y-157703500D01*
G75*
G02*
X413670000Y-157489750I0J213750D01*
G01*
X413670000Y-157062250D01*
G75*
G02*
X413883750Y-156848500I213750J0D01*
G01*
X414386250Y-156848500D01*
G75*
G02*
X414600000Y-157062250I0J-213750D01*
G01*
X414600000Y-157489750D01*
G75*
G02*
X414386250Y-157703500I-213750J0D01*
G01*
G37*
D12*
X405258000Y-137541000D03*
X405258000Y-141351000D03*
X405258000Y-138811000D03*
X405258000Y-140081000D03*
G36*
G01*
X371018000Y-165196000D02*
X371508000Y-165196000D01*
G75*
G02*
X371728000Y-165416000I0J-220000D01*
G01*
X371728000Y-165856000D01*
G75*
G02*
X371508000Y-166076000I-220000J0D01*
G01*
X371018000Y-166076000D01*
G75*
G02*
X370798000Y-165856000I0J220000D01*
G01*
X370798000Y-165416000D01*
G75*
G02*
X371018000Y-165196000I220000J0D01*
G01*
G37*
G36*
G01*
X371018000Y-163646000D02*
X371508000Y-163646000D01*
G75*
G02*
X371728000Y-163866000I0J-220000D01*
G01*
X371728000Y-164306000D01*
G75*
G02*
X371508000Y-164526000I-220000J0D01*
G01*
X371018000Y-164526000D01*
G75*
G02*
X370798000Y-164306000I0J220000D01*
G01*
X370798000Y-163866000D01*
G75*
G02*
X371018000Y-163646000I220000J0D01*
G01*
G37*
G36*
G01*
X396585000Y-173670000D02*
X396095000Y-173670000D01*
G75*
G02*
X395875000Y-173450000I0J220000D01*
G01*
X395875000Y-173010000D01*
G75*
G02*
X396095000Y-172790000I220000J0D01*
G01*
X396585000Y-172790000D01*
G75*
G02*
X396805000Y-173010000I0J-220000D01*
G01*
X396805000Y-173450000D01*
G75*
G02*
X396585000Y-173670000I-220000J0D01*
G01*
G37*
G36*
G01*
X396585000Y-175220000D02*
X396095000Y-175220000D01*
G75*
G02*
X395875000Y-175000000I0J220000D01*
G01*
X395875000Y-174560000D01*
G75*
G02*
X396095000Y-174340000I220000J0D01*
G01*
X396585000Y-174340000D01*
G75*
G02*
X396805000Y-174560000I0J-220000D01*
G01*
X396805000Y-175000000D01*
G75*
G02*
X396585000Y-175220000I-220000J0D01*
G01*
G37*
G36*
G01*
X358173000Y-160613250D02*
X358173000Y-160110750D01*
G75*
G02*
X358386750Y-159897000I213750J0D01*
G01*
X358814250Y-159897000D01*
G75*
G02*
X359028000Y-160110750I0J-213750D01*
G01*
X359028000Y-160613250D01*
G75*
G02*
X358814250Y-160827000I-213750J0D01*
G01*
X358386750Y-160827000D01*
G75*
G02*
X358173000Y-160613250I0J213750D01*
G01*
G37*
G36*
G01*
X356598000Y-160613250D02*
X356598000Y-160110750D01*
G75*
G02*
X356811750Y-159897000I213750J0D01*
G01*
X357239250Y-159897000D01*
G75*
G02*
X357453000Y-160110750I0J-213750D01*
G01*
X357453000Y-160613250D01*
G75*
G02*
X357239250Y-160827000I-213750J0D01*
G01*
X356811750Y-160827000D01*
G75*
G02*
X356598000Y-160613250I0J213750D01*
G01*
G37*
G36*
G01*
X361023500Y-160343000D02*
X361563500Y-160343000D01*
G75*
G02*
X361758500Y-160538000I0J-195000D01*
G01*
X361758500Y-160928000D01*
G75*
G02*
X361563500Y-161123000I-195000J0D01*
G01*
X361023500Y-161123000D01*
G75*
G02*
X360828500Y-160928000I0J195000D01*
G01*
X360828500Y-160538000D01*
G75*
G02*
X361023500Y-160343000I195000J0D01*
G01*
G37*
G36*
G01*
X361023500Y-158693000D02*
X361563500Y-158693000D01*
G75*
G02*
X361758500Y-158888000I0J-195000D01*
G01*
X361758500Y-159278000D01*
G75*
G02*
X361563500Y-159473000I-195000J0D01*
G01*
X361023500Y-159473000D01*
G75*
G02*
X360828500Y-159278000I0J195000D01*
G01*
X360828500Y-158888000D01*
G75*
G02*
X361023500Y-158693000I195000J0D01*
G01*
G37*
G36*
G01*
X362547500Y-160343000D02*
X363087500Y-160343000D01*
G75*
G02*
X363282500Y-160538000I0J-195000D01*
G01*
X363282500Y-160928000D01*
G75*
G02*
X363087500Y-161123000I-195000J0D01*
G01*
X362547500Y-161123000D01*
G75*
G02*
X362352500Y-160928000I0J195000D01*
G01*
X362352500Y-160538000D01*
G75*
G02*
X362547500Y-160343000I195000J0D01*
G01*
G37*
G36*
G01*
X362547500Y-158693000D02*
X363087500Y-158693000D01*
G75*
G02*
X363282500Y-158888000I0J-195000D01*
G01*
X363282500Y-159278000D01*
G75*
G02*
X363087500Y-159473000I-195000J0D01*
G01*
X362547500Y-159473000D01*
G75*
G02*
X362352500Y-159278000I0J195000D01*
G01*
X362352500Y-158888000D01*
G75*
G02*
X362547500Y-158693000I195000J0D01*
G01*
G37*
G36*
G01*
X359471000Y-135073000D02*
X359471000Y-135613000D01*
G75*
G02*
X359276000Y-135808000I-195000J0D01*
G01*
X358886000Y-135808000D01*
G75*
G02*
X358691000Y-135613000I0J195000D01*
G01*
X358691000Y-135073000D01*
G75*
G02*
X358886000Y-134878000I195000J0D01*
G01*
X359276000Y-134878000D01*
G75*
G02*
X359471000Y-135073000I0J-195000D01*
G01*
G37*
G36*
G01*
X361121000Y-135073000D02*
X361121000Y-135613000D01*
G75*
G02*
X360926000Y-135808000I-195000J0D01*
G01*
X360536000Y-135808000D01*
G75*
G02*
X360341000Y-135613000I0J195000D01*
G01*
X360341000Y-135073000D01*
G75*
G02*
X360536000Y-134878000I195000J0D01*
G01*
X360926000Y-134878000D01*
G75*
G02*
X361121000Y-135073000I0J-195000D01*
G01*
G37*
G36*
G01*
X359471000Y-140407000D02*
X359471000Y-140947000D01*
G75*
G02*
X359276000Y-141142000I-195000J0D01*
G01*
X358886000Y-141142000D01*
G75*
G02*
X358691000Y-140947000I0J195000D01*
G01*
X358691000Y-140407000D01*
G75*
G02*
X358886000Y-140212000I195000J0D01*
G01*
X359276000Y-140212000D01*
G75*
G02*
X359471000Y-140407000I0J-195000D01*
G01*
G37*
G36*
G01*
X361121000Y-140407000D02*
X361121000Y-140947000D01*
G75*
G02*
X360926000Y-141142000I-195000J0D01*
G01*
X360536000Y-141142000D01*
G75*
G02*
X360341000Y-140947000I0J195000D01*
G01*
X360341000Y-140407000D01*
G75*
G02*
X360536000Y-140212000I195000J0D01*
G01*
X360926000Y-140212000D01*
G75*
G02*
X361121000Y-140407000I0J-195000D01*
G01*
G37*
G36*
G01*
X359471000Y-145614000D02*
X359471000Y-146154000D01*
G75*
G02*
X359276000Y-146349000I-195000J0D01*
G01*
X358886000Y-146349000D01*
G75*
G02*
X358691000Y-146154000I0J195000D01*
G01*
X358691000Y-145614000D01*
G75*
G02*
X358886000Y-145419000I195000J0D01*
G01*
X359276000Y-145419000D01*
G75*
G02*
X359471000Y-145614000I0J-195000D01*
G01*
G37*
G36*
G01*
X361121000Y-145614000D02*
X361121000Y-146154000D01*
G75*
G02*
X360926000Y-146349000I-195000J0D01*
G01*
X360536000Y-146349000D01*
G75*
G02*
X360341000Y-146154000I0J195000D01*
G01*
X360341000Y-145614000D01*
G75*
G02*
X360536000Y-145419000I195000J0D01*
G01*
X360926000Y-145419000D01*
G75*
G02*
X361121000Y-145614000I0J-195000D01*
G01*
G37*
G36*
G01*
X359471000Y-150948000D02*
X359471000Y-151488000D01*
G75*
G02*
X359276000Y-151683000I-195000J0D01*
G01*
X358886000Y-151683000D01*
G75*
G02*
X358691000Y-151488000I0J195000D01*
G01*
X358691000Y-150948000D01*
G75*
G02*
X358886000Y-150753000I195000J0D01*
G01*
X359276000Y-150753000D01*
G75*
G02*
X359471000Y-150948000I0J-195000D01*
G01*
G37*
G36*
G01*
X361121000Y-150948000D02*
X361121000Y-151488000D01*
G75*
G02*
X360926000Y-151683000I-195000J0D01*
G01*
X360536000Y-151683000D01*
G75*
G02*
X360341000Y-151488000I0J195000D01*
G01*
X360341000Y-150948000D01*
G75*
G02*
X360536000Y-150753000I195000J0D01*
G01*
X360926000Y-150753000D01*
G75*
G02*
X361121000Y-150948000I0J-195000D01*
G01*
G37*
G36*
G01*
X359571000Y-133574000D02*
X359571000Y-134064000D01*
G75*
G02*
X359351000Y-134284000I-220000J0D01*
G01*
X358911000Y-134284000D01*
G75*
G02*
X358691000Y-134064000I0J220000D01*
G01*
X358691000Y-133574000D01*
G75*
G02*
X358911000Y-133354000I220000J0D01*
G01*
X359351000Y-133354000D01*
G75*
G02*
X359571000Y-133574000I0J-220000D01*
G01*
G37*
G36*
G01*
X361121000Y-133574000D02*
X361121000Y-134064000D01*
G75*
G02*
X360901000Y-134284000I-220000J0D01*
G01*
X360461000Y-134284000D01*
G75*
G02*
X360241000Y-134064000I0J220000D01*
G01*
X360241000Y-133574000D01*
G75*
G02*
X360461000Y-133354000I220000J0D01*
G01*
X360901000Y-133354000D01*
G75*
G02*
X361121000Y-133574000I0J-220000D01*
G01*
G37*
G36*
G01*
X359571000Y-142083000D02*
X359571000Y-142573000D01*
G75*
G02*
X359351000Y-142793000I-220000J0D01*
G01*
X358911000Y-142793000D01*
G75*
G02*
X358691000Y-142573000I0J220000D01*
G01*
X358691000Y-142083000D01*
G75*
G02*
X358911000Y-141863000I220000J0D01*
G01*
X359351000Y-141863000D01*
G75*
G02*
X359571000Y-142083000I0J-220000D01*
G01*
G37*
G36*
G01*
X361121000Y-142083000D02*
X361121000Y-142573000D01*
G75*
G02*
X360901000Y-142793000I-220000J0D01*
G01*
X360461000Y-142793000D01*
G75*
G02*
X360241000Y-142573000I0J220000D01*
G01*
X360241000Y-142083000D01*
G75*
G02*
X360461000Y-141863000I220000J0D01*
G01*
X360901000Y-141863000D01*
G75*
G02*
X361121000Y-142083000I0J-220000D01*
G01*
G37*
G36*
G01*
X359571000Y-144115000D02*
X359571000Y-144605000D01*
G75*
G02*
X359351000Y-144825000I-220000J0D01*
G01*
X358911000Y-144825000D01*
G75*
G02*
X358691000Y-144605000I0J220000D01*
G01*
X358691000Y-144115000D01*
G75*
G02*
X358911000Y-143895000I220000J0D01*
G01*
X359351000Y-143895000D01*
G75*
G02*
X359571000Y-144115000I0J-220000D01*
G01*
G37*
G36*
G01*
X361121000Y-144115000D02*
X361121000Y-144605000D01*
G75*
G02*
X360901000Y-144825000I-220000J0D01*
G01*
X360461000Y-144825000D01*
G75*
G02*
X360241000Y-144605000I0J220000D01*
G01*
X360241000Y-144115000D01*
G75*
G02*
X360461000Y-143895000I220000J0D01*
G01*
X360901000Y-143895000D01*
G75*
G02*
X361121000Y-144115000I0J-220000D01*
G01*
G37*
G36*
G01*
X359571000Y-152497000D02*
X359571000Y-152987000D01*
G75*
G02*
X359351000Y-153207000I-220000J0D01*
G01*
X358911000Y-153207000D01*
G75*
G02*
X358691000Y-152987000I0J220000D01*
G01*
X358691000Y-152497000D01*
G75*
G02*
X358911000Y-152277000I220000J0D01*
G01*
X359351000Y-152277000D01*
G75*
G02*
X359571000Y-152497000I0J-220000D01*
G01*
G37*
G36*
G01*
X361121000Y-152497000D02*
X361121000Y-152987000D01*
G75*
G02*
X360901000Y-153207000I-220000J0D01*
G01*
X360461000Y-153207000D01*
G75*
G02*
X360241000Y-152987000I0J220000D01*
G01*
X360241000Y-152497000D01*
G75*
G02*
X360461000Y-152277000I220000J0D01*
G01*
X360901000Y-152277000D01*
G75*
G02*
X361121000Y-152497000I0J-220000D01*
G01*
G37*
G36*
G01*
X398123250Y-173631500D02*
X397620750Y-173631500D01*
G75*
G02*
X397407000Y-173417750I0J213750D01*
G01*
X397407000Y-172990250D01*
G75*
G02*
X397620750Y-172776500I213750J0D01*
G01*
X398123250Y-172776500D01*
G75*
G02*
X398337000Y-172990250I0J-213750D01*
G01*
X398337000Y-173417750D01*
G75*
G02*
X398123250Y-173631500I-213750J0D01*
G01*
G37*
G36*
G01*
X398123250Y-175206500D02*
X397620750Y-175206500D01*
G75*
G02*
X397407000Y-174992750I0J213750D01*
G01*
X397407000Y-174565250D01*
G75*
G02*
X397620750Y-174351500I213750J0D01*
G01*
X398123250Y-174351500D01*
G75*
G02*
X398337000Y-174565250I0J-213750D01*
G01*
X398337000Y-174992750D01*
G75*
G02*
X398123250Y-175206500I-213750J0D01*
G01*
G37*
D13*
X373803000Y-165861000D03*
X374753000Y-163861000D03*
X372853000Y-163861000D03*
D14*
X386873000Y-159017000D03*
X386873000Y-160917000D03*
X389073000Y-160917000D03*
X389073000Y-159967000D03*
X389073000Y-159017000D03*
X386873000Y-155207000D03*
X386873000Y-157107000D03*
X389073000Y-157107000D03*
X389073000Y-156157000D03*
X389073000Y-155207000D03*
D15*
X389104000Y-144074000D03*
X388608000Y-144074000D03*
X388104000Y-144074000D03*
X387604000Y-144074000D03*
X387084000Y-144074000D03*
D16*
X386950000Y-145020000D03*
X386950000Y-145520000D03*
X386950000Y-146020000D03*
D15*
X387096000Y-146974000D03*
X387596000Y-146974000D03*
X388096000Y-146974000D03*
X388596000Y-146974000D03*
X389116000Y-146974000D03*
D16*
X389250000Y-146028000D03*
X389250000Y-145528000D03*
X389250000Y-145028000D03*
G36*
G01*
X373389000Y-127852750D02*
X373389000Y-128355250D01*
G75*
G02*
X373175250Y-128569000I-213750J0D01*
G01*
X372747750Y-128569000D01*
G75*
G02*
X372534000Y-128355250I0J213750D01*
G01*
X372534000Y-127852750D01*
G75*
G02*
X372747750Y-127639000I213750J0D01*
G01*
X373175250Y-127639000D01*
G75*
G02*
X373389000Y-127852750I0J-213750D01*
G01*
G37*
G36*
G01*
X374964000Y-127852750D02*
X374964000Y-128355250D01*
G75*
G02*
X374750250Y-128569000I-213750J0D01*
G01*
X374322750Y-128569000D01*
G75*
G02*
X374109000Y-128355250I0J213750D01*
G01*
X374109000Y-127852750D01*
G75*
G02*
X374322750Y-127639000I213750J0D01*
G01*
X374750250Y-127639000D01*
G75*
G02*
X374964000Y-127852750I0J-213750D01*
G01*
G37*
G36*
G01*
X373389000Y-126328750D02*
X373389000Y-126831250D01*
G75*
G02*
X373175250Y-127045000I-213750J0D01*
G01*
X372747750Y-127045000D01*
G75*
G02*
X372534000Y-126831250I0J213750D01*
G01*
X372534000Y-126328750D01*
G75*
G02*
X372747750Y-126115000I213750J0D01*
G01*
X373175250Y-126115000D01*
G75*
G02*
X373389000Y-126328750I0J-213750D01*
G01*
G37*
G36*
G01*
X374964000Y-126328750D02*
X374964000Y-126831250D01*
G75*
G02*
X374750250Y-127045000I-213750J0D01*
G01*
X374322750Y-127045000D01*
G75*
G02*
X374109000Y-126831250I0J213750D01*
G01*
X374109000Y-126328750D01*
G75*
G02*
X374322750Y-126115000I213750J0D01*
G01*
X374750250Y-126115000D01*
G75*
G02*
X374964000Y-126328750I0J-213750D01*
G01*
G37*
G36*
G01*
X407401250Y-180830000D02*
X406898750Y-180830000D01*
G75*
G02*
X406685000Y-180616250I0J213750D01*
G01*
X406685000Y-180188750D01*
G75*
G02*
X406898750Y-179975000I213750J0D01*
G01*
X407401250Y-179975000D01*
G75*
G02*
X407615000Y-180188750I0J-213750D01*
G01*
X407615000Y-180616250D01*
G75*
G02*
X407401250Y-180830000I-213750J0D01*
G01*
G37*
G36*
G01*
X407401250Y-182405000D02*
X406898750Y-182405000D01*
G75*
G02*
X406685000Y-182191250I0J213750D01*
G01*
X406685000Y-181763750D01*
G75*
G02*
X406898750Y-181550000I213750J0D01*
G01*
X407401250Y-181550000D01*
G75*
G02*
X407615000Y-181763750I0J-213750D01*
G01*
X407615000Y-182191250D01*
G75*
G02*
X407401250Y-182405000I-213750J0D01*
G01*
G37*
G36*
G01*
X399781250Y-182100000D02*
X399278750Y-182100000D01*
G75*
G02*
X399065000Y-181886250I0J213750D01*
G01*
X399065000Y-181458750D01*
G75*
G02*
X399278750Y-181245000I213750J0D01*
G01*
X399781250Y-181245000D01*
G75*
G02*
X399995000Y-181458750I0J-213750D01*
G01*
X399995000Y-181886250D01*
G75*
G02*
X399781250Y-182100000I-213750J0D01*
G01*
G37*
G36*
G01*
X399781250Y-183675000D02*
X399278750Y-183675000D01*
G75*
G02*
X399065000Y-183461250I0J213750D01*
G01*
X399065000Y-183033750D01*
G75*
G02*
X399278750Y-182820000I213750J0D01*
G01*
X399781250Y-182820000D01*
G75*
G02*
X399995000Y-183033750I0J-213750D01*
G01*
X399995000Y-183461250D01*
G75*
G02*
X399781250Y-183675000I-213750J0D01*
G01*
G37*
G36*
G01*
X401305250Y-182100000D02*
X400802750Y-182100000D01*
G75*
G02*
X400589000Y-181886250I0J213750D01*
G01*
X400589000Y-181458750D01*
G75*
G02*
X400802750Y-181245000I213750J0D01*
G01*
X401305250Y-181245000D01*
G75*
G02*
X401519000Y-181458750I0J-213750D01*
G01*
X401519000Y-181886250D01*
G75*
G02*
X401305250Y-182100000I-213750J0D01*
G01*
G37*
G36*
G01*
X401305250Y-183675000D02*
X400802750Y-183675000D01*
G75*
G02*
X400589000Y-183461250I0J213750D01*
G01*
X400589000Y-183033750D01*
G75*
G02*
X400802750Y-182820000I213750J0D01*
G01*
X401305250Y-182820000D01*
G75*
G02*
X401519000Y-183033750I0J-213750D01*
G01*
X401519000Y-183461250D01*
G75*
G02*
X401305250Y-183675000I-213750J0D01*
G01*
G37*
G36*
G01*
X389875250Y-182100000D02*
X389372750Y-182100000D01*
G75*
G02*
X389159000Y-181886250I0J213750D01*
G01*
X389159000Y-181458750D01*
G75*
G02*
X389372750Y-181245000I213750J0D01*
G01*
X389875250Y-181245000D01*
G75*
G02*
X390089000Y-181458750I0J-213750D01*
G01*
X390089000Y-181886250D01*
G75*
G02*
X389875250Y-182100000I-213750J0D01*
G01*
G37*
G36*
G01*
X389875250Y-183675000D02*
X389372750Y-183675000D01*
G75*
G02*
X389159000Y-183461250I0J213750D01*
G01*
X389159000Y-183033750D01*
G75*
G02*
X389372750Y-182820000I213750J0D01*
G01*
X389875250Y-182820000D01*
G75*
G02*
X390089000Y-183033750I0J-213750D01*
G01*
X390089000Y-183461250D01*
G75*
G02*
X389875250Y-183675000I-213750J0D01*
G01*
G37*
G36*
G01*
X391399250Y-182100000D02*
X390896750Y-182100000D01*
G75*
G02*
X390683000Y-181886250I0J213750D01*
G01*
X390683000Y-181458750D01*
G75*
G02*
X390896750Y-181245000I213750J0D01*
G01*
X391399250Y-181245000D01*
G75*
G02*
X391613000Y-181458750I0J-213750D01*
G01*
X391613000Y-181886250D01*
G75*
G02*
X391399250Y-182100000I-213750J0D01*
G01*
G37*
G36*
G01*
X391399250Y-183675000D02*
X390896750Y-183675000D01*
G75*
G02*
X390683000Y-183461250I0J213750D01*
G01*
X390683000Y-183033750D01*
G75*
G02*
X390896750Y-182820000I213750J0D01*
G01*
X391399250Y-182820000D01*
G75*
G02*
X391613000Y-183033750I0J-213750D01*
G01*
X391613000Y-183461250D01*
G75*
G02*
X391399250Y-183675000I-213750J0D01*
G01*
G37*
G36*
G01*
X392942250Y-182100000D02*
X392439750Y-182100000D01*
G75*
G02*
X392226000Y-181886250I0J213750D01*
G01*
X392226000Y-181458750D01*
G75*
G02*
X392439750Y-181245000I213750J0D01*
G01*
X392942250Y-181245000D01*
G75*
G02*
X393156000Y-181458750I0J-213750D01*
G01*
X393156000Y-181886250D01*
G75*
G02*
X392942250Y-182100000I-213750J0D01*
G01*
G37*
G36*
G01*
X392942250Y-183675000D02*
X392439750Y-183675000D01*
G75*
G02*
X392226000Y-183461250I0J213750D01*
G01*
X392226000Y-183033750D01*
G75*
G02*
X392439750Y-182820000I213750J0D01*
G01*
X392942250Y-182820000D01*
G75*
G02*
X393156000Y-183033750I0J-213750D01*
G01*
X393156000Y-183461250D01*
G75*
G02*
X392942250Y-183675000I-213750J0D01*
G01*
G37*
G36*
G01*
X371265750Y-158871000D02*
X371768250Y-158871000D01*
G75*
G02*
X371982000Y-159084750I0J-213750D01*
G01*
X371982000Y-159512250D01*
G75*
G02*
X371768250Y-159726000I-213750J0D01*
G01*
X371265750Y-159726000D01*
G75*
G02*
X371052000Y-159512250I0J213750D01*
G01*
X371052000Y-159084750D01*
G75*
G02*
X371265750Y-158871000I213750J0D01*
G01*
G37*
G36*
G01*
X371265750Y-157296000D02*
X371768250Y-157296000D01*
G75*
G02*
X371982000Y-157509750I0J-213750D01*
G01*
X371982000Y-157937250D01*
G75*
G02*
X371768250Y-158151000I-213750J0D01*
G01*
X371265750Y-158151000D01*
G75*
G02*
X371052000Y-157937250I0J213750D01*
G01*
X371052000Y-157509750D01*
G75*
G02*
X371265750Y-157296000I213750J0D01*
G01*
G37*
G36*
G01*
X373570000Y-162069750D02*
X373570000Y-162572250D01*
G75*
G02*
X373356250Y-162786000I-213750J0D01*
G01*
X372928750Y-162786000D01*
G75*
G02*
X372715000Y-162572250I0J213750D01*
G01*
X372715000Y-162069750D01*
G75*
G02*
X372928750Y-161856000I213750J0D01*
G01*
X373356250Y-161856000D01*
G75*
G02*
X373570000Y-162069750I0J-213750D01*
G01*
G37*
G36*
G01*
X375145000Y-162069750D02*
X375145000Y-162572250D01*
G75*
G02*
X374931250Y-162786000I-213750J0D01*
G01*
X374503750Y-162786000D01*
G75*
G02*
X374290000Y-162572250I0J213750D01*
G01*
X374290000Y-162069750D01*
G75*
G02*
X374503750Y-161856000I213750J0D01*
G01*
X374931250Y-161856000D01*
G75*
G02*
X375145000Y-162069750I0J-213750D01*
G01*
G37*
G36*
G01*
X374363000Y-158073250D02*
X374363000Y-157570750D01*
G75*
G02*
X374576750Y-157357000I213750J0D01*
G01*
X375004250Y-157357000D01*
G75*
G02*
X375218000Y-157570750I0J-213750D01*
G01*
X375218000Y-158073250D01*
G75*
G02*
X375004250Y-158287000I-213750J0D01*
G01*
X374576750Y-158287000D01*
G75*
G02*
X374363000Y-158073250I0J213750D01*
G01*
G37*
G36*
G01*
X372788000Y-158073250D02*
X372788000Y-157570750D01*
G75*
G02*
X373001750Y-157357000I213750J0D01*
G01*
X373429250Y-157357000D01*
G75*
G02*
X373643000Y-157570750I0J-213750D01*
G01*
X373643000Y-158073250D01*
G75*
G02*
X373429250Y-158287000I-213750J0D01*
G01*
X373001750Y-158287000D01*
G75*
G02*
X372788000Y-158073250I0J213750D01*
G01*
G37*
G36*
G01*
X376503750Y-163316000D02*
X377006250Y-163316000D01*
G75*
G02*
X377220000Y-163529750I0J-213750D01*
G01*
X377220000Y-163957250D01*
G75*
G02*
X377006250Y-164171000I-213750J0D01*
G01*
X376503750Y-164171000D01*
G75*
G02*
X376290000Y-163957250I0J213750D01*
G01*
X376290000Y-163529750D01*
G75*
G02*
X376503750Y-163316000I213750J0D01*
G01*
G37*
G36*
G01*
X376503750Y-161741000D02*
X377006250Y-161741000D01*
G75*
G02*
X377220000Y-161954750I0J-213750D01*
G01*
X377220000Y-162382250D01*
G75*
G02*
X377006250Y-162596000I-213750J0D01*
G01*
X376503750Y-162596000D01*
G75*
G02*
X376290000Y-162382250I0J213750D01*
G01*
X376290000Y-161954750D01*
G75*
G02*
X376503750Y-161741000I213750J0D01*
G01*
G37*
G36*
G01*
X358173000Y-162137250D02*
X358173000Y-161634750D01*
G75*
G02*
X358386750Y-161421000I213750J0D01*
G01*
X358814250Y-161421000D01*
G75*
G02*
X359028000Y-161634750I0J-213750D01*
G01*
X359028000Y-162137250D01*
G75*
G02*
X358814250Y-162351000I-213750J0D01*
G01*
X358386750Y-162351000D01*
G75*
G02*
X358173000Y-162137250I0J213750D01*
G01*
G37*
G36*
G01*
X356598000Y-162137250D02*
X356598000Y-161634750D01*
G75*
G02*
X356811750Y-161421000I213750J0D01*
G01*
X357239250Y-161421000D01*
G75*
G02*
X357453000Y-161634750I0J-213750D01*
G01*
X357453000Y-162137250D01*
G75*
G02*
X357239250Y-162351000I-213750J0D01*
G01*
X356811750Y-162351000D01*
G75*
G02*
X356598000Y-162137250I0J213750D01*
G01*
G37*
G36*
G01*
X376994250Y-165644000D02*
X376491750Y-165644000D01*
G75*
G02*
X376278000Y-165430250I0J213750D01*
G01*
X376278000Y-165002750D01*
G75*
G02*
X376491750Y-164789000I213750J0D01*
G01*
X376994250Y-164789000D01*
G75*
G02*
X377208000Y-165002750I0J-213750D01*
G01*
X377208000Y-165430250D01*
G75*
G02*
X376994250Y-165644000I-213750J0D01*
G01*
G37*
G36*
G01*
X376994250Y-167219000D02*
X376491750Y-167219000D01*
G75*
G02*
X376278000Y-167005250I0J213750D01*
G01*
X376278000Y-166577750D01*
G75*
G02*
X376491750Y-166364000I213750J0D01*
G01*
X376994250Y-166364000D01*
G75*
G02*
X377208000Y-166577750I0J-213750D01*
G01*
X377208000Y-167005250D01*
G75*
G02*
X376994250Y-167219000I-213750J0D01*
G01*
G37*
G36*
G01*
X397495250Y-168511000D02*
X396992750Y-168511000D01*
G75*
G02*
X396779000Y-168297250I0J213750D01*
G01*
X396779000Y-167869750D01*
G75*
G02*
X396992750Y-167656000I213750J0D01*
G01*
X397495250Y-167656000D01*
G75*
G02*
X397709000Y-167869750I0J-213750D01*
G01*
X397709000Y-168297250D01*
G75*
G02*
X397495250Y-168511000I-213750J0D01*
G01*
G37*
G36*
G01*
X397495250Y-170086000D02*
X396992750Y-170086000D01*
G75*
G02*
X396779000Y-169872250I0J213750D01*
G01*
X396779000Y-169444750D01*
G75*
G02*
X396992750Y-169231000I213750J0D01*
G01*
X397495250Y-169231000D01*
G75*
G02*
X397709000Y-169444750I0J-213750D01*
G01*
X397709000Y-169872250D01*
G75*
G02*
X397495250Y-170086000I-213750J0D01*
G01*
G37*
G36*
G01*
X393201000Y-161888750D02*
X393201000Y-162391250D01*
G75*
G02*
X392987250Y-162605000I-213750J0D01*
G01*
X392559750Y-162605000D01*
G75*
G02*
X392346000Y-162391250I0J213750D01*
G01*
X392346000Y-161888750D01*
G75*
G02*
X392559750Y-161675000I213750J0D01*
G01*
X392987250Y-161675000D01*
G75*
G02*
X393201000Y-161888750I0J-213750D01*
G01*
G37*
G36*
G01*
X394776000Y-161888750D02*
X394776000Y-162391250D01*
G75*
G02*
X394562250Y-162605000I-213750J0D01*
G01*
X394134750Y-162605000D01*
G75*
G02*
X393921000Y-162391250I0J213750D01*
G01*
X393921000Y-161888750D01*
G75*
G02*
X394134750Y-161675000I213750J0D01*
G01*
X394562250Y-161675000D01*
G75*
G02*
X394776000Y-161888750I0J-213750D01*
G01*
G37*
G36*
G01*
X394071750Y-160214000D02*
X394574250Y-160214000D01*
G75*
G02*
X394788000Y-160427750I0J-213750D01*
G01*
X394788000Y-160855250D01*
G75*
G02*
X394574250Y-161069000I-213750J0D01*
G01*
X394071750Y-161069000D01*
G75*
G02*
X393858000Y-160855250I0J213750D01*
G01*
X393858000Y-160427750D01*
G75*
G02*
X394071750Y-160214000I213750J0D01*
G01*
G37*
G36*
G01*
X394071750Y-158639000D02*
X394574250Y-158639000D01*
G75*
G02*
X394788000Y-158852750I0J-213750D01*
G01*
X394788000Y-159280250D01*
G75*
G02*
X394574250Y-159494000I-213750J0D01*
G01*
X394071750Y-159494000D01*
G75*
G02*
X393858000Y-159280250I0J213750D01*
G01*
X393858000Y-158852750D01*
G75*
G02*
X394071750Y-158639000I213750J0D01*
G01*
G37*
G36*
G01*
X399273250Y-168511000D02*
X398770750Y-168511000D01*
G75*
G02*
X398557000Y-168297250I0J213750D01*
G01*
X398557000Y-167869750D01*
G75*
G02*
X398770750Y-167656000I213750J0D01*
G01*
X399273250Y-167656000D01*
G75*
G02*
X399487000Y-167869750I0J-213750D01*
G01*
X399487000Y-168297250D01*
G75*
G02*
X399273250Y-168511000I-213750J0D01*
G01*
G37*
G36*
G01*
X399273250Y-170086000D02*
X398770750Y-170086000D01*
G75*
G02*
X398557000Y-169872250I0J213750D01*
G01*
X398557000Y-169444750D01*
G75*
G02*
X398770750Y-169231000I213750J0D01*
G01*
X399273250Y-169231000D01*
G75*
G02*
X399487000Y-169444750I0J-213750D01*
G01*
X399487000Y-169872250D01*
G75*
G02*
X399273250Y-170086000I-213750J0D01*
G01*
G37*
G36*
G01*
X395717250Y-168511000D02*
X395214750Y-168511000D01*
G75*
G02*
X395001000Y-168297250I0J213750D01*
G01*
X395001000Y-167869750D01*
G75*
G02*
X395214750Y-167656000I213750J0D01*
G01*
X395717250Y-167656000D01*
G75*
G02*
X395931000Y-167869750I0J-213750D01*
G01*
X395931000Y-168297250D01*
G75*
G02*
X395717250Y-168511000I-213750J0D01*
G01*
G37*
G36*
G01*
X395717250Y-170086000D02*
X395214750Y-170086000D01*
G75*
G02*
X395001000Y-169872250I0J213750D01*
G01*
X395001000Y-169444750D01*
G75*
G02*
X395214750Y-169231000I213750J0D01*
G01*
X395717250Y-169231000D01*
G75*
G02*
X395931000Y-169444750I0J-213750D01*
G01*
X395931000Y-169872250D01*
G75*
G02*
X395717250Y-170086000I-213750J0D01*
G01*
G37*
G36*
G01*
X387589250Y-148840000D02*
X387086750Y-148840000D01*
G75*
G02*
X386873000Y-148626250I0J213750D01*
G01*
X386873000Y-148198750D01*
G75*
G02*
X387086750Y-147985000I213750J0D01*
G01*
X387589250Y-147985000D01*
G75*
G02*
X387803000Y-148198750I0J-213750D01*
G01*
X387803000Y-148626250D01*
G75*
G02*
X387589250Y-148840000I-213750J0D01*
G01*
G37*
G36*
G01*
X387589250Y-150415000D02*
X387086750Y-150415000D01*
G75*
G02*
X386873000Y-150201250I0J213750D01*
G01*
X386873000Y-149773750D01*
G75*
G02*
X387086750Y-149560000I213750J0D01*
G01*
X387589250Y-149560000D01*
G75*
G02*
X387803000Y-149773750I0J-213750D01*
G01*
X387803000Y-150201250D01*
G75*
G02*
X387589250Y-150415000I-213750J0D01*
G01*
G37*
G36*
G01*
X388610750Y-149560000D02*
X389113250Y-149560000D01*
G75*
G02*
X389327000Y-149773750I0J-213750D01*
G01*
X389327000Y-150201250D01*
G75*
G02*
X389113250Y-150415000I-213750J0D01*
G01*
X388610750Y-150415000D01*
G75*
G02*
X388397000Y-150201250I0J213750D01*
G01*
X388397000Y-149773750D01*
G75*
G02*
X388610750Y-149560000I213750J0D01*
G01*
G37*
G36*
G01*
X388610750Y-147985000D02*
X389113250Y-147985000D01*
G75*
G02*
X389327000Y-148198750I0J-213750D01*
G01*
X389327000Y-148626250D01*
G75*
G02*
X389113250Y-148840000I-213750J0D01*
G01*
X388610750Y-148840000D01*
G75*
G02*
X388397000Y-148626250I0J213750D01*
G01*
X388397000Y-148198750D01*
G75*
G02*
X388610750Y-147985000I213750J0D01*
G01*
G37*
G36*
G01*
X403088750Y-170755000D02*
X403591250Y-170755000D01*
G75*
G02*
X403805000Y-170968750I0J-213750D01*
G01*
X403805000Y-171396250D01*
G75*
G02*
X403591250Y-171610000I-213750J0D01*
G01*
X403088750Y-171610000D01*
G75*
G02*
X402875000Y-171396250I0J213750D01*
G01*
X402875000Y-170968750D01*
G75*
G02*
X403088750Y-170755000I213750J0D01*
G01*
G37*
G36*
G01*
X403088750Y-169180000D02*
X403591250Y-169180000D01*
G75*
G02*
X403805000Y-169393750I0J-213750D01*
G01*
X403805000Y-169821250D01*
G75*
G02*
X403591250Y-170035000I-213750J0D01*
G01*
X403088750Y-170035000D01*
G75*
G02*
X402875000Y-169821250I0J213750D01*
G01*
X402875000Y-169393750D01*
G75*
G02*
X403088750Y-169180000I213750J0D01*
G01*
G37*
G36*
G01*
X400830750Y-176517000D02*
X401333250Y-176517000D01*
G75*
G02*
X401547000Y-176730750I0J-213750D01*
G01*
X401547000Y-177158250D01*
G75*
G02*
X401333250Y-177372000I-213750J0D01*
G01*
X400830750Y-177372000D01*
G75*
G02*
X400617000Y-177158250I0J213750D01*
G01*
X400617000Y-176730750D01*
G75*
G02*
X400830750Y-176517000I213750J0D01*
G01*
G37*
G36*
G01*
X400830750Y-174942000D02*
X401333250Y-174942000D01*
G75*
G02*
X401547000Y-175155750I0J-213750D01*
G01*
X401547000Y-175583250D01*
G75*
G02*
X401333250Y-175797000I-213750J0D01*
G01*
X400830750Y-175797000D01*
G75*
G02*
X400617000Y-175583250I0J213750D01*
G01*
X400617000Y-175155750D01*
G75*
G02*
X400830750Y-174942000I213750J0D01*
G01*
G37*
G36*
G01*
X386299000Y-137209000D02*
X386299000Y-139347000D01*
G75*
G02*
X386053000Y-139593000I-246000J0D01*
G01*
X385315000Y-139593000D01*
G75*
G02*
X385069000Y-139347000I0J246000D01*
G01*
X385069000Y-137209000D01*
G75*
G02*
X385315000Y-136963000I246000J0D01*
G01*
X386053000Y-136963000D01*
G75*
G02*
X386299000Y-137209000I0J-246000D01*
G01*
G37*
G36*
G01*
X389099000Y-137209000D02*
X389099000Y-139347000D01*
G75*
G02*
X388853000Y-139593000I-246000J0D01*
G01*
X388115000Y-139593000D01*
G75*
G02*
X387869000Y-139347000I0J246000D01*
G01*
X387869000Y-137209000D01*
G75*
G02*
X388115000Y-136963000I246000J0D01*
G01*
X388853000Y-136963000D01*
G75*
G02*
X389099000Y-137209000I0J-246000D01*
G01*
G37*
G36*
G01*
X384396000Y-143609250D02*
X384396000Y-143106750D01*
G75*
G02*
X384609750Y-142893000I213750J0D01*
G01*
X385037250Y-142893000D01*
G75*
G02*
X385251000Y-143106750I0J-213750D01*
G01*
X385251000Y-143609250D01*
G75*
G02*
X385037250Y-143823000I-213750J0D01*
G01*
X384609750Y-143823000D01*
G75*
G02*
X384396000Y-143609250I0J213750D01*
G01*
G37*
G36*
G01*
X382821000Y-143609250D02*
X382821000Y-143106750D01*
G75*
G02*
X383034750Y-142893000I213750J0D01*
G01*
X383462250Y-142893000D01*
G75*
G02*
X383676000Y-143106750I0J-213750D01*
G01*
X383676000Y-143609250D01*
G75*
G02*
X383462250Y-143823000I-213750J0D01*
G01*
X383034750Y-143823000D01*
G75*
G02*
X382821000Y-143609250I0J213750D01*
G01*
G37*
G36*
G01*
X405266000Y-169762750D02*
X405266000Y-170265250D01*
G75*
G02*
X405052250Y-170479000I-213750J0D01*
G01*
X404624750Y-170479000D01*
G75*
G02*
X404411000Y-170265250I0J213750D01*
G01*
X404411000Y-169762750D01*
G75*
G02*
X404624750Y-169549000I213750J0D01*
G01*
X405052250Y-169549000D01*
G75*
G02*
X405266000Y-169762750I0J-213750D01*
G01*
G37*
G36*
G01*
X406841000Y-169762750D02*
X406841000Y-170265250D01*
G75*
G02*
X406627250Y-170479000I-213750J0D01*
G01*
X406199750Y-170479000D01*
G75*
G02*
X405986000Y-170265250I0J213750D01*
G01*
X405986000Y-169762750D01*
G75*
G02*
X406199750Y-169549000I213750J0D01*
G01*
X406627250Y-169549000D01*
G75*
G02*
X406841000Y-169762750I0J-213750D01*
G01*
G37*
G36*
G01*
X405986000Y-171789250D02*
X405986000Y-171286750D01*
G75*
G02*
X406199750Y-171073000I213750J0D01*
G01*
X406627250Y-171073000D01*
G75*
G02*
X406841000Y-171286750I0J-213750D01*
G01*
X406841000Y-171789250D01*
G75*
G02*
X406627250Y-172003000I-213750J0D01*
G01*
X406199750Y-172003000D01*
G75*
G02*
X405986000Y-171789250I0J213750D01*
G01*
G37*
G36*
G01*
X404411000Y-171789250D02*
X404411000Y-171286750D01*
G75*
G02*
X404624750Y-171073000I213750J0D01*
G01*
X405052250Y-171073000D01*
G75*
G02*
X405266000Y-171286750I0J-213750D01*
G01*
X405266000Y-171789250D01*
G75*
G02*
X405052250Y-172003000I-213750J0D01*
G01*
X404624750Y-172003000D01*
G75*
G02*
X404411000Y-171789250I0J213750D01*
G01*
G37*
G36*
G01*
X407914750Y-175263000D02*
X408417250Y-175263000D01*
G75*
G02*
X408631000Y-175476750I0J-213750D01*
G01*
X408631000Y-175904250D01*
G75*
G02*
X408417250Y-176118000I-213750J0D01*
G01*
X407914750Y-176118000D01*
G75*
G02*
X407701000Y-175904250I0J213750D01*
G01*
X407701000Y-175476750D01*
G75*
G02*
X407914750Y-175263000I213750J0D01*
G01*
G37*
G36*
G01*
X407914750Y-173688000D02*
X408417250Y-173688000D01*
G75*
G02*
X408631000Y-173901750I0J-213750D01*
G01*
X408631000Y-174329250D01*
G75*
G02*
X408417250Y-174543000I-213750J0D01*
G01*
X407914750Y-174543000D01*
G75*
G02*
X407701000Y-174329250I0J213750D01*
G01*
X407701000Y-173901750D01*
G75*
G02*
X407914750Y-173688000I213750J0D01*
G01*
G37*
G36*
G01*
X407914750Y-172215000D02*
X408417250Y-172215000D01*
G75*
G02*
X408631000Y-172428750I0J-213750D01*
G01*
X408631000Y-172856250D01*
G75*
G02*
X408417250Y-173070000I-213750J0D01*
G01*
X407914750Y-173070000D01*
G75*
G02*
X407701000Y-172856250I0J213750D01*
G01*
X407701000Y-172428750D01*
G75*
G02*
X407914750Y-172215000I213750J0D01*
G01*
G37*
G36*
G01*
X407914750Y-170640000D02*
X408417250Y-170640000D01*
G75*
G02*
X408631000Y-170853750I0J-213750D01*
G01*
X408631000Y-171281250D01*
G75*
G02*
X408417250Y-171495000I-213750J0D01*
G01*
X407914750Y-171495000D01*
G75*
G02*
X407701000Y-171281250I0J213750D01*
G01*
X407701000Y-170853750D01*
G75*
G02*
X407914750Y-170640000I213750J0D01*
G01*
G37*
G36*
G01*
X392439000Y-150712750D02*
X392439000Y-151215250D01*
G75*
G02*
X392225250Y-151429000I-213750J0D01*
G01*
X391797750Y-151429000D01*
G75*
G02*
X391584000Y-151215250I0J213750D01*
G01*
X391584000Y-150712750D01*
G75*
G02*
X391797750Y-150499000I213750J0D01*
G01*
X392225250Y-150499000D01*
G75*
G02*
X392439000Y-150712750I0J-213750D01*
G01*
G37*
G36*
G01*
X394014000Y-150712750D02*
X394014000Y-151215250D01*
G75*
G02*
X393800250Y-151429000I-213750J0D01*
G01*
X393372750Y-151429000D01*
G75*
G02*
X393159000Y-151215250I0J213750D01*
G01*
X393159000Y-150712750D01*
G75*
G02*
X393372750Y-150499000I213750J0D01*
G01*
X393800250Y-150499000D01*
G75*
G02*
X394014000Y-150712750I0J-213750D01*
G01*
G37*
G36*
G01*
X409941250Y-174543000D02*
X409438750Y-174543000D01*
G75*
G02*
X409225000Y-174329250I0J213750D01*
G01*
X409225000Y-173901750D01*
G75*
G02*
X409438750Y-173688000I213750J0D01*
G01*
X409941250Y-173688000D01*
G75*
G02*
X410155000Y-173901750I0J-213750D01*
G01*
X410155000Y-174329250D01*
G75*
G02*
X409941250Y-174543000I-213750J0D01*
G01*
G37*
G36*
G01*
X409941250Y-176118000D02*
X409438750Y-176118000D01*
G75*
G02*
X409225000Y-175904250I0J213750D01*
G01*
X409225000Y-175476750D01*
G75*
G02*
X409438750Y-175263000I213750J0D01*
G01*
X409941250Y-175263000D01*
G75*
G02*
X410155000Y-175476750I0J-213750D01*
G01*
X410155000Y-175904250D01*
G75*
G02*
X409941250Y-176118000I-213750J0D01*
G01*
G37*
G36*
G01*
X389391000Y-151601750D02*
X389391000Y-152104250D01*
G75*
G02*
X389177250Y-152318000I-213750J0D01*
G01*
X388749750Y-152318000D01*
G75*
G02*
X388536000Y-152104250I0J213750D01*
G01*
X388536000Y-151601750D01*
G75*
G02*
X388749750Y-151388000I213750J0D01*
G01*
X389177250Y-151388000D01*
G75*
G02*
X389391000Y-151601750I0J-213750D01*
G01*
G37*
G36*
G01*
X390966000Y-151601750D02*
X390966000Y-152104250D01*
G75*
G02*
X390752250Y-152318000I-213750J0D01*
G01*
X390324750Y-152318000D01*
G75*
G02*
X390111000Y-152104250I0J213750D01*
G01*
X390111000Y-151601750D01*
G75*
G02*
X390324750Y-151388000I213750J0D01*
G01*
X390752250Y-151388000D01*
G75*
G02*
X390966000Y-151601750I0J-213750D01*
G01*
G37*
G36*
G01*
X401051250Y-168511000D02*
X400548750Y-168511000D01*
G75*
G02*
X400335000Y-168297250I0J213750D01*
G01*
X400335000Y-167869750D01*
G75*
G02*
X400548750Y-167656000I213750J0D01*
G01*
X401051250Y-167656000D01*
G75*
G02*
X401265000Y-167869750I0J-213750D01*
G01*
X401265000Y-168297250D01*
G75*
G02*
X401051250Y-168511000I-213750J0D01*
G01*
G37*
G36*
G01*
X401051250Y-170086000D02*
X400548750Y-170086000D01*
G75*
G02*
X400335000Y-169872250I0J213750D01*
G01*
X400335000Y-169444750D01*
G75*
G02*
X400548750Y-169231000I213750J0D01*
G01*
X401051250Y-169231000D01*
G75*
G02*
X401265000Y-169444750I0J-213750D01*
G01*
X401265000Y-169872250D01*
G75*
G02*
X401051250Y-170086000I-213750J0D01*
G01*
G37*
G36*
G01*
X393685250Y-168511000D02*
X393182750Y-168511000D01*
G75*
G02*
X392969000Y-168297250I0J213750D01*
G01*
X392969000Y-167869750D01*
G75*
G02*
X393182750Y-167656000I213750J0D01*
G01*
X393685250Y-167656000D01*
G75*
G02*
X393899000Y-167869750I0J-213750D01*
G01*
X393899000Y-168297250D01*
G75*
G02*
X393685250Y-168511000I-213750J0D01*
G01*
G37*
G36*
G01*
X393685250Y-170086000D02*
X393182750Y-170086000D01*
G75*
G02*
X392969000Y-169872250I0J213750D01*
G01*
X392969000Y-169444750D01*
G75*
G02*
X393182750Y-169231000I213750J0D01*
G01*
X393685250Y-169231000D01*
G75*
G02*
X393899000Y-169444750I0J-213750D01*
G01*
X393899000Y-169872250D01*
G75*
G02*
X393685250Y-170086000I-213750J0D01*
G01*
G37*
D17*
X372980000Y-159385000D03*
X372980000Y-160685000D03*
X374880000Y-160035000D03*
X372980000Y-160035000D03*
X374880000Y-160685000D03*
X374880000Y-159385000D03*
D18*
X392672000Y-137706000D03*
X392672000Y-142406000D03*
G36*
G01*
X356914750Y-136684000D02*
X357817250Y-136684000D01*
G75*
G02*
X358056000Y-136922750I0J-238750D01*
G01*
X358056000Y-137400250D01*
G75*
G02*
X357817250Y-137639000I-238750J0D01*
G01*
X356914750Y-137639000D01*
G75*
G02*
X356676000Y-137400250I0J238750D01*
G01*
X356676000Y-136922750D01*
G75*
G02*
X356914750Y-136684000I238750J0D01*
G01*
G37*
G36*
G01*
X356914750Y-134809000D02*
X357817250Y-134809000D01*
G75*
G02*
X358056000Y-135047750I0J-238750D01*
G01*
X358056000Y-135525250D01*
G75*
G02*
X357817250Y-135764000I-238750J0D01*
G01*
X356914750Y-135764000D01*
G75*
G02*
X356676000Y-135525250I0J238750D01*
G01*
X356676000Y-135047750D01*
G75*
G02*
X356914750Y-134809000I238750J0D01*
G01*
G37*
G36*
G01*
X367923250Y-132264000D02*
X367420750Y-132264000D01*
G75*
G02*
X367207000Y-132050250I0J213750D01*
G01*
X367207000Y-131622750D01*
G75*
G02*
X367420750Y-131409000I213750J0D01*
G01*
X367923250Y-131409000D01*
G75*
G02*
X368137000Y-131622750I0J-213750D01*
G01*
X368137000Y-132050250D01*
G75*
G02*
X367923250Y-132264000I-213750J0D01*
G01*
G37*
G36*
G01*
X367923250Y-133839000D02*
X367420750Y-133839000D01*
G75*
G02*
X367207000Y-133625250I0J213750D01*
G01*
X367207000Y-133197750D01*
G75*
G02*
X367420750Y-132984000I213750J0D01*
G01*
X367923250Y-132984000D01*
G75*
G02*
X368137000Y-133197750I0J-213750D01*
G01*
X368137000Y-133625250D01*
G75*
G02*
X367923250Y-133839000I-213750J0D01*
G01*
G37*
G36*
G01*
X359395250Y-137642000D02*
X358892750Y-137642000D01*
G75*
G02*
X358679000Y-137428250I0J213750D01*
G01*
X358679000Y-137000750D01*
G75*
G02*
X358892750Y-136787000I213750J0D01*
G01*
X359395250Y-136787000D01*
G75*
G02*
X359609000Y-137000750I0J-213750D01*
G01*
X359609000Y-137428250D01*
G75*
G02*
X359395250Y-137642000I-213750J0D01*
G01*
G37*
G36*
G01*
X359395250Y-139217000D02*
X358892750Y-139217000D01*
G75*
G02*
X358679000Y-139003250I0J213750D01*
G01*
X358679000Y-138575750D01*
G75*
G02*
X358892750Y-138362000I213750J0D01*
G01*
X359395250Y-138362000D01*
G75*
G02*
X359609000Y-138575750I0J-213750D01*
G01*
X359609000Y-139003250D01*
G75*
G02*
X359395250Y-139217000I-213750J0D01*
G01*
G37*
G36*
G01*
X357817250Y-139320000D02*
X356914750Y-139320000D01*
G75*
G02*
X356676000Y-139081250I0J238750D01*
G01*
X356676000Y-138603750D01*
G75*
G02*
X356914750Y-138365000I238750J0D01*
G01*
X357817250Y-138365000D01*
G75*
G02*
X358056000Y-138603750I0J-238750D01*
G01*
X358056000Y-139081250D01*
G75*
G02*
X357817250Y-139320000I-238750J0D01*
G01*
G37*
G36*
G01*
X357817250Y-141195000D02*
X356914750Y-141195000D01*
G75*
G02*
X356676000Y-140956250I0J238750D01*
G01*
X356676000Y-140478750D01*
G75*
G02*
X356914750Y-140240000I238750J0D01*
G01*
X357817250Y-140240000D01*
G75*
G02*
X358056000Y-140478750I0J-238750D01*
G01*
X358056000Y-140956250D01*
G75*
G02*
X357817250Y-141195000I-238750J0D01*
G01*
G37*
G36*
G01*
X356914750Y-147200000D02*
X357817250Y-147200000D01*
G75*
G02*
X358056000Y-147438750I0J-238750D01*
G01*
X358056000Y-147916250D01*
G75*
G02*
X357817250Y-148155000I-238750J0D01*
G01*
X356914750Y-148155000D01*
G75*
G02*
X356676000Y-147916250I0J238750D01*
G01*
X356676000Y-147438750D01*
G75*
G02*
X356914750Y-147200000I238750J0D01*
G01*
G37*
G36*
G01*
X356914750Y-145325000D02*
X357817250Y-145325000D01*
G75*
G02*
X358056000Y-145563750I0J-238750D01*
G01*
X358056000Y-146041250D01*
G75*
G02*
X357817250Y-146280000I-238750J0D01*
G01*
X356914750Y-146280000D01*
G75*
G02*
X356676000Y-146041250I0J238750D01*
G01*
X356676000Y-145563750D01*
G75*
G02*
X356914750Y-145325000I238750J0D01*
G01*
G37*
G36*
G01*
X359395250Y-147929500D02*
X358892750Y-147929500D01*
G75*
G02*
X358679000Y-147715750I0J213750D01*
G01*
X358679000Y-147288250D01*
G75*
G02*
X358892750Y-147074500I213750J0D01*
G01*
X359395250Y-147074500D01*
G75*
G02*
X359609000Y-147288250I0J-213750D01*
G01*
X359609000Y-147715750D01*
G75*
G02*
X359395250Y-147929500I-213750J0D01*
G01*
G37*
G36*
G01*
X359395250Y-149504500D02*
X358892750Y-149504500D01*
G75*
G02*
X358679000Y-149290750I0J213750D01*
G01*
X358679000Y-148863250D01*
G75*
G02*
X358892750Y-148649500I213750J0D01*
G01*
X359395250Y-148649500D01*
G75*
G02*
X359609000Y-148863250I0J-213750D01*
G01*
X359609000Y-149290750D01*
G75*
G02*
X359395250Y-149504500I-213750J0D01*
G01*
G37*
G36*
G01*
X357817250Y-149869000D02*
X356914750Y-149869000D01*
G75*
G02*
X356676000Y-149630250I0J238750D01*
G01*
X356676000Y-149152750D01*
G75*
G02*
X356914750Y-148914000I238750J0D01*
G01*
X357817250Y-148914000D01*
G75*
G02*
X358056000Y-149152750I0J-238750D01*
G01*
X358056000Y-149630250D01*
G75*
G02*
X357817250Y-149869000I-238750J0D01*
G01*
G37*
G36*
G01*
X357817250Y-151744000D02*
X356914750Y-151744000D01*
G75*
G02*
X356676000Y-151505250I0J238750D01*
G01*
X356676000Y-151027750D01*
G75*
G02*
X356914750Y-150789000I238750J0D01*
G01*
X357817250Y-150789000D01*
G75*
G02*
X358056000Y-151027750I0J-238750D01*
G01*
X358056000Y-151505250D01*
G75*
G02*
X357817250Y-151744000I-238750J0D01*
G01*
G37*
G36*
G01*
X367420750Y-150256000D02*
X367923250Y-150256000D01*
G75*
G02*
X368137000Y-150469750I0J-213750D01*
G01*
X368137000Y-150897250D01*
G75*
G02*
X367923250Y-151111000I-213750J0D01*
G01*
X367420750Y-151111000D01*
G75*
G02*
X367207000Y-150897250I0J213750D01*
G01*
X367207000Y-150469750D01*
G75*
G02*
X367420750Y-150256000I213750J0D01*
G01*
G37*
G36*
G01*
X367420750Y-148681000D02*
X367923250Y-148681000D01*
G75*
G02*
X368137000Y-148894750I0J-213750D01*
G01*
X368137000Y-149322250D01*
G75*
G02*
X367923250Y-149536000I-213750J0D01*
G01*
X367420750Y-149536000D01*
G75*
G02*
X367207000Y-149322250I0J213750D01*
G01*
X367207000Y-148894750D01*
G75*
G02*
X367420750Y-148681000I213750J0D01*
G01*
G37*
G36*
G01*
X410431000Y-180933250D02*
X410431000Y-180430750D01*
G75*
G02*
X410644750Y-180217000I213750J0D01*
G01*
X411072250Y-180217000D01*
G75*
G02*
X411286000Y-180430750I0J-213750D01*
G01*
X411286000Y-180933250D01*
G75*
G02*
X411072250Y-181147000I-213750J0D01*
G01*
X410644750Y-181147000D01*
G75*
G02*
X410431000Y-180933250I0J213750D01*
G01*
G37*
G36*
G01*
X408856000Y-180933250D02*
X408856000Y-180430750D01*
G75*
G02*
X409069750Y-180217000I213750J0D01*
G01*
X409497250Y-180217000D01*
G75*
G02*
X409711000Y-180430750I0J-213750D01*
G01*
X409711000Y-180933250D01*
G75*
G02*
X409497250Y-181147000I-213750J0D01*
G01*
X409069750Y-181147000D01*
G75*
G02*
X408856000Y-180933250I0J213750D01*
G01*
G37*
G36*
G01*
X373243750Y-182820000D02*
X373746250Y-182820000D01*
G75*
G02*
X373960000Y-183033750I0J-213750D01*
G01*
X373960000Y-183461250D01*
G75*
G02*
X373746250Y-183675000I-213750J0D01*
G01*
X373243750Y-183675000D01*
G75*
G02*
X373030000Y-183461250I0J213750D01*
G01*
X373030000Y-183033750D01*
G75*
G02*
X373243750Y-182820000I213750J0D01*
G01*
G37*
G36*
G01*
X373243750Y-181245000D02*
X373746250Y-181245000D01*
G75*
G02*
X373960000Y-181458750I0J-213750D01*
G01*
X373960000Y-181886250D01*
G75*
G02*
X373746250Y-182100000I-213750J0D01*
G01*
X373243750Y-182100000D01*
G75*
G02*
X373030000Y-181886250I0J213750D01*
G01*
X373030000Y-181458750D01*
G75*
G02*
X373243750Y-181245000I213750J0D01*
G01*
G37*
G36*
G01*
X363845750Y-182820000D02*
X364348250Y-182820000D01*
G75*
G02*
X364562000Y-183033750I0J-213750D01*
G01*
X364562000Y-183461250D01*
G75*
G02*
X364348250Y-183675000I-213750J0D01*
G01*
X363845750Y-183675000D01*
G75*
G02*
X363632000Y-183461250I0J213750D01*
G01*
X363632000Y-183033750D01*
G75*
G02*
X363845750Y-182820000I213750J0D01*
G01*
G37*
G36*
G01*
X363845750Y-181245000D02*
X364348250Y-181245000D01*
G75*
G02*
X364562000Y-181458750I0J-213750D01*
G01*
X364562000Y-181886250D01*
G75*
G02*
X364348250Y-182100000I-213750J0D01*
G01*
X363845750Y-182100000D01*
G75*
G02*
X363632000Y-181886250I0J213750D01*
G01*
X363632000Y-181458750D01*
G75*
G02*
X363845750Y-181245000I213750J0D01*
G01*
G37*
G36*
G01*
X351611000Y-176920750D02*
X351611000Y-177423250D01*
G75*
G02*
X351397250Y-177637000I-213750J0D01*
G01*
X350969750Y-177637000D01*
G75*
G02*
X350756000Y-177423250I0J213750D01*
G01*
X350756000Y-176920750D01*
G75*
G02*
X350969750Y-176707000I213750J0D01*
G01*
X351397250Y-176707000D01*
G75*
G02*
X351611000Y-176920750I0J-213750D01*
G01*
G37*
G36*
G01*
X353186000Y-176920750D02*
X353186000Y-177423250D01*
G75*
G02*
X352972250Y-177637000I-213750J0D01*
G01*
X352544750Y-177637000D01*
G75*
G02*
X352331000Y-177423250I0J213750D01*
G01*
X352331000Y-176920750D01*
G75*
G02*
X352544750Y-176707000I213750J0D01*
G01*
X352972250Y-176707000D01*
G75*
G02*
X353186000Y-176920750I0J-213750D01*
G01*
G37*
G36*
G01*
X351611000Y-175396750D02*
X351611000Y-175899250D01*
G75*
G02*
X351397250Y-176113000I-213750J0D01*
G01*
X350969750Y-176113000D01*
G75*
G02*
X350756000Y-175899250I0J213750D01*
G01*
X350756000Y-175396750D01*
G75*
G02*
X350969750Y-175183000I213750J0D01*
G01*
X351397250Y-175183000D01*
G75*
G02*
X351611000Y-175396750I0J-213750D01*
G01*
G37*
G36*
G01*
X353186000Y-175396750D02*
X353186000Y-175899250D01*
G75*
G02*
X352972250Y-176113000I-213750J0D01*
G01*
X352544750Y-176113000D01*
G75*
G02*
X352331000Y-175899250I0J213750D01*
G01*
X352331000Y-175396750D01*
G75*
G02*
X352544750Y-175183000I213750J0D01*
G01*
X352972250Y-175183000D01*
G75*
G02*
X353186000Y-175396750I0J-213750D01*
G01*
G37*
G36*
G01*
X385430250Y-159353000D02*
X384927750Y-159353000D01*
G75*
G02*
X384714000Y-159139250I0J213750D01*
G01*
X384714000Y-158711750D01*
G75*
G02*
X384927750Y-158498000I213750J0D01*
G01*
X385430250Y-158498000D01*
G75*
G02*
X385644000Y-158711750I0J-213750D01*
G01*
X385644000Y-159139250D01*
G75*
G02*
X385430250Y-159353000I-213750J0D01*
G01*
G37*
G36*
G01*
X385430250Y-160928000D02*
X384927750Y-160928000D01*
G75*
G02*
X384714000Y-160714250I0J213750D01*
G01*
X384714000Y-160286750D01*
G75*
G02*
X384927750Y-160073000I213750J0D01*
G01*
X385430250Y-160073000D01*
G75*
G02*
X385644000Y-160286750I0J-213750D01*
G01*
X385644000Y-160714250D01*
G75*
G02*
X385430250Y-160928000I-213750J0D01*
G01*
G37*
G36*
G01*
X391526250Y-159494000D02*
X391023750Y-159494000D01*
G75*
G02*
X390810000Y-159280250I0J213750D01*
G01*
X390810000Y-158852750D01*
G75*
G02*
X391023750Y-158639000I213750J0D01*
G01*
X391526250Y-158639000D01*
G75*
G02*
X391740000Y-158852750I0J-213750D01*
G01*
X391740000Y-159280250D01*
G75*
G02*
X391526250Y-159494000I-213750J0D01*
G01*
G37*
G36*
G01*
X391526250Y-161069000D02*
X391023750Y-161069000D01*
G75*
G02*
X390810000Y-160855250I0J213750D01*
G01*
X390810000Y-160427750D01*
G75*
G02*
X391023750Y-160214000I213750J0D01*
G01*
X391526250Y-160214000D01*
G75*
G02*
X391740000Y-160427750I0J-213750D01*
G01*
X391740000Y-160855250D01*
G75*
G02*
X391526250Y-161069000I-213750J0D01*
G01*
G37*
G36*
G01*
X391526250Y-155811000D02*
X391023750Y-155811000D01*
G75*
G02*
X390810000Y-155597250I0J213750D01*
G01*
X390810000Y-155169750D01*
G75*
G02*
X391023750Y-154956000I213750J0D01*
G01*
X391526250Y-154956000D01*
G75*
G02*
X391740000Y-155169750I0J-213750D01*
G01*
X391740000Y-155597250D01*
G75*
G02*
X391526250Y-155811000I-213750J0D01*
G01*
G37*
G36*
G01*
X391526250Y-157386000D02*
X391023750Y-157386000D01*
G75*
G02*
X390810000Y-157172250I0J213750D01*
G01*
X390810000Y-156744750D01*
G75*
G02*
X391023750Y-156531000I213750J0D01*
G01*
X391526250Y-156531000D01*
G75*
G02*
X391740000Y-156744750I0J-213750D01*
G01*
X391740000Y-157172250D01*
G75*
G02*
X391526250Y-157386000I-213750J0D01*
G01*
G37*
G36*
G01*
X385430250Y-155797000D02*
X384927750Y-155797000D01*
G75*
G02*
X384714000Y-155583250I0J213750D01*
G01*
X384714000Y-155155750D01*
G75*
G02*
X384927750Y-154942000I213750J0D01*
G01*
X385430250Y-154942000D01*
G75*
G02*
X385644000Y-155155750I0J-213750D01*
G01*
X385644000Y-155583250D01*
G75*
G02*
X385430250Y-155797000I-213750J0D01*
G01*
G37*
G36*
G01*
X385430250Y-157372000D02*
X384927750Y-157372000D01*
G75*
G02*
X384714000Y-157158250I0J213750D01*
G01*
X384714000Y-156730750D01*
G75*
G02*
X384927750Y-156517000I213750J0D01*
G01*
X385430250Y-156517000D01*
G75*
G02*
X385644000Y-156730750I0J-213750D01*
G01*
X385644000Y-157158250D01*
G75*
G02*
X385430250Y-157372000I-213750J0D01*
G01*
G37*
G36*
G01*
X393050250Y-159494000D02*
X392547750Y-159494000D01*
G75*
G02*
X392334000Y-159280250I0J213750D01*
G01*
X392334000Y-158852750D01*
G75*
G02*
X392547750Y-158639000I213750J0D01*
G01*
X393050250Y-158639000D01*
G75*
G02*
X393264000Y-158852750I0J-213750D01*
G01*
X393264000Y-159280250D01*
G75*
G02*
X393050250Y-159494000I-213750J0D01*
G01*
G37*
G36*
G01*
X393050250Y-161069000D02*
X392547750Y-161069000D01*
G75*
G02*
X392334000Y-160855250I0J213750D01*
G01*
X392334000Y-160427750D01*
G75*
G02*
X392547750Y-160214000I213750J0D01*
G01*
X393050250Y-160214000D01*
G75*
G02*
X393264000Y-160427750I0J-213750D01*
G01*
X393264000Y-160855250D01*
G75*
G02*
X393050250Y-161069000I-213750J0D01*
G01*
G37*
G36*
G01*
X396530000Y-164071250D02*
X396530000Y-163568750D01*
G75*
G02*
X396743750Y-163355000I213750J0D01*
G01*
X397171250Y-163355000D01*
G75*
G02*
X397385000Y-163568750I0J-213750D01*
G01*
X397385000Y-164071250D01*
G75*
G02*
X397171250Y-164285000I-213750J0D01*
G01*
X396743750Y-164285000D01*
G75*
G02*
X396530000Y-164071250I0J213750D01*
G01*
G37*
G36*
G01*
X394955000Y-164071250D02*
X394955000Y-163568750D01*
G75*
G02*
X395168750Y-163355000I213750J0D01*
G01*
X395596250Y-163355000D01*
G75*
G02*
X395810000Y-163568750I0J-213750D01*
G01*
X395810000Y-164071250D01*
G75*
G02*
X395596250Y-164285000I-213750J0D01*
G01*
X395168750Y-164285000D01*
G75*
G02*
X394955000Y-164071250I0J213750D01*
G01*
G37*
G36*
G01*
X386578750Y-141940000D02*
X387081250Y-141940000D01*
G75*
G02*
X387295000Y-142153750I0J-213750D01*
G01*
X387295000Y-142581250D01*
G75*
G02*
X387081250Y-142795000I-213750J0D01*
G01*
X386578750Y-142795000D01*
G75*
G02*
X386365000Y-142581250I0J213750D01*
G01*
X386365000Y-142153750D01*
G75*
G02*
X386578750Y-141940000I213750J0D01*
G01*
G37*
G36*
G01*
X386578750Y-140365000D02*
X387081250Y-140365000D01*
G75*
G02*
X387295000Y-140578750I0J-213750D01*
G01*
X387295000Y-141006250D01*
G75*
G02*
X387081250Y-141220000I-213750J0D01*
G01*
X386578750Y-141220000D01*
G75*
G02*
X386365000Y-141006250I0J213750D01*
G01*
X386365000Y-140578750D01*
G75*
G02*
X386578750Y-140365000I213750J0D01*
G01*
G37*
G36*
G01*
X390637250Y-148840000D02*
X390134750Y-148840000D01*
G75*
G02*
X389921000Y-148626250I0J213750D01*
G01*
X389921000Y-148198750D01*
G75*
G02*
X390134750Y-147985000I213750J0D01*
G01*
X390637250Y-147985000D01*
G75*
G02*
X390851000Y-148198750I0J-213750D01*
G01*
X390851000Y-148626250D01*
G75*
G02*
X390637250Y-148840000I-213750J0D01*
G01*
G37*
G36*
G01*
X390637250Y-150415000D02*
X390134750Y-150415000D01*
G75*
G02*
X389921000Y-150201250I0J213750D01*
G01*
X389921000Y-149773750D01*
G75*
G02*
X390134750Y-149560000I213750J0D01*
G01*
X390637250Y-149560000D01*
G75*
G02*
X390851000Y-149773750I0J-213750D01*
G01*
X390851000Y-150201250D01*
G75*
G02*
X390637250Y-150415000I-213750J0D01*
G01*
G37*
G36*
G01*
X388859250Y-141220000D02*
X388356750Y-141220000D01*
G75*
G02*
X388143000Y-141006250I0J213750D01*
G01*
X388143000Y-140578750D01*
G75*
G02*
X388356750Y-140365000I213750J0D01*
G01*
X388859250Y-140365000D01*
G75*
G02*
X389073000Y-140578750I0J-213750D01*
G01*
X389073000Y-141006250D01*
G75*
G02*
X388859250Y-141220000I-213750J0D01*
G01*
G37*
G36*
G01*
X388859250Y-142795000D02*
X388356750Y-142795000D01*
G75*
G02*
X388143000Y-142581250I0J213750D01*
G01*
X388143000Y-142153750D01*
G75*
G02*
X388356750Y-141940000I213750J0D01*
G01*
X388859250Y-141940000D01*
G75*
G02*
X389073000Y-142153750I0J-213750D01*
G01*
X389073000Y-142581250D01*
G75*
G02*
X388859250Y-142795000I-213750J0D01*
G01*
G37*
G36*
G01*
X384147000Y-139271000D02*
X382909000Y-139271000D01*
G75*
G02*
X382663000Y-139025000I0J246000D01*
G01*
X382663000Y-138287000D01*
G75*
G02*
X382909000Y-138041000I246000J0D01*
G01*
X384147000Y-138041000D01*
G75*
G02*
X384393000Y-138287000I0J-246000D01*
G01*
X384393000Y-139025000D01*
G75*
G02*
X384147000Y-139271000I-246000J0D01*
G01*
G37*
G36*
G01*
X384147000Y-142071000D02*
X382909000Y-142071000D01*
G75*
G02*
X382663000Y-141825000I0J246000D01*
G01*
X382663000Y-141087000D01*
G75*
G02*
X382909000Y-140841000I246000J0D01*
G01*
X384147000Y-140841000D01*
G75*
G02*
X384393000Y-141087000I0J-246000D01*
G01*
X384393000Y-141825000D01*
G75*
G02*
X384147000Y-142071000I-246000J0D01*
G01*
G37*
G36*
G01*
X393037000Y-146891000D02*
X391799000Y-146891000D01*
G75*
G02*
X391553000Y-146645000I0J246000D01*
G01*
X391553000Y-145907000D01*
G75*
G02*
X391799000Y-145661000I246000J0D01*
G01*
X393037000Y-145661000D01*
G75*
G02*
X393283000Y-145907000I0J-246000D01*
G01*
X393283000Y-146645000D01*
G75*
G02*
X393037000Y-146891000I-246000J0D01*
G01*
G37*
G36*
G01*
X393037000Y-149691000D02*
X391799000Y-149691000D01*
G75*
G02*
X391553000Y-149445000I0J246000D01*
G01*
X391553000Y-148707000D01*
G75*
G02*
X391799000Y-148461000I246000J0D01*
G01*
X393037000Y-148461000D01*
G75*
G02*
X393283000Y-148707000I0J-246000D01*
G01*
X393283000Y-149445000D01*
G75*
G02*
X393037000Y-149691000I-246000J0D01*
G01*
G37*
G36*
G01*
X402980000Y-176667750D02*
X402980000Y-177170250D01*
G75*
G02*
X402766250Y-177384000I-213750J0D01*
G01*
X402338750Y-177384000D01*
G75*
G02*
X402125000Y-177170250I0J213750D01*
G01*
X402125000Y-176667750D01*
G75*
G02*
X402338750Y-176454000I213750J0D01*
G01*
X402766250Y-176454000D01*
G75*
G02*
X402980000Y-176667750I0J-213750D01*
G01*
G37*
G36*
G01*
X404555000Y-176667750D02*
X404555000Y-177170250D01*
G75*
G02*
X404341250Y-177384000I-213750J0D01*
G01*
X403913750Y-177384000D01*
G75*
G02*
X403700000Y-177170250I0J213750D01*
G01*
X403700000Y-176667750D01*
G75*
G02*
X403913750Y-176454000I213750J0D01*
G01*
X404341250Y-176454000D01*
G75*
G02*
X404555000Y-176667750I0J-213750D01*
G01*
G37*
G36*
G01*
X402980000Y-175143750D02*
X402980000Y-175646250D01*
G75*
G02*
X402766250Y-175860000I-213750J0D01*
G01*
X402338750Y-175860000D01*
G75*
G02*
X402125000Y-175646250I0J213750D01*
G01*
X402125000Y-175143750D01*
G75*
G02*
X402338750Y-174930000I213750J0D01*
G01*
X402766250Y-174930000D01*
G75*
G02*
X402980000Y-175143750I0J-213750D01*
G01*
G37*
G36*
G01*
X404555000Y-175143750D02*
X404555000Y-175646250D01*
G75*
G02*
X404341250Y-175860000I-213750J0D01*
G01*
X403913750Y-175860000D01*
G75*
G02*
X403700000Y-175646250I0J213750D01*
G01*
X403700000Y-175143750D01*
G75*
G02*
X403913750Y-174930000I213750J0D01*
G01*
X404341250Y-174930000D01*
G75*
G02*
X404555000Y-175143750I0J-213750D01*
G01*
G37*
G36*
G01*
X409438750Y-172215000D02*
X409941250Y-172215000D01*
G75*
G02*
X410155000Y-172428750I0J-213750D01*
G01*
X410155000Y-172856250D01*
G75*
G02*
X409941250Y-173070000I-213750J0D01*
G01*
X409438750Y-173070000D01*
G75*
G02*
X409225000Y-172856250I0J213750D01*
G01*
X409225000Y-172428750D01*
G75*
G02*
X409438750Y-172215000I213750J0D01*
G01*
G37*
G36*
G01*
X409438750Y-170640000D02*
X409941250Y-170640000D01*
G75*
G02*
X410155000Y-170853750I0J-213750D01*
G01*
X410155000Y-171281250D01*
G75*
G02*
X409941250Y-171495000I-213750J0D01*
G01*
X409438750Y-171495000D01*
G75*
G02*
X409225000Y-171281250I0J213750D01*
G01*
X409225000Y-170853750D01*
G75*
G02*
X409438750Y-170640000I213750J0D01*
G01*
G37*
G36*
G01*
X405877250Y-175750000D02*
X405374750Y-175750000D01*
G75*
G02*
X405161000Y-175536250I0J213750D01*
G01*
X405161000Y-175108750D01*
G75*
G02*
X405374750Y-174895000I213750J0D01*
G01*
X405877250Y-174895000D01*
G75*
G02*
X406091000Y-175108750I0J-213750D01*
G01*
X406091000Y-175536250D01*
G75*
G02*
X405877250Y-175750000I-213750J0D01*
G01*
G37*
G36*
G01*
X405877250Y-177325000D02*
X405374750Y-177325000D01*
G75*
G02*
X405161000Y-177111250I0J213750D01*
G01*
X405161000Y-176683750D01*
G75*
G02*
X405374750Y-176470000I213750J0D01*
G01*
X405877250Y-176470000D01*
G75*
G02*
X406091000Y-176683750I0J-213750D01*
G01*
X406091000Y-177111250D01*
G75*
G02*
X405877250Y-177325000I-213750J0D01*
G01*
G37*
G36*
G01*
X412681250Y-174252000D02*
X411778750Y-174252000D01*
G75*
G02*
X411540000Y-174013250I0J238750D01*
G01*
X411540000Y-173535750D01*
G75*
G02*
X411778750Y-173297000I238750J0D01*
G01*
X412681250Y-173297000D01*
G75*
G02*
X412920000Y-173535750I0J-238750D01*
G01*
X412920000Y-174013250D01*
G75*
G02*
X412681250Y-174252000I-238750J0D01*
G01*
G37*
G36*
G01*
X412681250Y-176127000D02*
X411778750Y-176127000D01*
G75*
G02*
X411540000Y-175888250I0J238750D01*
G01*
X411540000Y-175410750D01*
G75*
G02*
X411778750Y-175172000I238750J0D01*
G01*
X412681250Y-175172000D01*
G75*
G02*
X412920000Y-175410750I0J-238750D01*
G01*
X412920000Y-175888250D01*
G75*
G02*
X412681250Y-176127000I-238750J0D01*
G01*
G37*
M02*
