G04 #@! TF.GenerationSoftware,KiCad,Pcbnew,(5.1.9)-1*
G04 #@! TF.CreationDate,2021-01-15T23:01:50+01:00*
G04 #@! TF.ProjectId,musical-box,6d757369-6361-46c2-9d62-6f782e6b6963,rev?*
G04 #@! TF.SameCoordinates,Original*
G04 #@! TF.FileFunction,Legend,Bot*
G04 #@! TF.FilePolarity,Positive*
%FSLAX46Y46*%
G04 Gerber Fmt 4.6, Leading zero omitted, Abs format (unit mm)*
G04 Created by KiCad (PCBNEW (5.1.9)-1) date 2021-01-15 23:01:50*
%MOMM*%
%LPD*%
G01*
G04 APERTURE LIST*
%ADD10C,0.300000*%
%ADD11C,0.010000*%
%ADD12C,0.120000*%
%ADD13C,0.200000*%
%ADD14C,0.127000*%
%ADD15C,1.800000*%
%ADD16C,0.600000*%
%ADD17C,0.800000*%
%ADD18C,3.000000*%
%ADD19R,3.000000X3.000000*%
%ADD20O,1.700000X0.900000*%
%ADD21O,2.400000X0.900000*%
%ADD22C,0.700000*%
%ADD23R,0.450000X0.700000*%
%ADD24R,1.000000X0.750000*%
%ADD25R,1.500000X1.000000*%
%ADD26C,3.200000*%
%ADD27R,0.800000X0.900000*%
%ADD28R,1.060000X0.650000*%
%ADD29R,0.250000X0.750000*%
%ADD30R,1.300000X0.250000*%
%ADD31R,0.650000X0.400000*%
%ADD32C,1.000000*%
%ADD33R,5.700000X1.600000*%
%ADD34R,1.800000X4.400000*%
%ADD35O,1.800000X4.000000*%
%ADD36O,4.000000X1.800000*%
%ADD37C,2.000000*%
G04 APERTURE END LIST*
D10*
X409676428Y-162529809D02*
X409676428Y-161463142D01*
X409676428Y-161615523D02*
X409600238Y-161539333D01*
X409447857Y-161463142D01*
X409219285Y-161463142D01*
X409066904Y-161539333D01*
X408990714Y-161691714D01*
X408990714Y-162529809D01*
X408990714Y-161691714D02*
X408914523Y-161539333D01*
X408762142Y-161463142D01*
X408533571Y-161463142D01*
X408381190Y-161539333D01*
X408305000Y-161691714D01*
X408305000Y-162529809D01*
X406857380Y-161463142D02*
X406857380Y-162529809D01*
X407543095Y-161463142D02*
X407543095Y-162301238D01*
X407466904Y-162453619D01*
X407314523Y-162529809D01*
X407085952Y-162529809D01*
X406933571Y-162453619D01*
X406857380Y-162377428D01*
X406171666Y-162453619D02*
X406019285Y-162529809D01*
X405714523Y-162529809D01*
X405562142Y-162453619D01*
X405485952Y-162301238D01*
X405485952Y-162225047D01*
X405562142Y-162072666D01*
X405714523Y-161996476D01*
X405943095Y-161996476D01*
X406095476Y-161920285D01*
X406171666Y-161767904D01*
X406171666Y-161691714D01*
X406095476Y-161539333D01*
X405943095Y-161463142D01*
X405714523Y-161463142D01*
X405562142Y-161539333D01*
X404800238Y-162529809D02*
X404800238Y-161463142D01*
X404800238Y-160929809D02*
X404876428Y-161006000D01*
X404800238Y-161082190D01*
X404724047Y-161006000D01*
X404800238Y-160929809D01*
X404800238Y-161082190D01*
X403352619Y-162453619D02*
X403505000Y-162529809D01*
X403809761Y-162529809D01*
X403962142Y-162453619D01*
X404038333Y-162377428D01*
X404114523Y-162225047D01*
X404114523Y-161767904D01*
X404038333Y-161615523D01*
X403962142Y-161539333D01*
X403809761Y-161463142D01*
X403505000Y-161463142D01*
X403352619Y-161539333D01*
X401981190Y-162529809D02*
X401981190Y-161691714D01*
X402057380Y-161539333D01*
X402209761Y-161463142D01*
X402514523Y-161463142D01*
X402666904Y-161539333D01*
X401981190Y-162453619D02*
X402133571Y-162529809D01*
X402514523Y-162529809D01*
X402666904Y-162453619D01*
X402743095Y-162301238D01*
X402743095Y-162148857D01*
X402666904Y-161996476D01*
X402514523Y-161920285D01*
X402133571Y-161920285D01*
X401981190Y-161844095D01*
X400990714Y-162529809D02*
X401143095Y-162453619D01*
X401219285Y-162301238D01*
X401219285Y-160929809D01*
X399162142Y-162529809D02*
X399162142Y-160929809D01*
X399162142Y-161539333D02*
X399009761Y-161463142D01*
X398705000Y-161463142D01*
X398552619Y-161539333D01*
X398476428Y-161615523D01*
X398400238Y-161767904D01*
X398400238Y-162225047D01*
X398476428Y-162377428D01*
X398552619Y-162453619D01*
X398705000Y-162529809D01*
X399009761Y-162529809D01*
X399162142Y-162453619D01*
X397485952Y-162529809D02*
X397638333Y-162453619D01*
X397714523Y-162377428D01*
X397790714Y-162225047D01*
X397790714Y-161767904D01*
X397714523Y-161615523D01*
X397638333Y-161539333D01*
X397485952Y-161463142D01*
X397257380Y-161463142D01*
X397105000Y-161539333D01*
X397028809Y-161615523D01*
X396952619Y-161767904D01*
X396952619Y-162225047D01*
X397028809Y-162377428D01*
X397105000Y-162453619D01*
X397257380Y-162529809D01*
X397485952Y-162529809D01*
X396419285Y-162529809D02*
X395581190Y-161463142D01*
X396419285Y-161463142D02*
X395581190Y-162529809D01*
X404990714Y-164163142D02*
X404609761Y-165229809D01*
X404228809Y-164163142D01*
X402781190Y-165229809D02*
X403695476Y-165229809D01*
X403238333Y-165229809D02*
X403238333Y-163629809D01*
X403390714Y-163858380D01*
X403543095Y-164010761D01*
X403695476Y-164086952D01*
X402095476Y-165077428D02*
X402019285Y-165153619D01*
X402095476Y-165229809D01*
X402171666Y-165153619D01*
X402095476Y-165077428D01*
X402095476Y-165229809D01*
X401028809Y-163629809D02*
X400876428Y-163629809D01*
X400724047Y-163706000D01*
X400647857Y-163782190D01*
X400571666Y-163934571D01*
X400495476Y-164239333D01*
X400495476Y-164620285D01*
X400571666Y-164925047D01*
X400647857Y-165077428D01*
X400724047Y-165153619D01*
X400876428Y-165229809D01*
X401028809Y-165229809D01*
X401181190Y-165153619D01*
X401257380Y-165077428D01*
X401333571Y-164925047D01*
X401409761Y-164620285D01*
X401409761Y-164239333D01*
X401333571Y-163934571D01*
X401257380Y-163782190D01*
X401181190Y-163706000D01*
X401028809Y-163629809D01*
X408781571Y-126538714D02*
X407867285Y-126538714D01*
X408324428Y-126995857D02*
X408324428Y-126081571D01*
X403638714Y-126538714D02*
X402724428Y-126538714D01*
D11*
G36*
X398629197Y-148839145D02*
G01*
X398383390Y-149018576D01*
X398171888Y-149174195D01*
X397994233Y-149306350D01*
X397849971Y-149415390D01*
X397738644Y-149501664D01*
X397659796Y-149565521D01*
X397612971Y-149607310D01*
X397597712Y-149627380D01*
X397597730Y-149627603D01*
X397605267Y-149652400D01*
X397625816Y-149714171D01*
X397658352Y-149809954D01*
X397701849Y-149936783D01*
X397755282Y-150091697D01*
X397817625Y-150271731D01*
X397887851Y-150473922D01*
X397964936Y-150695306D01*
X398047853Y-150932920D01*
X398135577Y-151183801D01*
X398203159Y-151376750D01*
X398804107Y-153091250D01*
X397286333Y-154103438D01*
X397286333Y-157282049D01*
X398106440Y-158102358D01*
X398926546Y-158922667D01*
X406462284Y-158922667D01*
X408123666Y-157260885D01*
X408123666Y-157091107D01*
X407764203Y-157091107D01*
X407166199Y-157689387D01*
X407035523Y-157819992D01*
X406914435Y-157940761D01*
X406806137Y-158048520D01*
X406713832Y-158140092D01*
X406640723Y-158212304D01*
X406590012Y-158261978D01*
X406564902Y-158285941D01*
X406562764Y-158287667D01*
X406561770Y-158267124D01*
X406560834Y-158207990D01*
X406559974Y-158114006D01*
X406559206Y-157988916D01*
X406558547Y-157836460D01*
X406558014Y-157660381D01*
X406557623Y-157464421D01*
X406557392Y-157252322D01*
X406557333Y-157073789D01*
X406557333Y-155980500D01*
X406176333Y-155980500D01*
X406176333Y-156467334D01*
X405837666Y-156467334D01*
X405837666Y-156848334D01*
X406176333Y-156848334D01*
X406176333Y-157187000D01*
X405837666Y-157187000D01*
X405837666Y-157546834D01*
X406176333Y-157546834D01*
X406176333Y-157885500D01*
X405837666Y-157885500D01*
X405837666Y-158245334D01*
X406176333Y-158245334D01*
X406176333Y-158584000D01*
X399212500Y-158584000D01*
X399212500Y-158245334D01*
X399551166Y-158245334D01*
X399551166Y-157885500D01*
X399212500Y-157885500D01*
X399212500Y-157546834D01*
X399551166Y-157546834D01*
X399551166Y-157187000D01*
X399212500Y-157187000D01*
X399212500Y-156848334D01*
X399551166Y-156848334D01*
X399551166Y-156467334D01*
X399212500Y-156467334D01*
X399212500Y-155980500D01*
X406176333Y-155980500D01*
X406557333Y-155980500D01*
X406557333Y-155859911D01*
X398831500Y-155859911D01*
X398831500Y-158298158D01*
X398228065Y-157694723D01*
X397624630Y-157091289D01*
X397630107Y-155944656D01*
X397635583Y-154798024D01*
X398233541Y-155328967D01*
X398831500Y-155859911D01*
X406557333Y-155859911D01*
X406911197Y-155545705D01*
X406322944Y-155545705D01*
X406312812Y-155582547D01*
X406310389Y-155585389D01*
X406283509Y-155592509D01*
X406226648Y-155597580D01*
X406152598Y-155599500D01*
X406008918Y-155599500D01*
X405998334Y-155532527D01*
X405624713Y-155532527D01*
X405619347Y-155572654D01*
X405594775Y-155592443D01*
X405546996Y-155599020D01*
X405472013Y-155599512D01*
X405460975Y-155599500D01*
X405295950Y-155599500D01*
X405293833Y-155587152D01*
X404927500Y-155587152D01*
X404907205Y-155590279D01*
X404849811Y-155593115D01*
X404760548Y-155595555D01*
X404644651Y-155597497D01*
X404507350Y-155598834D01*
X404353880Y-155599465D01*
X404306701Y-155599500D01*
X403685903Y-155599500D01*
X403281925Y-155599500D01*
X402106908Y-155599500D01*
X402159044Y-155530709D01*
X402267377Y-155421113D01*
X402398801Y-155341829D01*
X402545737Y-155293990D01*
X402700602Y-155278729D01*
X402855816Y-155297182D01*
X403003798Y-155350482D01*
X403076948Y-155393413D01*
X403144456Y-155445446D01*
X403205257Y-155502399D01*
X403229789Y-155530709D01*
X403281925Y-155599500D01*
X403685903Y-155599500D01*
X403634660Y-155488907D01*
X403595713Y-155421649D01*
X403537029Y-155339693D01*
X403469366Y-155257707D01*
X403447805Y-155234106D01*
X403291148Y-155096784D01*
X403116357Y-154995979D01*
X402928062Y-154932515D01*
X402730893Y-154907218D01*
X402529480Y-154920911D01*
X402328451Y-154974419D01*
X402228397Y-155016905D01*
X402103321Y-155092764D01*
X401979662Y-155195444D01*
X401868781Y-155313639D01*
X401782040Y-155436040D01*
X401754173Y-155488907D01*
X401702930Y-155599500D01*
X401082132Y-155599500D01*
X400924922Y-155599096D01*
X400782351Y-155597955D01*
X400659654Y-155596179D01*
X400562061Y-155593874D01*
X400494806Y-155591143D01*
X400463121Y-155588090D01*
X400461333Y-155587152D01*
X400466232Y-155562222D01*
X400479245Y-155506931D01*
X400497852Y-155431892D01*
X400503724Y-155408774D01*
X400599354Y-155117926D01*
X400731881Y-154845151D01*
X400898630Y-154593710D01*
X401096925Y-154366866D01*
X401324091Y-154167880D01*
X401577453Y-154000013D01*
X401720750Y-153925106D01*
X402012250Y-153808114D01*
X402308110Y-153732990D01*
X402606429Y-153699734D01*
X402905307Y-153708346D01*
X403202844Y-153758826D01*
X403497140Y-153851175D01*
X403668083Y-153925106D01*
X403934185Y-154075243D01*
X404175503Y-154258220D01*
X404389361Y-154470775D01*
X404573085Y-154709647D01*
X404723997Y-154971575D01*
X404839425Y-155253296D01*
X404885109Y-155408774D01*
X404904830Y-155487442D01*
X404919665Y-155549336D01*
X404927092Y-155583842D01*
X404927500Y-155587152D01*
X405293833Y-155587152D01*
X405271447Y-155456625D01*
X405251844Y-155363556D01*
X405223429Y-155253697D01*
X405192147Y-155149934D01*
X405190314Y-155144417D01*
X405066279Y-154838640D01*
X404906969Y-154553478D01*
X404715327Y-154291522D01*
X404494292Y-154055363D01*
X404246808Y-153847593D01*
X403975814Y-153670802D01*
X403684253Y-153527583D01*
X403375066Y-153420526D01*
X403181250Y-153374516D01*
X403083046Y-153361008D01*
X402954067Y-153351706D01*
X402805661Y-153346609D01*
X402649175Y-153345718D01*
X402495958Y-153349032D01*
X402357358Y-153356552D01*
X402244724Y-153368277D01*
X402207583Y-153374516D01*
X402045585Y-153413556D01*
X401868858Y-153467859D01*
X401695704Y-153531212D01*
X401544424Y-153597403D01*
X401530250Y-153604417D01*
X401307897Y-153733268D01*
X401085851Y-153893963D01*
X400874789Y-154077304D01*
X400685387Y-154274091D01*
X400541278Y-154456500D01*
X400425575Y-154640733D01*
X400319428Y-154847964D01*
X400228431Y-155064996D01*
X400158177Y-155278630D01*
X400117386Y-155456625D01*
X400092883Y-155599500D01*
X399927858Y-155599500D01*
X399849335Y-155599261D01*
X399798497Y-155593792D01*
X399771345Y-155575968D01*
X399763882Y-155538664D01*
X399772108Y-155474753D01*
X399792027Y-155377110D01*
X399795019Y-155362759D01*
X399886345Y-155024298D01*
X400014676Y-154703958D01*
X400177789Y-154403947D01*
X400373462Y-154126470D01*
X400599470Y-153873735D01*
X400853591Y-153647949D01*
X401133602Y-153451318D01*
X401437280Y-153286050D01*
X401762401Y-153154350D01*
X402106743Y-153058427D01*
X402118929Y-153055785D01*
X402296096Y-153027492D01*
X402499899Y-153010990D01*
X402716317Y-153006279D01*
X402931326Y-153013358D01*
X403130906Y-153032228D01*
X403269904Y-153055785D01*
X403614870Y-153150436D01*
X403940691Y-153280939D01*
X404245145Y-153445087D01*
X404526008Y-153640673D01*
X404781059Y-153865491D01*
X405008073Y-154117334D01*
X405204828Y-154393995D01*
X405369101Y-154693266D01*
X405498668Y-155012942D01*
X405591306Y-155350815D01*
X405593814Y-155362759D01*
X405614869Y-155464937D01*
X405624713Y-155532527D01*
X405998334Y-155532527D01*
X405996374Y-155520125D01*
X405915773Y-155135296D01*
X405799120Y-154772422D01*
X405646522Y-154431722D01*
X405458084Y-154113419D01*
X405233913Y-153817734D01*
X405115580Y-153685942D01*
X404842960Y-153425620D01*
X404552502Y-153202682D01*
X404241919Y-153015846D01*
X403908920Y-152863827D01*
X403551218Y-152745340D01*
X403350583Y-152695643D01*
X403270237Y-152679138D01*
X403194095Y-152666944D01*
X403113498Y-152658443D01*
X403019787Y-152653018D01*
X402904302Y-152650050D01*
X402758384Y-152648923D01*
X402694416Y-152648848D01*
X402534931Y-152649447D01*
X402409109Y-152651657D01*
X402308289Y-152656093D01*
X402223813Y-152663375D01*
X402147023Y-152674119D01*
X402069257Y-152688944D01*
X402038250Y-152695643D01*
X401666509Y-152796857D01*
X401320686Y-152930922D01*
X400998493Y-153099122D01*
X400697641Y-153302742D01*
X400415840Y-153543065D01*
X400273253Y-153685942D01*
X400032165Y-153970903D01*
X399826861Y-154278466D01*
X399657374Y-154608561D01*
X399523739Y-154961118D01*
X399425988Y-155336066D01*
X399392289Y-155521030D01*
X399379576Y-155601309D01*
X399074916Y-155588917D01*
X399068536Y-155523503D01*
X399070367Y-155460824D01*
X399083178Y-155366687D01*
X399105067Y-155249963D01*
X399134136Y-155119521D01*
X399168483Y-154984230D01*
X399206209Y-154852960D01*
X399224569Y-154795167D01*
X399364233Y-154436591D01*
X399538595Y-154099788D01*
X399745084Y-153786452D01*
X399981132Y-153498277D01*
X400244166Y-153236960D01*
X400531617Y-153004194D01*
X400840913Y-152801673D01*
X401169485Y-152631094D01*
X401514761Y-152494150D01*
X401874171Y-152392537D01*
X402245145Y-152327948D01*
X402625111Y-152302080D01*
X402987259Y-152314504D01*
X403378975Y-152367786D01*
X403755772Y-152459333D01*
X404115569Y-152587300D01*
X404456284Y-152749844D01*
X404775836Y-152945121D01*
X405072143Y-153171286D01*
X405343123Y-153426497D01*
X405586696Y-153708907D01*
X405800780Y-154016675D01*
X405983292Y-154347954D01*
X406132153Y-154700903D01*
X406245279Y-155073676D01*
X406280969Y-155232408D01*
X406307259Y-155373471D01*
X406321172Y-155476958D01*
X406322944Y-155545705D01*
X406911197Y-155545705D01*
X407155291Y-155328967D01*
X407753250Y-154798024D01*
X407758726Y-155944565D01*
X407764203Y-157091107D01*
X408123666Y-157091107D01*
X408123666Y-154312680D01*
X407736776Y-154312680D01*
X407720247Y-154330565D01*
X407676691Y-154371881D01*
X407610574Y-154432673D01*
X407526365Y-154508984D01*
X407428532Y-154596859D01*
X407321542Y-154692343D01*
X407209864Y-154791481D01*
X407097966Y-154890316D01*
X406990315Y-154984894D01*
X406891380Y-155071259D01*
X406805629Y-155145456D01*
X406737529Y-155203529D01*
X406691549Y-155241522D01*
X406672156Y-155255481D01*
X406671871Y-155255427D01*
X406664192Y-155233242D01*
X406648385Y-155177630D01*
X406626539Y-155096247D01*
X406600739Y-154996749D01*
X406592227Y-154963274D01*
X406471769Y-154571073D01*
X406314783Y-154198003D01*
X406123292Y-153846084D01*
X405899316Y-153517334D01*
X405644877Y-153213775D01*
X405361996Y-152937423D01*
X405052695Y-152690300D01*
X404718994Y-152474423D01*
X404362916Y-152291813D01*
X403986481Y-152144488D01*
X403681684Y-152055780D01*
X403536593Y-152020944D01*
X403410886Y-151994433D01*
X403294501Y-151975153D01*
X403177381Y-151962012D01*
X403049466Y-151953915D01*
X402900696Y-151949769D01*
X402721013Y-151948481D01*
X402694416Y-151948466D01*
X402509895Y-151949458D01*
X402357616Y-151953164D01*
X402227522Y-151960676D01*
X402109552Y-151973088D01*
X401993647Y-151991494D01*
X401869748Y-152016986D01*
X401727797Y-152050660D01*
X401707149Y-152055780D01*
X401318449Y-152173835D01*
X400945792Y-152329643D01*
X400592057Y-152521214D01*
X400260126Y-152746553D01*
X399952879Y-153003670D01*
X399673196Y-153290572D01*
X399423959Y-153605266D01*
X399383889Y-153662750D01*
X399188886Y-153973550D01*
X399029616Y-154285794D01*
X398900759Y-154611260D01*
X398796998Y-154961729D01*
X398796606Y-154963274D01*
X398770002Y-155066850D01*
X398746700Y-155154694D01*
X398728789Y-155219151D01*
X398718356Y-155252565D01*
X398716962Y-155255427D01*
X398700125Y-155243774D01*
X398656307Y-155207738D01*
X398589975Y-155151275D01*
X398505599Y-155078340D01*
X398407646Y-154992887D01*
X398300583Y-154898874D01*
X398188880Y-154800254D01*
X398077003Y-154700985D01*
X397969421Y-154605020D01*
X397870602Y-154516316D01*
X397785014Y-154438827D01*
X397717124Y-154376511D01*
X397671401Y-154333321D01*
X397652313Y-154313213D01*
X397652057Y-154312680D01*
X397668148Y-154298264D01*
X397716074Y-154262946D01*
X397792332Y-154209134D01*
X397893418Y-154139238D01*
X398015831Y-154055666D01*
X398156067Y-153960825D01*
X398310624Y-153857125D01*
X398440516Y-153770542D01*
X398604095Y-153661459D01*
X398756294Y-153559285D01*
X398893584Y-153466439D01*
X399012433Y-153385340D01*
X399109314Y-153318406D01*
X399180696Y-153268057D01*
X399223051Y-153236711D01*
X399233666Y-153226990D01*
X399226829Y-153205001D01*
X399206990Y-153145980D01*
X399175161Y-153052842D01*
X399132352Y-152928503D01*
X399079575Y-152775878D01*
X399017839Y-152597882D01*
X398948157Y-152397431D01*
X398871538Y-152177439D01*
X398788994Y-151940822D01*
X398701535Y-151690496D01*
X398630416Y-151487201D01*
X398539818Y-151228125D01*
X398453362Y-150980426D01*
X398372060Y-150747026D01*
X398296922Y-150530846D01*
X398228956Y-150334806D01*
X398169173Y-150161827D01*
X398118583Y-150014830D01*
X398078196Y-149896737D01*
X398049022Y-149810468D01*
X398032069Y-149758944D01*
X398027981Y-149744754D01*
X398044780Y-149729014D01*
X398092714Y-149690920D01*
X398168571Y-149632868D01*
X398269143Y-149557252D01*
X398391218Y-149466467D01*
X398531587Y-149362909D01*
X398687038Y-149248973D01*
X398854362Y-149127054D01*
X398911662Y-149085458D01*
X399794527Y-148445167D01*
X405594306Y-148445167D01*
X406477171Y-149085459D01*
X406647710Y-149209487D01*
X406807435Y-149326324D01*
X406953138Y-149433573D01*
X407081608Y-149528839D01*
X407189634Y-149609728D01*
X407274006Y-149673844D01*
X407331513Y-149718792D01*
X407358946Y-149742176D01*
X407360852Y-149744754D01*
X407354135Y-149767148D01*
X407334408Y-149826565D01*
X407302680Y-149920085D01*
X407259962Y-150044786D01*
X407207263Y-150197749D01*
X407145594Y-150376051D01*
X407075964Y-150576771D01*
X406999383Y-150796990D01*
X406916861Y-151033786D01*
X406829407Y-151284238D01*
X406758416Y-151487201D01*
X406667821Y-151746213D01*
X406581349Y-151993793D01*
X406500014Y-152227026D01*
X406424824Y-152442997D01*
X406356792Y-152638791D01*
X406296927Y-152811493D01*
X406246241Y-152958186D01*
X406205745Y-153075957D01*
X406176450Y-153161889D01*
X406159365Y-153213068D01*
X406155166Y-153226990D01*
X406172243Y-153241711D01*
X406221120Y-153277336D01*
X406298268Y-153331446D01*
X406400158Y-153401621D01*
X406523259Y-153485443D01*
X406664043Y-153580493D01*
X406818980Y-153684353D01*
X406948317Y-153770542D01*
X407111709Y-153879537D01*
X407263547Y-153981575D01*
X407400328Y-154074247D01*
X407518549Y-154155145D01*
X407614708Y-154221860D01*
X407685301Y-154271985D01*
X407726826Y-154303109D01*
X407736776Y-154312680D01*
X408123666Y-154312680D01*
X408123666Y-154118008D01*
X407354239Y-153604629D01*
X406584811Y-153091250D01*
X407185717Y-151376750D01*
X407276338Y-151117941D01*
X407362914Y-150870200D01*
X407444418Y-150636490D01*
X407519826Y-150419775D01*
X407588111Y-150223019D01*
X407648248Y-150049185D01*
X407699211Y-149901236D01*
X407739974Y-149782137D01*
X407769512Y-149694850D01*
X407786799Y-149642339D01*
X407791103Y-149627603D01*
X407776615Y-149608064D01*
X407730573Y-149566815D01*
X407652519Y-149503505D01*
X407541998Y-149417788D01*
X407398553Y-149309312D01*
X407221726Y-149177731D01*
X407011063Y-149022694D01*
X406766107Y-148843854D01*
X406759636Y-148839145D01*
X405723689Y-148085334D01*
X399665144Y-148085334D01*
X398629197Y-148839145D01*
G37*
X398629197Y-148839145D02*
X398383390Y-149018576D01*
X398171888Y-149174195D01*
X397994233Y-149306350D01*
X397849971Y-149415390D01*
X397738644Y-149501664D01*
X397659796Y-149565521D01*
X397612971Y-149607310D01*
X397597712Y-149627380D01*
X397597730Y-149627603D01*
X397605267Y-149652400D01*
X397625816Y-149714171D01*
X397658352Y-149809954D01*
X397701849Y-149936783D01*
X397755282Y-150091697D01*
X397817625Y-150271731D01*
X397887851Y-150473922D01*
X397964936Y-150695306D01*
X398047853Y-150932920D01*
X398135577Y-151183801D01*
X398203159Y-151376750D01*
X398804107Y-153091250D01*
X397286333Y-154103438D01*
X397286333Y-157282049D01*
X398106440Y-158102358D01*
X398926546Y-158922667D01*
X406462284Y-158922667D01*
X408123666Y-157260885D01*
X408123666Y-157091107D01*
X407764203Y-157091107D01*
X407166199Y-157689387D01*
X407035523Y-157819992D01*
X406914435Y-157940761D01*
X406806137Y-158048520D01*
X406713832Y-158140092D01*
X406640723Y-158212304D01*
X406590012Y-158261978D01*
X406564902Y-158285941D01*
X406562764Y-158287667D01*
X406561770Y-158267124D01*
X406560834Y-158207990D01*
X406559974Y-158114006D01*
X406559206Y-157988916D01*
X406558547Y-157836460D01*
X406558014Y-157660381D01*
X406557623Y-157464421D01*
X406557392Y-157252322D01*
X406557333Y-157073789D01*
X406557333Y-155980500D01*
X406176333Y-155980500D01*
X406176333Y-156467334D01*
X405837666Y-156467334D01*
X405837666Y-156848334D01*
X406176333Y-156848334D01*
X406176333Y-157187000D01*
X405837666Y-157187000D01*
X405837666Y-157546834D01*
X406176333Y-157546834D01*
X406176333Y-157885500D01*
X405837666Y-157885500D01*
X405837666Y-158245334D01*
X406176333Y-158245334D01*
X406176333Y-158584000D01*
X399212500Y-158584000D01*
X399212500Y-158245334D01*
X399551166Y-158245334D01*
X399551166Y-157885500D01*
X399212500Y-157885500D01*
X399212500Y-157546834D01*
X399551166Y-157546834D01*
X399551166Y-157187000D01*
X399212500Y-157187000D01*
X399212500Y-156848334D01*
X399551166Y-156848334D01*
X399551166Y-156467334D01*
X399212500Y-156467334D01*
X399212500Y-155980500D01*
X406176333Y-155980500D01*
X406557333Y-155980500D01*
X406557333Y-155859911D01*
X398831500Y-155859911D01*
X398831500Y-158298158D01*
X398228065Y-157694723D01*
X397624630Y-157091289D01*
X397630107Y-155944656D01*
X397635583Y-154798024D01*
X398233541Y-155328967D01*
X398831500Y-155859911D01*
X406557333Y-155859911D01*
X406911197Y-155545705D01*
X406322944Y-155545705D01*
X406312812Y-155582547D01*
X406310389Y-155585389D01*
X406283509Y-155592509D01*
X406226648Y-155597580D01*
X406152598Y-155599500D01*
X406008918Y-155599500D01*
X405998334Y-155532527D01*
X405624713Y-155532527D01*
X405619347Y-155572654D01*
X405594775Y-155592443D01*
X405546996Y-155599020D01*
X405472013Y-155599512D01*
X405460975Y-155599500D01*
X405295950Y-155599500D01*
X405293833Y-155587152D01*
X404927500Y-155587152D01*
X404907205Y-155590279D01*
X404849811Y-155593115D01*
X404760548Y-155595555D01*
X404644651Y-155597497D01*
X404507350Y-155598834D01*
X404353880Y-155599465D01*
X404306701Y-155599500D01*
X403685903Y-155599500D01*
X403281925Y-155599500D01*
X402106908Y-155599500D01*
X402159044Y-155530709D01*
X402267377Y-155421113D01*
X402398801Y-155341829D01*
X402545737Y-155293990D01*
X402700602Y-155278729D01*
X402855816Y-155297182D01*
X403003798Y-155350482D01*
X403076948Y-155393413D01*
X403144456Y-155445446D01*
X403205257Y-155502399D01*
X403229789Y-155530709D01*
X403281925Y-155599500D01*
X403685903Y-155599500D01*
X403634660Y-155488907D01*
X403595713Y-155421649D01*
X403537029Y-155339693D01*
X403469366Y-155257707D01*
X403447805Y-155234106D01*
X403291148Y-155096784D01*
X403116357Y-154995979D01*
X402928062Y-154932515D01*
X402730893Y-154907218D01*
X402529480Y-154920911D01*
X402328451Y-154974419D01*
X402228397Y-155016905D01*
X402103321Y-155092764D01*
X401979662Y-155195444D01*
X401868781Y-155313639D01*
X401782040Y-155436040D01*
X401754173Y-155488907D01*
X401702930Y-155599500D01*
X401082132Y-155599500D01*
X400924922Y-155599096D01*
X400782351Y-155597955D01*
X400659654Y-155596179D01*
X400562061Y-155593874D01*
X400494806Y-155591143D01*
X400463121Y-155588090D01*
X400461333Y-155587152D01*
X400466232Y-155562222D01*
X400479245Y-155506931D01*
X400497852Y-155431892D01*
X400503724Y-155408774D01*
X400599354Y-155117926D01*
X400731881Y-154845151D01*
X400898630Y-154593710D01*
X401096925Y-154366866D01*
X401324091Y-154167880D01*
X401577453Y-154000013D01*
X401720750Y-153925106D01*
X402012250Y-153808114D01*
X402308110Y-153732990D01*
X402606429Y-153699734D01*
X402905307Y-153708346D01*
X403202844Y-153758826D01*
X403497140Y-153851175D01*
X403668083Y-153925106D01*
X403934185Y-154075243D01*
X404175503Y-154258220D01*
X404389361Y-154470775D01*
X404573085Y-154709647D01*
X404723997Y-154971575D01*
X404839425Y-155253296D01*
X404885109Y-155408774D01*
X404904830Y-155487442D01*
X404919665Y-155549336D01*
X404927092Y-155583842D01*
X404927500Y-155587152D01*
X405293833Y-155587152D01*
X405271447Y-155456625D01*
X405251844Y-155363556D01*
X405223429Y-155253697D01*
X405192147Y-155149934D01*
X405190314Y-155144417D01*
X405066279Y-154838640D01*
X404906969Y-154553478D01*
X404715327Y-154291522D01*
X404494292Y-154055363D01*
X404246808Y-153847593D01*
X403975814Y-153670802D01*
X403684253Y-153527583D01*
X403375066Y-153420526D01*
X403181250Y-153374516D01*
X403083046Y-153361008D01*
X402954067Y-153351706D01*
X402805661Y-153346609D01*
X402649175Y-153345718D01*
X402495958Y-153349032D01*
X402357358Y-153356552D01*
X402244724Y-153368277D01*
X402207583Y-153374516D01*
X402045585Y-153413556D01*
X401868858Y-153467859D01*
X401695704Y-153531212D01*
X401544424Y-153597403D01*
X401530250Y-153604417D01*
X401307897Y-153733268D01*
X401085851Y-153893963D01*
X400874789Y-154077304D01*
X400685387Y-154274091D01*
X400541278Y-154456500D01*
X400425575Y-154640733D01*
X400319428Y-154847964D01*
X400228431Y-155064996D01*
X400158177Y-155278630D01*
X400117386Y-155456625D01*
X400092883Y-155599500D01*
X399927858Y-155599500D01*
X399849335Y-155599261D01*
X399798497Y-155593792D01*
X399771345Y-155575968D01*
X399763882Y-155538664D01*
X399772108Y-155474753D01*
X399792027Y-155377110D01*
X399795019Y-155362759D01*
X399886345Y-155024298D01*
X400014676Y-154703958D01*
X400177789Y-154403947D01*
X400373462Y-154126470D01*
X400599470Y-153873735D01*
X400853591Y-153647949D01*
X401133602Y-153451318D01*
X401437280Y-153286050D01*
X401762401Y-153154350D01*
X402106743Y-153058427D01*
X402118929Y-153055785D01*
X402296096Y-153027492D01*
X402499899Y-153010990D01*
X402716317Y-153006279D01*
X402931326Y-153013358D01*
X403130906Y-153032228D01*
X403269904Y-153055785D01*
X403614870Y-153150436D01*
X403940691Y-153280939D01*
X404245145Y-153445087D01*
X404526008Y-153640673D01*
X404781059Y-153865491D01*
X405008073Y-154117334D01*
X405204828Y-154393995D01*
X405369101Y-154693266D01*
X405498668Y-155012942D01*
X405591306Y-155350815D01*
X405593814Y-155362759D01*
X405614869Y-155464937D01*
X405624713Y-155532527D01*
X405998334Y-155532527D01*
X405996374Y-155520125D01*
X405915773Y-155135296D01*
X405799120Y-154772422D01*
X405646522Y-154431722D01*
X405458084Y-154113419D01*
X405233913Y-153817734D01*
X405115580Y-153685942D01*
X404842960Y-153425620D01*
X404552502Y-153202682D01*
X404241919Y-153015846D01*
X403908920Y-152863827D01*
X403551218Y-152745340D01*
X403350583Y-152695643D01*
X403270237Y-152679138D01*
X403194095Y-152666944D01*
X403113498Y-152658443D01*
X403019787Y-152653018D01*
X402904302Y-152650050D01*
X402758384Y-152648923D01*
X402694416Y-152648848D01*
X402534931Y-152649447D01*
X402409109Y-152651657D01*
X402308289Y-152656093D01*
X402223813Y-152663375D01*
X402147023Y-152674119D01*
X402069257Y-152688944D01*
X402038250Y-152695643D01*
X401666509Y-152796857D01*
X401320686Y-152930922D01*
X400998493Y-153099122D01*
X400697641Y-153302742D01*
X400415840Y-153543065D01*
X400273253Y-153685942D01*
X400032165Y-153970903D01*
X399826861Y-154278466D01*
X399657374Y-154608561D01*
X399523739Y-154961118D01*
X399425988Y-155336066D01*
X399392289Y-155521030D01*
X399379576Y-155601309D01*
X399074916Y-155588917D01*
X399068536Y-155523503D01*
X399070367Y-155460824D01*
X399083178Y-155366687D01*
X399105067Y-155249963D01*
X399134136Y-155119521D01*
X399168483Y-154984230D01*
X399206209Y-154852960D01*
X399224569Y-154795167D01*
X399364233Y-154436591D01*
X399538595Y-154099788D01*
X399745084Y-153786452D01*
X399981132Y-153498277D01*
X400244166Y-153236960D01*
X400531617Y-153004194D01*
X400840913Y-152801673D01*
X401169485Y-152631094D01*
X401514761Y-152494150D01*
X401874171Y-152392537D01*
X402245145Y-152327948D01*
X402625111Y-152302080D01*
X402987259Y-152314504D01*
X403378975Y-152367786D01*
X403755772Y-152459333D01*
X404115569Y-152587300D01*
X404456284Y-152749844D01*
X404775836Y-152945121D01*
X405072143Y-153171286D01*
X405343123Y-153426497D01*
X405586696Y-153708907D01*
X405800780Y-154016675D01*
X405983292Y-154347954D01*
X406132153Y-154700903D01*
X406245279Y-155073676D01*
X406280969Y-155232408D01*
X406307259Y-155373471D01*
X406321172Y-155476958D01*
X406322944Y-155545705D01*
X406911197Y-155545705D01*
X407155291Y-155328967D01*
X407753250Y-154798024D01*
X407758726Y-155944565D01*
X407764203Y-157091107D01*
X408123666Y-157091107D01*
X408123666Y-154312680D01*
X407736776Y-154312680D01*
X407720247Y-154330565D01*
X407676691Y-154371881D01*
X407610574Y-154432673D01*
X407526365Y-154508984D01*
X407428532Y-154596859D01*
X407321542Y-154692343D01*
X407209864Y-154791481D01*
X407097966Y-154890316D01*
X406990315Y-154984894D01*
X406891380Y-155071259D01*
X406805629Y-155145456D01*
X406737529Y-155203529D01*
X406691549Y-155241522D01*
X406672156Y-155255481D01*
X406671871Y-155255427D01*
X406664192Y-155233242D01*
X406648385Y-155177630D01*
X406626539Y-155096247D01*
X406600739Y-154996749D01*
X406592227Y-154963274D01*
X406471769Y-154571073D01*
X406314783Y-154198003D01*
X406123292Y-153846084D01*
X405899316Y-153517334D01*
X405644877Y-153213775D01*
X405361996Y-152937423D01*
X405052695Y-152690300D01*
X404718994Y-152474423D01*
X404362916Y-152291813D01*
X403986481Y-152144488D01*
X403681684Y-152055780D01*
X403536593Y-152020944D01*
X403410886Y-151994433D01*
X403294501Y-151975153D01*
X403177381Y-151962012D01*
X403049466Y-151953915D01*
X402900696Y-151949769D01*
X402721013Y-151948481D01*
X402694416Y-151948466D01*
X402509895Y-151949458D01*
X402357616Y-151953164D01*
X402227522Y-151960676D01*
X402109552Y-151973088D01*
X401993647Y-151991494D01*
X401869748Y-152016986D01*
X401727797Y-152050660D01*
X401707149Y-152055780D01*
X401318449Y-152173835D01*
X400945792Y-152329643D01*
X400592057Y-152521214D01*
X400260126Y-152746553D01*
X399952879Y-153003670D01*
X399673196Y-153290572D01*
X399423959Y-153605266D01*
X399383889Y-153662750D01*
X399188886Y-153973550D01*
X399029616Y-154285794D01*
X398900759Y-154611260D01*
X398796998Y-154961729D01*
X398796606Y-154963274D01*
X398770002Y-155066850D01*
X398746700Y-155154694D01*
X398728789Y-155219151D01*
X398718356Y-155252565D01*
X398716962Y-155255427D01*
X398700125Y-155243774D01*
X398656307Y-155207738D01*
X398589975Y-155151275D01*
X398505599Y-155078340D01*
X398407646Y-154992887D01*
X398300583Y-154898874D01*
X398188880Y-154800254D01*
X398077003Y-154700985D01*
X397969421Y-154605020D01*
X397870602Y-154516316D01*
X397785014Y-154438827D01*
X397717124Y-154376511D01*
X397671401Y-154333321D01*
X397652313Y-154313213D01*
X397652057Y-154312680D01*
X397668148Y-154298264D01*
X397716074Y-154262946D01*
X397792332Y-154209134D01*
X397893418Y-154139238D01*
X398015831Y-154055666D01*
X398156067Y-153960825D01*
X398310624Y-153857125D01*
X398440516Y-153770542D01*
X398604095Y-153661459D01*
X398756294Y-153559285D01*
X398893584Y-153466439D01*
X399012433Y-153385340D01*
X399109314Y-153318406D01*
X399180696Y-153268057D01*
X399223051Y-153236711D01*
X399233666Y-153226990D01*
X399226829Y-153205001D01*
X399206990Y-153145980D01*
X399175161Y-153052842D01*
X399132352Y-152928503D01*
X399079575Y-152775878D01*
X399017839Y-152597882D01*
X398948157Y-152397431D01*
X398871538Y-152177439D01*
X398788994Y-151940822D01*
X398701535Y-151690496D01*
X398630416Y-151487201D01*
X398539818Y-151228125D01*
X398453362Y-150980426D01*
X398372060Y-150747026D01*
X398296922Y-150530846D01*
X398228956Y-150334806D01*
X398169173Y-150161827D01*
X398118583Y-150014830D01*
X398078196Y-149896737D01*
X398049022Y-149810468D01*
X398032069Y-149758944D01*
X398027981Y-149744754D01*
X398044780Y-149729014D01*
X398092714Y-149690920D01*
X398168571Y-149632868D01*
X398269143Y-149557252D01*
X398391218Y-149466467D01*
X398531587Y-149362909D01*
X398687038Y-149248973D01*
X398854362Y-149127054D01*
X398911662Y-149085458D01*
X399794527Y-148445167D01*
X405594306Y-148445167D01*
X406477171Y-149085459D01*
X406647710Y-149209487D01*
X406807435Y-149326324D01*
X406953138Y-149433573D01*
X407081608Y-149528839D01*
X407189634Y-149609728D01*
X407274006Y-149673844D01*
X407331513Y-149718792D01*
X407358946Y-149742176D01*
X407360852Y-149744754D01*
X407354135Y-149767148D01*
X407334408Y-149826565D01*
X407302680Y-149920085D01*
X407259962Y-150044786D01*
X407207263Y-150197749D01*
X407145594Y-150376051D01*
X407075964Y-150576771D01*
X406999383Y-150796990D01*
X406916861Y-151033786D01*
X406829407Y-151284238D01*
X406758416Y-151487201D01*
X406667821Y-151746213D01*
X406581349Y-151993793D01*
X406500014Y-152227026D01*
X406424824Y-152442997D01*
X406356792Y-152638791D01*
X406296927Y-152811493D01*
X406246241Y-152958186D01*
X406205745Y-153075957D01*
X406176450Y-153161889D01*
X406159365Y-153213068D01*
X406155166Y-153226990D01*
X406172243Y-153241711D01*
X406221120Y-153277336D01*
X406298268Y-153331446D01*
X406400158Y-153401621D01*
X406523259Y-153485443D01*
X406664043Y-153580493D01*
X406818980Y-153684353D01*
X406948317Y-153770542D01*
X407111709Y-153879537D01*
X407263547Y-153981575D01*
X407400328Y-154074247D01*
X407518549Y-154155145D01*
X407614708Y-154221860D01*
X407685301Y-154271985D01*
X407726826Y-154303109D01*
X407736776Y-154312680D01*
X408123666Y-154312680D01*
X408123666Y-154118008D01*
X407354239Y-153604629D01*
X406584811Y-153091250D01*
X407185717Y-151376750D01*
X407276338Y-151117941D01*
X407362914Y-150870200D01*
X407444418Y-150636490D01*
X407519826Y-150419775D01*
X407588111Y-150223019D01*
X407648248Y-150049185D01*
X407699211Y-149901236D01*
X407739974Y-149782137D01*
X407769512Y-149694850D01*
X407786799Y-149642339D01*
X407791103Y-149627603D01*
X407776615Y-149608064D01*
X407730573Y-149566815D01*
X407652519Y-149503505D01*
X407541998Y-149417788D01*
X407398553Y-149309312D01*
X407221726Y-149177731D01*
X407011063Y-149022694D01*
X406766107Y-148843854D01*
X406759636Y-148839145D01*
X405723689Y-148085334D01*
X399665144Y-148085334D01*
X398629197Y-148839145D01*
G36*
X404285635Y-156856703D02*
G01*
X404160992Y-156910098D01*
X404110146Y-156944007D01*
X404016667Y-157040625D01*
X403951972Y-157160728D01*
X403918485Y-157294682D01*
X403918627Y-157432850D01*
X403954248Y-157564273D01*
X404026901Y-157684348D01*
X404126602Y-157779585D01*
X404245675Y-157847013D01*
X404376445Y-157883660D01*
X404511239Y-157886554D01*
X404642382Y-157852723D01*
X404668471Y-157840808D01*
X404790067Y-157759730D01*
X404880231Y-157656707D01*
X404938962Y-157538151D01*
X404966259Y-157410477D01*
X404964856Y-157366251D01*
X404610000Y-157366251D01*
X404591135Y-157434686D01*
X404541945Y-157487734D01*
X404473538Y-157518693D01*
X404397021Y-157520864D01*
X404367531Y-157512518D01*
X404331815Y-157482297D01*
X404297421Y-157429069D01*
X404274878Y-157371147D01*
X404271333Y-157345173D01*
X404287976Y-157302865D01*
X404328859Y-157254189D01*
X404380413Y-157211817D01*
X404429071Y-157188424D01*
X404440666Y-157187000D01*
X404492756Y-157204613D01*
X404546789Y-157248475D01*
X404590045Y-157305123D01*
X404609806Y-157361092D01*
X404610000Y-157366251D01*
X404964856Y-157366251D01*
X404962121Y-157280096D01*
X404926549Y-157153422D01*
X404859540Y-157036867D01*
X404761095Y-156936845D01*
X404668581Y-156877540D01*
X404551199Y-156839023D01*
X404419627Y-156832545D01*
X404285635Y-156856703D01*
G37*
X404285635Y-156856703D02*
X404160992Y-156910098D01*
X404110146Y-156944007D01*
X404016667Y-157040625D01*
X403951972Y-157160728D01*
X403918485Y-157294682D01*
X403918627Y-157432850D01*
X403954248Y-157564273D01*
X404026901Y-157684348D01*
X404126602Y-157779585D01*
X404245675Y-157847013D01*
X404376445Y-157883660D01*
X404511239Y-157886554D01*
X404642382Y-157852723D01*
X404668471Y-157840808D01*
X404790067Y-157759730D01*
X404880231Y-157656707D01*
X404938962Y-157538151D01*
X404966259Y-157410477D01*
X404964856Y-157366251D01*
X404610000Y-157366251D01*
X404591135Y-157434686D01*
X404541945Y-157487734D01*
X404473538Y-157518693D01*
X404397021Y-157520864D01*
X404367531Y-157512518D01*
X404331815Y-157482297D01*
X404297421Y-157429069D01*
X404274878Y-157371147D01*
X404271333Y-157345173D01*
X404287976Y-157302865D01*
X404328859Y-157254189D01*
X404380413Y-157211817D01*
X404429071Y-157188424D01*
X404440666Y-157187000D01*
X404492756Y-157204613D01*
X404546789Y-157248475D01*
X404590045Y-157305123D01*
X404609806Y-157361092D01*
X404610000Y-157366251D01*
X404964856Y-157366251D01*
X404962121Y-157280096D01*
X404926549Y-157153422D01*
X404859540Y-157036867D01*
X404761095Y-156936845D01*
X404668581Y-156877540D01*
X404551199Y-156839023D01*
X404419627Y-156832545D01*
X404285635Y-156856703D01*
G36*
X402576907Y-156844525D02*
G01*
X402446320Y-156895210D01*
X402327773Y-156983065D01*
X402298387Y-157013470D01*
X402224734Y-157121862D01*
X402177722Y-157247705D01*
X402162038Y-157376240D01*
X402166220Y-157429506D01*
X402203329Y-157552948D01*
X402271981Y-157671364D01*
X402362657Y-157770308D01*
X402417188Y-157810409D01*
X402486847Y-157848008D01*
X402554443Y-157869277D01*
X402639169Y-157879577D01*
X402671188Y-157881347D01*
X402760048Y-157882715D01*
X402825941Y-157874593D01*
X402887821Y-157853394D01*
X402933133Y-157831782D01*
X403052074Y-157750112D01*
X403140981Y-157644818D01*
X403198501Y-157522938D01*
X403223280Y-157391514D01*
X403221626Y-157367725D01*
X402853166Y-157367725D01*
X402834079Y-157436818D01*
X402785125Y-157492811D01*
X402718762Y-157523308D01*
X402694416Y-157525667D01*
X402644840Y-157512843D01*
X402591680Y-157481987D01*
X402591438Y-157481797D01*
X402545226Y-157423140D01*
X402532632Y-157355402D01*
X402549791Y-157289176D01*
X402592835Y-157235051D01*
X402657897Y-157203621D01*
X402694416Y-157199700D01*
X402773397Y-157217456D01*
X402827477Y-157267529D01*
X402852131Y-157345127D01*
X402853166Y-157367725D01*
X403221626Y-157367725D01*
X403213964Y-157257585D01*
X403169200Y-157128193D01*
X403090446Y-157013470D01*
X402976304Y-156915480D01*
X402848359Y-156854660D01*
X402713073Y-156831008D01*
X402576907Y-156844525D01*
G37*
X402576907Y-156844525D02*
X402446320Y-156895210D01*
X402327773Y-156983065D01*
X402298387Y-157013470D01*
X402224734Y-157121862D01*
X402177722Y-157247705D01*
X402162038Y-157376240D01*
X402166220Y-157429506D01*
X402203329Y-157552948D01*
X402271981Y-157671364D01*
X402362657Y-157770308D01*
X402417188Y-157810409D01*
X402486847Y-157848008D01*
X402554443Y-157869277D01*
X402639169Y-157879577D01*
X402671188Y-157881347D01*
X402760048Y-157882715D01*
X402825941Y-157874593D01*
X402887821Y-157853394D01*
X402933133Y-157831782D01*
X403052074Y-157750112D01*
X403140981Y-157644818D01*
X403198501Y-157522938D01*
X403223280Y-157391514D01*
X403221626Y-157367725D01*
X402853166Y-157367725D01*
X402834079Y-157436818D01*
X402785125Y-157492811D01*
X402718762Y-157523308D01*
X402694416Y-157525667D01*
X402644840Y-157512843D01*
X402591680Y-157481987D01*
X402591438Y-157481797D01*
X402545226Y-157423140D01*
X402532632Y-157355402D01*
X402549791Y-157289176D01*
X402592835Y-157235051D01*
X402657897Y-157203621D01*
X402694416Y-157199700D01*
X402773397Y-157217456D01*
X402827477Y-157267529D01*
X402852131Y-157345127D01*
X402853166Y-157367725D01*
X403221626Y-157367725D01*
X403213964Y-157257585D01*
X403169200Y-157128193D01*
X403090446Y-157013470D01*
X402976304Y-156915480D01*
X402848359Y-156854660D01*
X402713073Y-156831008D01*
X402576907Y-156844525D01*
G36*
X400895443Y-156833240D02*
G01*
X400752460Y-156867357D01*
X400630302Y-156934578D01*
X400532581Y-157029333D01*
X400462909Y-157146050D01*
X400424897Y-157279159D01*
X400422157Y-157423088D01*
X400443892Y-157529755D01*
X400486914Y-157619534D01*
X400557428Y-157711171D01*
X400643446Y-157791245D01*
X400722254Y-157841394D01*
X400821090Y-157872228D01*
X400939191Y-157883995D01*
X401057682Y-157876005D01*
X401135765Y-157856520D01*
X401241338Y-157799000D01*
X401338180Y-157710826D01*
X401414324Y-157603551D01*
X401429904Y-157572543D01*
X401470924Y-157437101D01*
X401472963Y-157345173D01*
X401117500Y-157345173D01*
X401106538Y-157393766D01*
X401080151Y-157449966D01*
X401048087Y-157495661D01*
X401027987Y-157511500D01*
X400945919Y-157524156D01*
X400867342Y-157501169D01*
X400830788Y-157473712D01*
X400794386Y-157421449D01*
X400778844Y-157367414D01*
X400778833Y-157366251D01*
X400795471Y-157311110D01*
X400836907Y-157253914D01*
X400890420Y-157208124D01*
X400943293Y-157187206D01*
X400948166Y-157187000D01*
X400993459Y-157202546D01*
X401045571Y-157240734D01*
X401090932Y-157288891D01*
X401115975Y-157334342D01*
X401117500Y-157345173D01*
X401472963Y-157345173D01*
X401473906Y-157302686D01*
X401442896Y-157174897D01*
X401381942Y-157059333D01*
X401295092Y-156961591D01*
X401186392Y-156887270D01*
X401059889Y-156841969D01*
X400919633Y-156831286D01*
X400895443Y-156833240D01*
G37*
X400895443Y-156833240D02*
X400752460Y-156867357D01*
X400630302Y-156934578D01*
X400532581Y-157029333D01*
X400462909Y-157146050D01*
X400424897Y-157279159D01*
X400422157Y-157423088D01*
X400443892Y-157529755D01*
X400486914Y-157619534D01*
X400557428Y-157711171D01*
X400643446Y-157791245D01*
X400722254Y-157841394D01*
X400821090Y-157872228D01*
X400939191Y-157883995D01*
X401057682Y-157876005D01*
X401135765Y-157856520D01*
X401241338Y-157799000D01*
X401338180Y-157710826D01*
X401414324Y-157603551D01*
X401429904Y-157572543D01*
X401470924Y-157437101D01*
X401472963Y-157345173D01*
X401117500Y-157345173D01*
X401106538Y-157393766D01*
X401080151Y-157449966D01*
X401048087Y-157495661D01*
X401027987Y-157511500D01*
X400945919Y-157524156D01*
X400867342Y-157501169D01*
X400830788Y-157473712D01*
X400794386Y-157421449D01*
X400778844Y-157367414D01*
X400778833Y-157366251D01*
X400795471Y-157311110D01*
X400836907Y-157253914D01*
X400890420Y-157208124D01*
X400943293Y-157187206D01*
X400948166Y-157187000D01*
X400993459Y-157202546D01*
X401045571Y-157240734D01*
X401090932Y-157288891D01*
X401115975Y-157334342D01*
X401117500Y-157345173D01*
X401472963Y-157345173D01*
X401473906Y-157302686D01*
X401442896Y-157174897D01*
X401381942Y-157059333D01*
X401295092Y-156961591D01*
X401186392Y-156887270D01*
X401059889Y-156841969D01*
X400919633Y-156831286D01*
X400895443Y-156833240D01*
G36*
X399022000Y-149672834D02*
G01*
X399530000Y-149672834D01*
X399689873Y-149673031D01*
X399812352Y-149673864D01*
X399902373Y-149675692D01*
X399964874Y-149678875D01*
X400004794Y-149683772D01*
X400027068Y-149690743D01*
X400036636Y-149700148D01*
X400038462Y-149709875D01*
X400036713Y-149738405D01*
X400031525Y-149804450D01*
X400023297Y-149903366D01*
X400012428Y-150030509D01*
X399999316Y-150181236D01*
X399984361Y-150350902D01*
X399967961Y-150534863D01*
X399960537Y-150617511D01*
X399941277Y-150831938D01*
X399925664Y-151008439D01*
X399913526Y-151151248D01*
X399904688Y-151264601D01*
X399898977Y-151352730D01*
X399896219Y-151419871D01*
X399896242Y-151470258D01*
X399898871Y-151508125D01*
X399903933Y-151537707D01*
X399911255Y-151563239D01*
X399920664Y-151588955D01*
X399920733Y-151589137D01*
X399990075Y-151718319D01*
X400086203Y-151822183D01*
X400202378Y-151897055D01*
X400331861Y-151939262D01*
X400467913Y-151945132D01*
X400547046Y-151930476D01*
X400691292Y-151870978D01*
X400808136Y-151780291D01*
X400894999Y-151660719D01*
X400925817Y-151592331D01*
X400950086Y-151472041D01*
X400947003Y-151422900D01*
X400588333Y-151422900D01*
X400569538Y-151488490D01*
X400520941Y-151539456D01*
X400454229Y-151569604D01*
X400381085Y-151572740D01*
X400335168Y-151557114D01*
X400289907Y-151511077D01*
X400268704Y-151443064D01*
X400275566Y-151368381D01*
X400281491Y-151351974D01*
X400316893Y-151295486D01*
X400369632Y-151267219D01*
X400440361Y-151260334D01*
X400501206Y-151279252D01*
X400553178Y-151327240D01*
X400584307Y-151391149D01*
X400588333Y-151422900D01*
X400947003Y-151422900D01*
X400941861Y-151340962D01*
X400904454Y-151210889D01*
X400841178Y-151093616D01*
X400761048Y-151005573D01*
X400677548Y-150952556D01*
X400576202Y-150911475D01*
X400473510Y-150887558D01*
X400385971Y-150886031D01*
X400384452Y-150886271D01*
X400363375Y-150890578D01*
X400346308Y-150893418D01*
X400333213Y-150890912D01*
X400324051Y-150879180D01*
X400318782Y-150854342D01*
X400317369Y-150812520D01*
X400319773Y-150749834D01*
X400325954Y-150662404D01*
X400335874Y-150546352D01*
X400349495Y-150397798D01*
X400366777Y-150212862D01*
X400376666Y-150106750D01*
X400392068Y-149939302D01*
X400406123Y-149783273D01*
X400418352Y-149644223D01*
X400428278Y-149527716D01*
X400435423Y-149439314D01*
X400439308Y-149384580D01*
X400439882Y-149371209D01*
X400440166Y-149313000D01*
X399022000Y-149313000D01*
X399022000Y-149672834D01*
G37*
X399022000Y-149672834D02*
X399530000Y-149672834D01*
X399689873Y-149673031D01*
X399812352Y-149673864D01*
X399902373Y-149675692D01*
X399964874Y-149678875D01*
X400004794Y-149683772D01*
X400027068Y-149690743D01*
X400036636Y-149700148D01*
X400038462Y-149709875D01*
X400036713Y-149738405D01*
X400031525Y-149804450D01*
X400023297Y-149903366D01*
X400012428Y-150030509D01*
X399999316Y-150181236D01*
X399984361Y-150350902D01*
X399967961Y-150534863D01*
X399960537Y-150617511D01*
X399941277Y-150831938D01*
X399925664Y-151008439D01*
X399913526Y-151151248D01*
X399904688Y-151264601D01*
X399898977Y-151352730D01*
X399896219Y-151419871D01*
X399896242Y-151470258D01*
X399898871Y-151508125D01*
X399903933Y-151537707D01*
X399911255Y-151563239D01*
X399920664Y-151588955D01*
X399920733Y-151589137D01*
X399990075Y-151718319D01*
X400086203Y-151822183D01*
X400202378Y-151897055D01*
X400331861Y-151939262D01*
X400467913Y-151945132D01*
X400547046Y-151930476D01*
X400691292Y-151870978D01*
X400808136Y-151780291D01*
X400894999Y-151660719D01*
X400925817Y-151592331D01*
X400950086Y-151472041D01*
X400947003Y-151422900D01*
X400588333Y-151422900D01*
X400569538Y-151488490D01*
X400520941Y-151539456D01*
X400454229Y-151569604D01*
X400381085Y-151572740D01*
X400335168Y-151557114D01*
X400289907Y-151511077D01*
X400268704Y-151443064D01*
X400275566Y-151368381D01*
X400281491Y-151351974D01*
X400316893Y-151295486D01*
X400369632Y-151267219D01*
X400440361Y-151260334D01*
X400501206Y-151279252D01*
X400553178Y-151327240D01*
X400584307Y-151391149D01*
X400588333Y-151422900D01*
X400947003Y-151422900D01*
X400941861Y-151340962D01*
X400904454Y-151210889D01*
X400841178Y-151093616D01*
X400761048Y-151005573D01*
X400677548Y-150952556D01*
X400576202Y-150911475D01*
X400473510Y-150887558D01*
X400385971Y-150886031D01*
X400384452Y-150886271D01*
X400363375Y-150890578D01*
X400346308Y-150893418D01*
X400333213Y-150890912D01*
X400324051Y-150879180D01*
X400318782Y-150854342D01*
X400317369Y-150812520D01*
X400319773Y-150749834D01*
X400325954Y-150662404D01*
X400335874Y-150546352D01*
X400349495Y-150397798D01*
X400366777Y-150212862D01*
X400376666Y-150106750D01*
X400392068Y-149939302D01*
X400406123Y-149783273D01*
X400418352Y-149644223D01*
X400428278Y-149527716D01*
X400435423Y-149439314D01*
X400439308Y-149384580D01*
X400439882Y-149371209D01*
X400440166Y-149313000D01*
X399022000Y-149313000D01*
X399022000Y-149672834D01*
G36*
X403742631Y-150062286D02*
G01*
X403742790Y-150332064D01*
X403743124Y-150562805D01*
X403743723Y-150757809D01*
X403744680Y-150920371D01*
X403746088Y-151053790D01*
X403748037Y-151161363D01*
X403750620Y-151246388D01*
X403753929Y-151312162D01*
X403758057Y-151361982D01*
X403763094Y-151399147D01*
X403769132Y-151426952D01*
X403776265Y-151448697D01*
X403781656Y-151461417D01*
X403833584Y-151542838D01*
X403910597Y-151626002D01*
X403998363Y-151697221D01*
X404071908Y-151738640D01*
X404177339Y-151764421D01*
X404299871Y-151766127D01*
X404422367Y-151744587D01*
X404494448Y-151718235D01*
X404618970Y-151638253D01*
X404712899Y-151530372D01*
X404773330Y-151398717D01*
X404794354Y-151292596D01*
X404793422Y-151264953D01*
X404431169Y-151264953D01*
X404407884Y-151328249D01*
X404360548Y-151375574D01*
X404298163Y-151401363D01*
X404229731Y-151400052D01*
X404164253Y-151366079D01*
X404153954Y-151356546D01*
X404112560Y-151289819D01*
X404107017Y-151217513D01*
X404134044Y-151150196D01*
X404190362Y-151098436D01*
X404240323Y-151078340D01*
X404305297Y-151081805D01*
X404368059Y-151117228D01*
X404414638Y-151175895D01*
X404421400Y-151191249D01*
X404431169Y-151264953D01*
X404793422Y-151264953D01*
X404789525Y-151149499D01*
X404748113Y-151018267D01*
X404675344Y-150904101D01*
X404576439Y-150812200D01*
X404456624Y-150747764D01*
X404321121Y-150715993D01*
X404215522Y-150716392D01*
X404102000Y-150728108D01*
X404102000Y-149192307D01*
X404788749Y-149329619D01*
X405475498Y-149466932D01*
X405481957Y-150252508D01*
X405483714Y-150456016D01*
X405485480Y-150621654D01*
X405487524Y-150753882D01*
X405490112Y-150857165D01*
X405493514Y-150935962D01*
X405497996Y-150994736D01*
X405503826Y-151037949D01*
X405511273Y-151070063D01*
X405520604Y-151095540D01*
X405532086Y-151118841D01*
X405534187Y-151122750D01*
X405607939Y-151227317D01*
X405704335Y-151319390D01*
X405789677Y-151374735D01*
X405917000Y-151416502D01*
X406050726Y-151421324D01*
X406182909Y-151392083D01*
X406305605Y-151331661D01*
X406410868Y-151242942D01*
X406490754Y-151128808D01*
X406495881Y-151118519D01*
X406534502Y-150994610D01*
X406539081Y-150893606D01*
X406176333Y-150893606D01*
X406158402Y-150971726D01*
X406108450Y-151025124D01*
X406032240Y-151048171D01*
X406017583Y-151048667D01*
X405942203Y-151033418D01*
X405901166Y-151006334D01*
X405865772Y-150943759D01*
X405862120Y-150869276D01*
X405889953Y-150798692D01*
X405904856Y-150780156D01*
X405967229Y-150739612D01*
X406036107Y-150733330D01*
X406100852Y-150756865D01*
X406150827Y-150805769D01*
X406175394Y-150875599D01*
X406176333Y-150893606D01*
X406539081Y-150893606D01*
X406540605Y-150860017D01*
X406516250Y-150726091D01*
X406463494Y-150604183D01*
X406384803Y-150506014D01*
X406279396Y-150432490D01*
X406157693Y-150383408D01*
X406033209Y-150362834D01*
X405935233Y-150370811D01*
X405858833Y-150388042D01*
X405858833Y-149171106D01*
X404800500Y-148959464D01*
X403742166Y-148747822D01*
X403742631Y-150062286D01*
G37*
X403742631Y-150062286D02*
X403742790Y-150332064D01*
X403743124Y-150562805D01*
X403743723Y-150757809D01*
X403744680Y-150920371D01*
X403746088Y-151053790D01*
X403748037Y-151161363D01*
X403750620Y-151246388D01*
X403753929Y-151312162D01*
X403758057Y-151361982D01*
X403763094Y-151399147D01*
X403769132Y-151426952D01*
X403776265Y-151448697D01*
X403781656Y-151461417D01*
X403833584Y-151542838D01*
X403910597Y-151626002D01*
X403998363Y-151697221D01*
X404071908Y-151738640D01*
X404177339Y-151764421D01*
X404299871Y-151766127D01*
X404422367Y-151744587D01*
X404494448Y-151718235D01*
X404618970Y-151638253D01*
X404712899Y-151530372D01*
X404773330Y-151398717D01*
X404794354Y-151292596D01*
X404793422Y-151264953D01*
X404431169Y-151264953D01*
X404407884Y-151328249D01*
X404360548Y-151375574D01*
X404298163Y-151401363D01*
X404229731Y-151400052D01*
X404164253Y-151366079D01*
X404153954Y-151356546D01*
X404112560Y-151289819D01*
X404107017Y-151217513D01*
X404134044Y-151150196D01*
X404190362Y-151098436D01*
X404240323Y-151078340D01*
X404305297Y-151081805D01*
X404368059Y-151117228D01*
X404414638Y-151175895D01*
X404421400Y-151191249D01*
X404431169Y-151264953D01*
X404793422Y-151264953D01*
X404789525Y-151149499D01*
X404748113Y-151018267D01*
X404675344Y-150904101D01*
X404576439Y-150812200D01*
X404456624Y-150747764D01*
X404321121Y-150715993D01*
X404215522Y-150716392D01*
X404102000Y-150728108D01*
X404102000Y-149192307D01*
X404788749Y-149329619D01*
X405475498Y-149466932D01*
X405481957Y-150252508D01*
X405483714Y-150456016D01*
X405485480Y-150621654D01*
X405487524Y-150753882D01*
X405490112Y-150857165D01*
X405493514Y-150935962D01*
X405497996Y-150994736D01*
X405503826Y-151037949D01*
X405511273Y-151070063D01*
X405520604Y-151095540D01*
X405532086Y-151118841D01*
X405534187Y-151122750D01*
X405607939Y-151227317D01*
X405704335Y-151319390D01*
X405789677Y-151374735D01*
X405917000Y-151416502D01*
X406050726Y-151421324D01*
X406182909Y-151392083D01*
X406305605Y-151331661D01*
X406410868Y-151242942D01*
X406490754Y-151128808D01*
X406495881Y-151118519D01*
X406534502Y-150994610D01*
X406539081Y-150893606D01*
X406176333Y-150893606D01*
X406158402Y-150971726D01*
X406108450Y-151025124D01*
X406032240Y-151048171D01*
X406017583Y-151048667D01*
X405942203Y-151033418D01*
X405901166Y-151006334D01*
X405865772Y-150943759D01*
X405862120Y-150869276D01*
X405889953Y-150798692D01*
X405904856Y-150780156D01*
X405967229Y-150739612D01*
X406036107Y-150733330D01*
X406100852Y-150756865D01*
X406150827Y-150805769D01*
X406175394Y-150875599D01*
X406176333Y-150893606D01*
X406539081Y-150893606D01*
X406540605Y-150860017D01*
X406516250Y-150726091D01*
X406463494Y-150604183D01*
X406384803Y-150506014D01*
X406279396Y-150432490D01*
X406157693Y-150383408D01*
X406033209Y-150362834D01*
X405935233Y-150370811D01*
X405858833Y-150388042D01*
X405858833Y-149171106D01*
X404800500Y-148959464D01*
X403742166Y-148747822D01*
X403742631Y-150062286D01*
D12*
X393377258Y-163307500D02*
X392902742Y-163307500D01*
X393377258Y-164352500D02*
X392902742Y-164352500D01*
X413612500Y-145740258D02*
X413612500Y-145265742D01*
X414657500Y-145740258D02*
X414657500Y-145265742D01*
X406136000Y-181352779D02*
X406136000Y-181027221D01*
X405116000Y-181352779D02*
X405116000Y-181027221D01*
X410317000Y-178871000D02*
X410977000Y-178871000D01*
X408657000Y-178871000D02*
X409317000Y-178871000D01*
X408657000Y-178871000D02*
X408657000Y-176841000D01*
X410977000Y-177461000D02*
X410977000Y-178871000D01*
X381404779Y-182458000D02*
X381079221Y-182458000D01*
X381404779Y-183478000D02*
X381079221Y-183478000D01*
X381404779Y-180934000D02*
X381079221Y-180934000D01*
X381404779Y-181954000D02*
X381079221Y-181954000D01*
X387460000Y-174179779D02*
X387460000Y-173854221D01*
X386440000Y-174179779D02*
X386440000Y-173854221D01*
X362063000Y-182297221D02*
X362063000Y-182622779D01*
X363083000Y-182297221D02*
X363083000Y-182622779D01*
X403088000Y-182622779D02*
X403088000Y-182297221D01*
X402068000Y-182622779D02*
X402068000Y-182297221D01*
X414645000Y-156651279D02*
X414645000Y-156325721D01*
X413625000Y-156651279D02*
X413625000Y-156325721D01*
D13*
X406563000Y-137446000D02*
G75*
G03*
X406563000Y-137446000I-100000J0D01*
G01*
D14*
X403688000Y-136846000D02*
X405413000Y-136846000D01*
X402143000Y-136846000D02*
X399513000Y-136846000D01*
X402143000Y-142046000D02*
X399513000Y-142046000D01*
X403688000Y-142046000D02*
X405413000Y-142046000D01*
X399418000Y-140656000D02*
X399418000Y-138236000D01*
D12*
X371773000Y-164720420D02*
X371773000Y-165001580D01*
X370753000Y-164720420D02*
X370753000Y-165001580D01*
X395830000Y-174145580D02*
X395830000Y-173864420D01*
X396850000Y-174145580D02*
X396850000Y-173864420D01*
X357650221Y-160872000D02*
X357975779Y-160872000D01*
X357650221Y-159852000D02*
X357975779Y-159852000D01*
X361816000Y-159670742D02*
X361816000Y-160145258D01*
X360771000Y-159670742D02*
X360771000Y-160145258D01*
X363340000Y-159670742D02*
X363340000Y-160145258D01*
X362295000Y-159670742D02*
X362295000Y-160145258D01*
X353064000Y-139664000D02*
X355064000Y-139664000D01*
X353064000Y-136864000D02*
X353064000Y-139664000D01*
X355064000Y-136864000D02*
X353064000Y-136864000D01*
X355064000Y-139664000D02*
X355064000Y-136864000D01*
X353064000Y-149918000D02*
X355064000Y-149918000D01*
X353064000Y-147118000D02*
X353064000Y-149918000D01*
X355064000Y-147118000D02*
X353064000Y-147118000D01*
X355064000Y-149918000D02*
X355064000Y-147118000D01*
X360143258Y-134820500D02*
X359668742Y-134820500D01*
X360143258Y-135865500D02*
X359668742Y-135865500D01*
X360143258Y-140154500D02*
X359668742Y-140154500D01*
X360143258Y-141199500D02*
X359668742Y-141199500D01*
X360143258Y-145361500D02*
X359668742Y-145361500D01*
X360143258Y-146406500D02*
X359668742Y-146406500D01*
X360143258Y-150695500D02*
X359668742Y-150695500D01*
X360143258Y-151740500D02*
X359668742Y-151740500D01*
X360046580Y-133309000D02*
X359765420Y-133309000D01*
X360046580Y-134329000D02*
X359765420Y-134329000D01*
X360046580Y-141818000D02*
X359765420Y-141818000D01*
X360046580Y-142838000D02*
X359765420Y-142838000D01*
X360046580Y-143850000D02*
X359765420Y-143850000D01*
X360046580Y-144870000D02*
X359765420Y-144870000D01*
X360046580Y-152232000D02*
X359765420Y-152232000D01*
X360046580Y-153252000D02*
X359765420Y-153252000D01*
X398382000Y-174154279D02*
X398382000Y-173828721D01*
X397362000Y-174154279D02*
X397362000Y-173828721D01*
X375383000Y-165621000D02*
X374453000Y-165621000D01*
X372223000Y-165621000D02*
X373153000Y-165621000D01*
X372223000Y-165621000D02*
X372223000Y-163461000D01*
X375383000Y-165621000D02*
X375383000Y-164161000D01*
X388873000Y-161577000D02*
X387073000Y-161577000D01*
X387073000Y-158357000D02*
X389523000Y-158357000D01*
X388873000Y-157767000D02*
X387073000Y-157767000D01*
X387073000Y-154547000D02*
X389523000Y-154547000D01*
X386850000Y-143924000D02*
X386500000Y-143924000D01*
X386500000Y-143924000D02*
X386500000Y-144274000D01*
X386850000Y-147124000D02*
X386500000Y-147124000D01*
X386500000Y-147124000D02*
X386500000Y-146774000D01*
X389350000Y-147124000D02*
X389700000Y-147124000D01*
X389700000Y-147124000D02*
X389700000Y-146774000D01*
X389350000Y-143924000D02*
X389925000Y-143924000D01*
X373911779Y-127594000D02*
X373586221Y-127594000D01*
X373911779Y-128614000D02*
X373586221Y-128614000D01*
X373911779Y-126070000D02*
X373586221Y-126070000D01*
X373911779Y-127090000D02*
X373586221Y-127090000D01*
X407660000Y-181352779D02*
X407660000Y-181027221D01*
X406640000Y-181352779D02*
X406640000Y-181027221D01*
X400040000Y-182622779D02*
X400040000Y-182297221D01*
X399020000Y-182622779D02*
X399020000Y-182297221D01*
X401564000Y-182622779D02*
X401564000Y-182297221D01*
X400544000Y-182622779D02*
X400544000Y-182297221D01*
X390134000Y-182622779D02*
X390134000Y-182297221D01*
X389114000Y-182622779D02*
X389114000Y-182297221D01*
X391658000Y-182622779D02*
X391658000Y-182297221D01*
X390638000Y-182622779D02*
X390638000Y-182297221D01*
X393201000Y-182622779D02*
X393201000Y-182297221D01*
X392181000Y-182622779D02*
X392181000Y-182297221D01*
X371007000Y-158348221D02*
X371007000Y-158673779D01*
X372027000Y-158348221D02*
X372027000Y-158673779D01*
X374092779Y-161811000D02*
X373767221Y-161811000D01*
X374092779Y-162831000D02*
X373767221Y-162831000D01*
X373840221Y-158332000D02*
X374165779Y-158332000D01*
X373840221Y-157312000D02*
X374165779Y-157312000D01*
X376245000Y-162793221D02*
X376245000Y-163118779D01*
X377265000Y-162793221D02*
X377265000Y-163118779D01*
X357650221Y-162396000D02*
X357975779Y-162396000D01*
X357650221Y-161376000D02*
X357975779Y-161376000D01*
X377253000Y-166166779D02*
X377253000Y-165841221D01*
X376233000Y-166166779D02*
X376233000Y-165841221D01*
X397754000Y-169033779D02*
X397754000Y-168708221D01*
X396734000Y-169033779D02*
X396734000Y-168708221D01*
X393723779Y-161630000D02*
X393398221Y-161630000D01*
X393723779Y-162650000D02*
X393398221Y-162650000D01*
X393813000Y-159691221D02*
X393813000Y-160016779D01*
X394833000Y-159691221D02*
X394833000Y-160016779D01*
X399532000Y-169033779D02*
X399532000Y-168708221D01*
X398512000Y-169033779D02*
X398512000Y-168708221D01*
X395976000Y-169033779D02*
X395976000Y-168708221D01*
X394956000Y-169033779D02*
X394956000Y-168708221D01*
X387848000Y-149362779D02*
X387848000Y-149037221D01*
X386828000Y-149362779D02*
X386828000Y-149037221D01*
X388352000Y-149037221D02*
X388352000Y-149362779D01*
X389372000Y-149037221D02*
X389372000Y-149362779D01*
X402830000Y-170232221D02*
X402830000Y-170557779D01*
X403850000Y-170232221D02*
X403850000Y-170557779D01*
X400572000Y-175994221D02*
X400572000Y-176319779D01*
X401592000Y-175994221D02*
X401592000Y-176319779D01*
X387686064Y-136918000D02*
X386481936Y-136918000D01*
X387686064Y-139638000D02*
X386481936Y-139638000D01*
X383873221Y-143868000D02*
X384198779Y-143868000D01*
X383873221Y-142848000D02*
X384198779Y-142848000D01*
X405788779Y-169504000D02*
X405463221Y-169504000D01*
X405788779Y-170524000D02*
X405463221Y-170524000D01*
X405463221Y-172048000D02*
X405788779Y-172048000D01*
X405463221Y-171028000D02*
X405788779Y-171028000D01*
X407656000Y-174740221D02*
X407656000Y-175065779D01*
X408676000Y-174740221D02*
X408676000Y-175065779D01*
X407656000Y-171692221D02*
X407656000Y-172017779D01*
X408676000Y-171692221D02*
X408676000Y-172017779D01*
X392961779Y-150454000D02*
X392636221Y-150454000D01*
X392961779Y-151474000D02*
X392636221Y-151474000D01*
X410200000Y-175065779D02*
X410200000Y-174740221D01*
X409180000Y-175065779D02*
X409180000Y-174740221D01*
X389913779Y-151343000D02*
X389588221Y-151343000D01*
X389913779Y-152363000D02*
X389588221Y-152363000D01*
X401310000Y-169033779D02*
X401310000Y-168708221D01*
X400290000Y-169033779D02*
X400290000Y-168708221D01*
X393944000Y-169033779D02*
X393944000Y-168708221D01*
X392924000Y-169033779D02*
X392924000Y-168708221D01*
X373230000Y-158875000D02*
X375130000Y-158875000D01*
X374630000Y-161195000D02*
X373230000Y-161195000D01*
X383847000Y-158838000D02*
G75*
G03*
X383847000Y-158838000I-700000J0D01*
G01*
X383847000Y-155409000D02*
G75*
G03*
X383847000Y-155409000I-700000J0D01*
G01*
X395872000Y-143456000D02*
X394672000Y-143456000D01*
X395872000Y-143456000D02*
X395872000Y-142056000D01*
X395872000Y-136656000D02*
X395872000Y-138056000D01*
X395872000Y-136656000D02*
X394672000Y-136656000D01*
X389472000Y-136656000D02*
X390672000Y-136656000D01*
X389472000Y-143456000D02*
X390672000Y-143456000D01*
X389472000Y-136656000D02*
X389472000Y-138056000D01*
X389472000Y-143456000D02*
X389472000Y-142056000D01*
X356656000Y-135965422D02*
X356656000Y-136482578D01*
X358076000Y-135965422D02*
X358076000Y-136482578D01*
X368182000Y-132786779D02*
X368182000Y-132461221D01*
X367162000Y-132786779D02*
X367162000Y-132461221D01*
X359654000Y-138164779D02*
X359654000Y-137839221D01*
X358634000Y-138164779D02*
X358634000Y-137839221D01*
X358076000Y-140038578D02*
X358076000Y-139521422D01*
X356656000Y-140038578D02*
X356656000Y-139521422D01*
X356656000Y-146481422D02*
X356656000Y-146998578D01*
X358076000Y-146481422D02*
X358076000Y-146998578D01*
X359654000Y-148452279D02*
X359654000Y-148126721D01*
X358634000Y-148452279D02*
X358634000Y-148126721D01*
X358076000Y-150587578D02*
X358076000Y-150070422D01*
X356656000Y-150587578D02*
X356656000Y-150070422D01*
X367162000Y-149733221D02*
X367162000Y-150058779D01*
X368182000Y-149733221D02*
X368182000Y-150058779D01*
X409908221Y-181192000D02*
X410233779Y-181192000D01*
X409908221Y-180172000D02*
X410233779Y-180172000D01*
X372985000Y-182297221D02*
X372985000Y-182622779D01*
X374005000Y-182297221D02*
X374005000Y-182622779D01*
X363587000Y-182297221D02*
X363587000Y-182622779D01*
X364607000Y-182297221D02*
X364607000Y-182622779D01*
X352133779Y-176662000D02*
X351808221Y-176662000D01*
X352133779Y-177682000D02*
X351808221Y-177682000D01*
X352133779Y-175138000D02*
X351808221Y-175138000D01*
X352133779Y-176158000D02*
X351808221Y-176158000D01*
X385689000Y-159875779D02*
X385689000Y-159550221D01*
X384669000Y-159875779D02*
X384669000Y-159550221D01*
X391785000Y-160016779D02*
X391785000Y-159691221D01*
X390765000Y-160016779D02*
X390765000Y-159691221D01*
X391785000Y-156333779D02*
X391785000Y-156008221D01*
X390765000Y-156333779D02*
X390765000Y-156008221D01*
X385689000Y-156319779D02*
X385689000Y-155994221D01*
X384669000Y-156319779D02*
X384669000Y-155994221D01*
X393309000Y-160016779D02*
X393309000Y-159691221D01*
X392289000Y-160016779D02*
X392289000Y-159691221D01*
X396007221Y-164330000D02*
X396332779Y-164330000D01*
X396007221Y-163310000D02*
X396332779Y-163310000D01*
X386320000Y-141417221D02*
X386320000Y-141742779D01*
X387340000Y-141417221D02*
X387340000Y-141742779D01*
X390896000Y-149362779D02*
X390896000Y-149037221D01*
X389876000Y-149362779D02*
X389876000Y-149037221D01*
X389118000Y-141742779D02*
X389118000Y-141417221D01*
X388098000Y-141742779D02*
X388098000Y-141417221D01*
X384438000Y-140658064D02*
X384438000Y-139453936D01*
X382618000Y-140658064D02*
X382618000Y-139453936D01*
X393328000Y-148278064D02*
X393328000Y-147073936D01*
X391508000Y-148278064D02*
X391508000Y-147073936D01*
X403502779Y-176409000D02*
X403177221Y-176409000D01*
X403502779Y-177429000D02*
X403177221Y-177429000D01*
X403502779Y-174885000D02*
X403177221Y-174885000D01*
X403502779Y-175905000D02*
X403177221Y-175905000D01*
X409180000Y-171692221D02*
X409180000Y-172017779D01*
X410200000Y-171692221D02*
X410200000Y-172017779D01*
X406136000Y-176272779D02*
X406136000Y-175947221D01*
X405116000Y-176272779D02*
X405116000Y-175947221D01*
X412940000Y-174970578D02*
X412940000Y-174453422D01*
X411520000Y-174970578D02*
X411520000Y-174453422D01*
%LPC*%
D11*
G36*
X403893000Y-141826000D02*
G01*
X403893000Y-137066000D01*
X403468000Y-137066000D01*
X403468000Y-136571000D01*
X402363000Y-136571000D01*
X402363000Y-137066000D01*
X399163000Y-137066000D01*
X399163000Y-138016000D01*
X399638000Y-138016000D01*
X399638000Y-140876000D01*
X399163000Y-140876000D01*
X399163000Y-141826000D01*
X402363000Y-141826000D01*
X402363000Y-142321000D01*
X403468000Y-142321000D01*
X403468000Y-141826000D01*
X403893000Y-141826000D01*
G37*
X403893000Y-141826000D02*
X403893000Y-137066000D01*
X403468000Y-137066000D01*
X403468000Y-136571000D01*
X402363000Y-136571000D01*
X402363000Y-137066000D01*
X399163000Y-137066000D01*
X399163000Y-138016000D01*
X399638000Y-138016000D01*
X399638000Y-140876000D01*
X399163000Y-140876000D01*
X399163000Y-141826000D01*
X402363000Y-141826000D01*
X402363000Y-142321000D01*
X403468000Y-142321000D01*
X403468000Y-141826000D01*
X403893000Y-141826000D01*
D15*
X408451600Y-160000000D03*
X415451600Y-160000000D03*
X408451600Y-149000000D03*
X415451600Y-149000000D03*
D16*
X379115800Y-141196500D03*
X379115800Y-142496500D03*
X379115800Y-139896500D03*
X377815800Y-141196500D03*
X377815800Y-142496500D03*
X377815800Y-139896500D03*
X376515800Y-141196500D03*
X376515800Y-142496500D03*
X376515800Y-139896500D03*
X375215800Y-141196500D03*
X375215800Y-142496500D03*
X375215800Y-139896500D03*
X373915800Y-141196500D03*
X373915800Y-142496500D03*
X373915800Y-139896500D03*
X372615800Y-141196500D03*
X372615800Y-142496500D03*
X372615800Y-139896500D03*
X371315800Y-142496500D03*
X371315800Y-141196500D03*
X371315800Y-139896500D03*
D17*
X357567000Y-166304000D03*
X360167000Y-166304000D03*
X358867000Y-166304000D03*
X356267000Y-166304000D03*
X358867000Y-165004000D03*
X357567000Y-165004000D03*
X360167000Y-165004000D03*
X356267000Y-165004000D03*
X357567000Y-167604000D03*
X360167000Y-167604000D03*
X358867000Y-167604000D03*
X356267000Y-167604000D03*
X360167000Y-168904000D03*
X358867000Y-168904000D03*
X357567000Y-168904000D03*
X356267000Y-168904000D03*
D18*
X398260000Y-129120000D03*
D19*
X393180000Y-129120000D03*
G36*
G01*
X392715000Y-163555000D02*
X392715000Y-164105000D01*
G75*
G02*
X392515000Y-164305000I-200000J0D01*
G01*
X392115000Y-164305000D01*
G75*
G02*
X391915000Y-164105000I0J200000D01*
G01*
X391915000Y-163555000D01*
G75*
G02*
X392115000Y-163355000I200000J0D01*
G01*
X392515000Y-163355000D01*
G75*
G02*
X392715000Y-163555000I0J-200000D01*
G01*
G37*
G36*
G01*
X394365000Y-163555000D02*
X394365000Y-164105000D01*
G75*
G02*
X394165000Y-164305000I-200000J0D01*
G01*
X393765000Y-164305000D01*
G75*
G02*
X393565000Y-164105000I0J200000D01*
G01*
X393565000Y-163555000D01*
G75*
G02*
X393765000Y-163355000I200000J0D01*
G01*
X394165000Y-163355000D01*
G75*
G02*
X394365000Y-163555000I0J-200000D01*
G01*
G37*
G36*
G01*
X414410000Y-145078000D02*
X413860000Y-145078000D01*
G75*
G02*
X413660000Y-144878000I0J200000D01*
G01*
X413660000Y-144478000D01*
G75*
G02*
X413860000Y-144278000I200000J0D01*
G01*
X414410000Y-144278000D01*
G75*
G02*
X414610000Y-144478000I0J-200000D01*
G01*
X414610000Y-144878000D01*
G75*
G02*
X414410000Y-145078000I-200000J0D01*
G01*
G37*
G36*
G01*
X414410000Y-146728000D02*
X413860000Y-146728000D01*
G75*
G02*
X413660000Y-146528000I0J200000D01*
G01*
X413660000Y-146128000D01*
G75*
G02*
X413860000Y-145928000I200000J0D01*
G01*
X414410000Y-145928000D01*
G75*
G02*
X414610000Y-146128000I0J-200000D01*
G01*
X414610000Y-146528000D01*
G75*
G02*
X414410000Y-146728000I-200000J0D01*
G01*
G37*
G36*
G01*
X405882250Y-180840000D02*
X405369750Y-180840000D01*
G75*
G02*
X405151000Y-180621250I0J218750D01*
G01*
X405151000Y-180183750D01*
G75*
G02*
X405369750Y-179965000I218750J0D01*
G01*
X405882250Y-179965000D01*
G75*
G02*
X406101000Y-180183750I0J-218750D01*
G01*
X406101000Y-180621250D01*
G75*
G02*
X405882250Y-180840000I-218750J0D01*
G01*
G37*
G36*
G01*
X405882250Y-182415000D02*
X405369750Y-182415000D01*
G75*
G02*
X405151000Y-182196250I0J218750D01*
G01*
X405151000Y-181758750D01*
G75*
G02*
X405369750Y-181540000I218750J0D01*
G01*
X405882250Y-181540000D01*
G75*
G02*
X406101000Y-181758750I0J-218750D01*
G01*
X406101000Y-182196250D01*
G75*
G02*
X405882250Y-182415000I-218750J0D01*
G01*
G37*
D20*
X418380000Y-166700000D03*
X418380000Y-175350000D03*
D21*
X415000000Y-166700000D03*
X415000000Y-175350000D03*
D22*
X415370000Y-170600000D03*
X415370000Y-168050000D03*
X415370000Y-168900000D03*
X415370000Y-169750000D03*
X415370000Y-174000000D03*
X415370000Y-172300000D03*
X415370000Y-171450000D03*
X415370000Y-173150000D03*
X414020000Y-168050000D03*
X414020000Y-168900000D03*
X414020000Y-169750000D03*
X414020000Y-170600000D03*
X414020000Y-171450000D03*
X414020000Y-172300000D03*
X414020000Y-173150000D03*
X414020000Y-174000000D03*
D18*
X354000000Y-135760000D03*
D19*
X354000000Y-151000000D03*
D18*
X354000000Y-140840000D03*
X354000000Y-145920000D03*
D23*
X409817000Y-179141000D03*
X410467000Y-177141000D03*
X409167000Y-177141000D03*
G36*
G01*
X380892000Y-182711750D02*
X380892000Y-183224250D01*
G75*
G02*
X380673250Y-183443000I-218750J0D01*
G01*
X380235750Y-183443000D01*
G75*
G02*
X380017000Y-183224250I0J218750D01*
G01*
X380017000Y-182711750D01*
G75*
G02*
X380235750Y-182493000I218750J0D01*
G01*
X380673250Y-182493000D01*
G75*
G02*
X380892000Y-182711750I0J-218750D01*
G01*
G37*
G36*
G01*
X382467000Y-182711750D02*
X382467000Y-183224250D01*
G75*
G02*
X382248250Y-183443000I-218750J0D01*
G01*
X381810750Y-183443000D01*
G75*
G02*
X381592000Y-183224250I0J218750D01*
G01*
X381592000Y-182711750D01*
G75*
G02*
X381810750Y-182493000I218750J0D01*
G01*
X382248250Y-182493000D01*
G75*
G02*
X382467000Y-182711750I0J-218750D01*
G01*
G37*
G36*
G01*
X380892000Y-181187750D02*
X380892000Y-181700250D01*
G75*
G02*
X380673250Y-181919000I-218750J0D01*
G01*
X380235750Y-181919000D01*
G75*
G02*
X380017000Y-181700250I0J218750D01*
G01*
X380017000Y-181187750D01*
G75*
G02*
X380235750Y-180969000I218750J0D01*
G01*
X380673250Y-180969000D01*
G75*
G02*
X380892000Y-181187750I0J-218750D01*
G01*
G37*
G36*
G01*
X382467000Y-181187750D02*
X382467000Y-181700250D01*
G75*
G02*
X382248250Y-181919000I-218750J0D01*
G01*
X381810750Y-181919000D01*
G75*
G02*
X381592000Y-181700250I0J218750D01*
G01*
X381592000Y-181187750D01*
G75*
G02*
X381810750Y-180969000I218750J0D01*
G01*
X382248250Y-180969000D01*
G75*
G02*
X382467000Y-181187750I0J-218750D01*
G01*
G37*
G36*
G01*
X387206250Y-173667000D02*
X386693750Y-173667000D01*
G75*
G02*
X386475000Y-173448250I0J218750D01*
G01*
X386475000Y-173010750D01*
G75*
G02*
X386693750Y-172792000I218750J0D01*
G01*
X387206250Y-172792000D01*
G75*
G02*
X387425000Y-173010750I0J-218750D01*
G01*
X387425000Y-173448250D01*
G75*
G02*
X387206250Y-173667000I-218750J0D01*
G01*
G37*
G36*
G01*
X387206250Y-175242000D02*
X386693750Y-175242000D01*
G75*
G02*
X386475000Y-175023250I0J218750D01*
G01*
X386475000Y-174585750D01*
G75*
G02*
X386693750Y-174367000I218750J0D01*
G01*
X387206250Y-174367000D01*
G75*
G02*
X387425000Y-174585750I0J-218750D01*
G01*
X387425000Y-175023250D01*
G75*
G02*
X387206250Y-175242000I-218750J0D01*
G01*
G37*
G36*
G01*
X362316750Y-182810000D02*
X362829250Y-182810000D01*
G75*
G02*
X363048000Y-183028750I0J-218750D01*
G01*
X363048000Y-183466250D01*
G75*
G02*
X362829250Y-183685000I-218750J0D01*
G01*
X362316750Y-183685000D01*
G75*
G02*
X362098000Y-183466250I0J218750D01*
G01*
X362098000Y-183028750D01*
G75*
G02*
X362316750Y-182810000I218750J0D01*
G01*
G37*
G36*
G01*
X362316750Y-181235000D02*
X362829250Y-181235000D01*
G75*
G02*
X363048000Y-181453750I0J-218750D01*
G01*
X363048000Y-181891250D01*
G75*
G02*
X362829250Y-182110000I-218750J0D01*
G01*
X362316750Y-182110000D01*
G75*
G02*
X362098000Y-181891250I0J218750D01*
G01*
X362098000Y-181453750D01*
G75*
G02*
X362316750Y-181235000I218750J0D01*
G01*
G37*
G36*
G01*
X402834250Y-182110000D02*
X402321750Y-182110000D01*
G75*
G02*
X402103000Y-181891250I0J218750D01*
G01*
X402103000Y-181453750D01*
G75*
G02*
X402321750Y-181235000I218750J0D01*
G01*
X402834250Y-181235000D01*
G75*
G02*
X403053000Y-181453750I0J-218750D01*
G01*
X403053000Y-181891250D01*
G75*
G02*
X402834250Y-182110000I-218750J0D01*
G01*
G37*
G36*
G01*
X402834250Y-183685000D02*
X402321750Y-183685000D01*
G75*
G02*
X402103000Y-183466250I0J218750D01*
G01*
X402103000Y-183028750D01*
G75*
G02*
X402321750Y-182810000I218750J0D01*
G01*
X402834250Y-182810000D01*
G75*
G02*
X403053000Y-183028750I0J-218750D01*
G01*
X403053000Y-183466250D01*
G75*
G02*
X402834250Y-183685000I-218750J0D01*
G01*
G37*
G36*
G01*
X414391250Y-156138500D02*
X413878750Y-156138500D01*
G75*
G02*
X413660000Y-155919750I0J218750D01*
G01*
X413660000Y-155482250D01*
G75*
G02*
X413878750Y-155263500I218750J0D01*
G01*
X414391250Y-155263500D01*
G75*
G02*
X414610000Y-155482250I0J-218750D01*
G01*
X414610000Y-155919750D01*
G75*
G02*
X414391250Y-156138500I-218750J0D01*
G01*
G37*
G36*
G01*
X414391250Y-157713500D02*
X413878750Y-157713500D01*
G75*
G02*
X413660000Y-157494750I0J218750D01*
G01*
X413660000Y-157057250D01*
G75*
G02*
X413878750Y-156838500I218750J0D01*
G01*
X414391250Y-156838500D01*
G75*
G02*
X414610000Y-157057250I0J-218750D01*
G01*
X414610000Y-157494750D01*
G75*
G02*
X414391250Y-157713500I-218750J0D01*
G01*
G37*
D24*
X405258000Y-137541000D03*
X405258000Y-141351000D03*
X405258000Y-138811000D03*
X405258000Y-140081000D03*
G36*
G01*
X371013000Y-165186000D02*
X371513000Y-165186000D01*
G75*
G02*
X371738000Y-165411000I0J-225000D01*
G01*
X371738000Y-165861000D01*
G75*
G02*
X371513000Y-166086000I-225000J0D01*
G01*
X371013000Y-166086000D01*
G75*
G02*
X370788000Y-165861000I0J225000D01*
G01*
X370788000Y-165411000D01*
G75*
G02*
X371013000Y-165186000I225000J0D01*
G01*
G37*
G36*
G01*
X371013000Y-163636000D02*
X371513000Y-163636000D01*
G75*
G02*
X371738000Y-163861000I0J-225000D01*
G01*
X371738000Y-164311000D01*
G75*
G02*
X371513000Y-164536000I-225000J0D01*
G01*
X371013000Y-164536000D01*
G75*
G02*
X370788000Y-164311000I0J225000D01*
G01*
X370788000Y-163861000D01*
G75*
G02*
X371013000Y-163636000I225000J0D01*
G01*
G37*
G36*
G01*
X396590000Y-173680000D02*
X396090000Y-173680000D01*
G75*
G02*
X395865000Y-173455000I0J225000D01*
G01*
X395865000Y-173005000D01*
G75*
G02*
X396090000Y-172780000I225000J0D01*
G01*
X396590000Y-172780000D01*
G75*
G02*
X396815000Y-173005000I0J-225000D01*
G01*
X396815000Y-173455000D01*
G75*
G02*
X396590000Y-173680000I-225000J0D01*
G01*
G37*
G36*
G01*
X396590000Y-175230000D02*
X396090000Y-175230000D01*
G75*
G02*
X395865000Y-175005000I0J225000D01*
G01*
X395865000Y-174555000D01*
G75*
G02*
X396090000Y-174330000I225000J0D01*
G01*
X396590000Y-174330000D01*
G75*
G02*
X396815000Y-174555000I0J-225000D01*
G01*
X396815000Y-175005000D01*
G75*
G02*
X396590000Y-175230000I-225000J0D01*
G01*
G37*
G36*
G01*
X358163000Y-160618250D02*
X358163000Y-160105750D01*
G75*
G02*
X358381750Y-159887000I218750J0D01*
G01*
X358819250Y-159887000D01*
G75*
G02*
X359038000Y-160105750I0J-218750D01*
G01*
X359038000Y-160618250D01*
G75*
G02*
X358819250Y-160837000I-218750J0D01*
G01*
X358381750Y-160837000D01*
G75*
G02*
X358163000Y-160618250I0J218750D01*
G01*
G37*
G36*
G01*
X356588000Y-160618250D02*
X356588000Y-160105750D01*
G75*
G02*
X356806750Y-159887000I218750J0D01*
G01*
X357244250Y-159887000D01*
G75*
G02*
X357463000Y-160105750I0J-218750D01*
G01*
X357463000Y-160618250D01*
G75*
G02*
X357244250Y-160837000I-218750J0D01*
G01*
X356806750Y-160837000D01*
G75*
G02*
X356588000Y-160618250I0J218750D01*
G01*
G37*
G36*
G01*
X361018500Y-160333000D02*
X361568500Y-160333000D01*
G75*
G02*
X361768500Y-160533000I0J-200000D01*
G01*
X361768500Y-160933000D01*
G75*
G02*
X361568500Y-161133000I-200000J0D01*
G01*
X361018500Y-161133000D01*
G75*
G02*
X360818500Y-160933000I0J200000D01*
G01*
X360818500Y-160533000D01*
G75*
G02*
X361018500Y-160333000I200000J0D01*
G01*
G37*
G36*
G01*
X361018500Y-158683000D02*
X361568500Y-158683000D01*
G75*
G02*
X361768500Y-158883000I0J-200000D01*
G01*
X361768500Y-159283000D01*
G75*
G02*
X361568500Y-159483000I-200000J0D01*
G01*
X361018500Y-159483000D01*
G75*
G02*
X360818500Y-159283000I0J200000D01*
G01*
X360818500Y-158883000D01*
G75*
G02*
X361018500Y-158683000I200000J0D01*
G01*
G37*
G36*
G01*
X362542500Y-160333000D02*
X363092500Y-160333000D01*
G75*
G02*
X363292500Y-160533000I0J-200000D01*
G01*
X363292500Y-160933000D01*
G75*
G02*
X363092500Y-161133000I-200000J0D01*
G01*
X362542500Y-161133000D01*
G75*
G02*
X362342500Y-160933000I0J200000D01*
G01*
X362342500Y-160533000D01*
G75*
G02*
X362542500Y-160333000I200000J0D01*
G01*
G37*
G36*
G01*
X362542500Y-158683000D02*
X363092500Y-158683000D01*
G75*
G02*
X363292500Y-158883000I0J-200000D01*
G01*
X363292500Y-159283000D01*
G75*
G02*
X363092500Y-159483000I-200000J0D01*
G01*
X362542500Y-159483000D01*
G75*
G02*
X362342500Y-159283000I0J200000D01*
G01*
X362342500Y-158883000D01*
G75*
G02*
X362542500Y-158683000I200000J0D01*
G01*
G37*
D25*
X354064000Y-138914000D03*
X354064000Y-137614000D03*
X354064000Y-149168000D03*
X354064000Y-147868000D03*
G36*
G01*
X359481000Y-135068000D02*
X359481000Y-135618000D01*
G75*
G02*
X359281000Y-135818000I-200000J0D01*
G01*
X358881000Y-135818000D01*
G75*
G02*
X358681000Y-135618000I0J200000D01*
G01*
X358681000Y-135068000D01*
G75*
G02*
X358881000Y-134868000I200000J0D01*
G01*
X359281000Y-134868000D01*
G75*
G02*
X359481000Y-135068000I0J-200000D01*
G01*
G37*
G36*
G01*
X361131000Y-135068000D02*
X361131000Y-135618000D01*
G75*
G02*
X360931000Y-135818000I-200000J0D01*
G01*
X360531000Y-135818000D01*
G75*
G02*
X360331000Y-135618000I0J200000D01*
G01*
X360331000Y-135068000D01*
G75*
G02*
X360531000Y-134868000I200000J0D01*
G01*
X360931000Y-134868000D01*
G75*
G02*
X361131000Y-135068000I0J-200000D01*
G01*
G37*
G36*
G01*
X359481000Y-140402000D02*
X359481000Y-140952000D01*
G75*
G02*
X359281000Y-141152000I-200000J0D01*
G01*
X358881000Y-141152000D01*
G75*
G02*
X358681000Y-140952000I0J200000D01*
G01*
X358681000Y-140402000D01*
G75*
G02*
X358881000Y-140202000I200000J0D01*
G01*
X359281000Y-140202000D01*
G75*
G02*
X359481000Y-140402000I0J-200000D01*
G01*
G37*
G36*
G01*
X361131000Y-140402000D02*
X361131000Y-140952000D01*
G75*
G02*
X360931000Y-141152000I-200000J0D01*
G01*
X360531000Y-141152000D01*
G75*
G02*
X360331000Y-140952000I0J200000D01*
G01*
X360331000Y-140402000D01*
G75*
G02*
X360531000Y-140202000I200000J0D01*
G01*
X360931000Y-140202000D01*
G75*
G02*
X361131000Y-140402000I0J-200000D01*
G01*
G37*
G36*
G01*
X359481000Y-145609000D02*
X359481000Y-146159000D01*
G75*
G02*
X359281000Y-146359000I-200000J0D01*
G01*
X358881000Y-146359000D01*
G75*
G02*
X358681000Y-146159000I0J200000D01*
G01*
X358681000Y-145609000D01*
G75*
G02*
X358881000Y-145409000I200000J0D01*
G01*
X359281000Y-145409000D01*
G75*
G02*
X359481000Y-145609000I0J-200000D01*
G01*
G37*
G36*
G01*
X361131000Y-145609000D02*
X361131000Y-146159000D01*
G75*
G02*
X360931000Y-146359000I-200000J0D01*
G01*
X360531000Y-146359000D01*
G75*
G02*
X360331000Y-146159000I0J200000D01*
G01*
X360331000Y-145609000D01*
G75*
G02*
X360531000Y-145409000I200000J0D01*
G01*
X360931000Y-145409000D01*
G75*
G02*
X361131000Y-145609000I0J-200000D01*
G01*
G37*
G36*
G01*
X359481000Y-150943000D02*
X359481000Y-151493000D01*
G75*
G02*
X359281000Y-151693000I-200000J0D01*
G01*
X358881000Y-151693000D01*
G75*
G02*
X358681000Y-151493000I0J200000D01*
G01*
X358681000Y-150943000D01*
G75*
G02*
X358881000Y-150743000I200000J0D01*
G01*
X359281000Y-150743000D01*
G75*
G02*
X359481000Y-150943000I0J-200000D01*
G01*
G37*
G36*
G01*
X361131000Y-150943000D02*
X361131000Y-151493000D01*
G75*
G02*
X360931000Y-151693000I-200000J0D01*
G01*
X360531000Y-151693000D01*
G75*
G02*
X360331000Y-151493000I0J200000D01*
G01*
X360331000Y-150943000D01*
G75*
G02*
X360531000Y-150743000I200000J0D01*
G01*
X360931000Y-150743000D01*
G75*
G02*
X361131000Y-150943000I0J-200000D01*
G01*
G37*
G36*
G01*
X359581000Y-133569000D02*
X359581000Y-134069000D01*
G75*
G02*
X359356000Y-134294000I-225000J0D01*
G01*
X358906000Y-134294000D01*
G75*
G02*
X358681000Y-134069000I0J225000D01*
G01*
X358681000Y-133569000D01*
G75*
G02*
X358906000Y-133344000I225000J0D01*
G01*
X359356000Y-133344000D01*
G75*
G02*
X359581000Y-133569000I0J-225000D01*
G01*
G37*
G36*
G01*
X361131000Y-133569000D02*
X361131000Y-134069000D01*
G75*
G02*
X360906000Y-134294000I-225000J0D01*
G01*
X360456000Y-134294000D01*
G75*
G02*
X360231000Y-134069000I0J225000D01*
G01*
X360231000Y-133569000D01*
G75*
G02*
X360456000Y-133344000I225000J0D01*
G01*
X360906000Y-133344000D01*
G75*
G02*
X361131000Y-133569000I0J-225000D01*
G01*
G37*
G36*
G01*
X359581000Y-142078000D02*
X359581000Y-142578000D01*
G75*
G02*
X359356000Y-142803000I-225000J0D01*
G01*
X358906000Y-142803000D01*
G75*
G02*
X358681000Y-142578000I0J225000D01*
G01*
X358681000Y-142078000D01*
G75*
G02*
X358906000Y-141853000I225000J0D01*
G01*
X359356000Y-141853000D01*
G75*
G02*
X359581000Y-142078000I0J-225000D01*
G01*
G37*
G36*
G01*
X361131000Y-142078000D02*
X361131000Y-142578000D01*
G75*
G02*
X360906000Y-142803000I-225000J0D01*
G01*
X360456000Y-142803000D01*
G75*
G02*
X360231000Y-142578000I0J225000D01*
G01*
X360231000Y-142078000D01*
G75*
G02*
X360456000Y-141853000I225000J0D01*
G01*
X360906000Y-141853000D01*
G75*
G02*
X361131000Y-142078000I0J-225000D01*
G01*
G37*
G36*
G01*
X359581000Y-144110000D02*
X359581000Y-144610000D01*
G75*
G02*
X359356000Y-144835000I-225000J0D01*
G01*
X358906000Y-144835000D01*
G75*
G02*
X358681000Y-144610000I0J225000D01*
G01*
X358681000Y-144110000D01*
G75*
G02*
X358906000Y-143885000I225000J0D01*
G01*
X359356000Y-143885000D01*
G75*
G02*
X359581000Y-144110000I0J-225000D01*
G01*
G37*
G36*
G01*
X361131000Y-144110000D02*
X361131000Y-144610000D01*
G75*
G02*
X360906000Y-144835000I-225000J0D01*
G01*
X360456000Y-144835000D01*
G75*
G02*
X360231000Y-144610000I0J225000D01*
G01*
X360231000Y-144110000D01*
G75*
G02*
X360456000Y-143885000I225000J0D01*
G01*
X360906000Y-143885000D01*
G75*
G02*
X361131000Y-144110000I0J-225000D01*
G01*
G37*
G36*
G01*
X359581000Y-152492000D02*
X359581000Y-152992000D01*
G75*
G02*
X359356000Y-153217000I-225000J0D01*
G01*
X358906000Y-153217000D01*
G75*
G02*
X358681000Y-152992000I0J225000D01*
G01*
X358681000Y-152492000D01*
G75*
G02*
X358906000Y-152267000I225000J0D01*
G01*
X359356000Y-152267000D01*
G75*
G02*
X359581000Y-152492000I0J-225000D01*
G01*
G37*
G36*
G01*
X361131000Y-152492000D02*
X361131000Y-152992000D01*
G75*
G02*
X360906000Y-153217000I-225000J0D01*
G01*
X360456000Y-153217000D01*
G75*
G02*
X360231000Y-152992000I0J225000D01*
G01*
X360231000Y-152492000D01*
G75*
G02*
X360456000Y-152267000I225000J0D01*
G01*
X360906000Y-152267000D01*
G75*
G02*
X361131000Y-152492000I0J-225000D01*
G01*
G37*
G36*
G01*
X398128250Y-173641500D02*
X397615750Y-173641500D01*
G75*
G02*
X397397000Y-173422750I0J218750D01*
G01*
X397397000Y-172985250D01*
G75*
G02*
X397615750Y-172766500I218750J0D01*
G01*
X398128250Y-172766500D01*
G75*
G02*
X398347000Y-172985250I0J-218750D01*
G01*
X398347000Y-173422750D01*
G75*
G02*
X398128250Y-173641500I-218750J0D01*
G01*
G37*
G36*
G01*
X398128250Y-175216500D02*
X397615750Y-175216500D01*
G75*
G02*
X397397000Y-174997750I0J218750D01*
G01*
X397397000Y-174560250D01*
G75*
G02*
X397615750Y-174341500I218750J0D01*
G01*
X398128250Y-174341500D01*
G75*
G02*
X398347000Y-174560250I0J-218750D01*
G01*
X398347000Y-174997750D01*
G75*
G02*
X398128250Y-175216500I-218750J0D01*
G01*
G37*
D26*
X416000000Y-181000000D03*
D27*
X373803000Y-165861000D03*
X374753000Y-163861000D03*
X372853000Y-163861000D03*
D28*
X386873000Y-159017000D03*
X386873000Y-160917000D03*
X389073000Y-160917000D03*
X389073000Y-159967000D03*
X389073000Y-159017000D03*
X386873000Y-155207000D03*
X386873000Y-157107000D03*
X389073000Y-157107000D03*
X389073000Y-156157000D03*
X389073000Y-155207000D03*
D29*
X389104000Y-144074000D03*
X388608000Y-144074000D03*
X388104000Y-144074000D03*
X387604000Y-144074000D03*
X387084000Y-144074000D03*
D30*
X386950000Y-145020000D03*
X386950000Y-145520000D03*
X386950000Y-146020000D03*
D29*
X387096000Y-146974000D03*
X387596000Y-146974000D03*
X388096000Y-146974000D03*
X388596000Y-146974000D03*
X389116000Y-146974000D03*
D30*
X389250000Y-146028000D03*
X389250000Y-145528000D03*
X389250000Y-145028000D03*
G36*
G01*
X373399000Y-127847750D02*
X373399000Y-128360250D01*
G75*
G02*
X373180250Y-128579000I-218750J0D01*
G01*
X372742750Y-128579000D01*
G75*
G02*
X372524000Y-128360250I0J218750D01*
G01*
X372524000Y-127847750D01*
G75*
G02*
X372742750Y-127629000I218750J0D01*
G01*
X373180250Y-127629000D01*
G75*
G02*
X373399000Y-127847750I0J-218750D01*
G01*
G37*
G36*
G01*
X374974000Y-127847750D02*
X374974000Y-128360250D01*
G75*
G02*
X374755250Y-128579000I-218750J0D01*
G01*
X374317750Y-128579000D01*
G75*
G02*
X374099000Y-128360250I0J218750D01*
G01*
X374099000Y-127847750D01*
G75*
G02*
X374317750Y-127629000I218750J0D01*
G01*
X374755250Y-127629000D01*
G75*
G02*
X374974000Y-127847750I0J-218750D01*
G01*
G37*
G36*
G01*
X373399000Y-126323750D02*
X373399000Y-126836250D01*
G75*
G02*
X373180250Y-127055000I-218750J0D01*
G01*
X372742750Y-127055000D01*
G75*
G02*
X372524000Y-126836250I0J218750D01*
G01*
X372524000Y-126323750D01*
G75*
G02*
X372742750Y-126105000I218750J0D01*
G01*
X373180250Y-126105000D01*
G75*
G02*
X373399000Y-126323750I0J-218750D01*
G01*
G37*
G36*
G01*
X374974000Y-126323750D02*
X374974000Y-126836250D01*
G75*
G02*
X374755250Y-127055000I-218750J0D01*
G01*
X374317750Y-127055000D01*
G75*
G02*
X374099000Y-126836250I0J218750D01*
G01*
X374099000Y-126323750D01*
G75*
G02*
X374317750Y-126105000I218750J0D01*
G01*
X374755250Y-126105000D01*
G75*
G02*
X374974000Y-126323750I0J-218750D01*
G01*
G37*
G36*
G01*
X407406250Y-180840000D02*
X406893750Y-180840000D01*
G75*
G02*
X406675000Y-180621250I0J218750D01*
G01*
X406675000Y-180183750D01*
G75*
G02*
X406893750Y-179965000I218750J0D01*
G01*
X407406250Y-179965000D01*
G75*
G02*
X407625000Y-180183750I0J-218750D01*
G01*
X407625000Y-180621250D01*
G75*
G02*
X407406250Y-180840000I-218750J0D01*
G01*
G37*
G36*
G01*
X407406250Y-182415000D02*
X406893750Y-182415000D01*
G75*
G02*
X406675000Y-182196250I0J218750D01*
G01*
X406675000Y-181758750D01*
G75*
G02*
X406893750Y-181540000I218750J0D01*
G01*
X407406250Y-181540000D01*
G75*
G02*
X407625000Y-181758750I0J-218750D01*
G01*
X407625000Y-182196250D01*
G75*
G02*
X407406250Y-182415000I-218750J0D01*
G01*
G37*
G36*
G01*
X399786250Y-182110000D02*
X399273750Y-182110000D01*
G75*
G02*
X399055000Y-181891250I0J218750D01*
G01*
X399055000Y-181453750D01*
G75*
G02*
X399273750Y-181235000I218750J0D01*
G01*
X399786250Y-181235000D01*
G75*
G02*
X400005000Y-181453750I0J-218750D01*
G01*
X400005000Y-181891250D01*
G75*
G02*
X399786250Y-182110000I-218750J0D01*
G01*
G37*
G36*
G01*
X399786250Y-183685000D02*
X399273750Y-183685000D01*
G75*
G02*
X399055000Y-183466250I0J218750D01*
G01*
X399055000Y-183028750D01*
G75*
G02*
X399273750Y-182810000I218750J0D01*
G01*
X399786250Y-182810000D01*
G75*
G02*
X400005000Y-183028750I0J-218750D01*
G01*
X400005000Y-183466250D01*
G75*
G02*
X399786250Y-183685000I-218750J0D01*
G01*
G37*
G36*
G01*
X401310250Y-182110000D02*
X400797750Y-182110000D01*
G75*
G02*
X400579000Y-181891250I0J218750D01*
G01*
X400579000Y-181453750D01*
G75*
G02*
X400797750Y-181235000I218750J0D01*
G01*
X401310250Y-181235000D01*
G75*
G02*
X401529000Y-181453750I0J-218750D01*
G01*
X401529000Y-181891250D01*
G75*
G02*
X401310250Y-182110000I-218750J0D01*
G01*
G37*
G36*
G01*
X401310250Y-183685000D02*
X400797750Y-183685000D01*
G75*
G02*
X400579000Y-183466250I0J218750D01*
G01*
X400579000Y-183028750D01*
G75*
G02*
X400797750Y-182810000I218750J0D01*
G01*
X401310250Y-182810000D01*
G75*
G02*
X401529000Y-183028750I0J-218750D01*
G01*
X401529000Y-183466250D01*
G75*
G02*
X401310250Y-183685000I-218750J0D01*
G01*
G37*
G36*
G01*
X389880250Y-182110000D02*
X389367750Y-182110000D01*
G75*
G02*
X389149000Y-181891250I0J218750D01*
G01*
X389149000Y-181453750D01*
G75*
G02*
X389367750Y-181235000I218750J0D01*
G01*
X389880250Y-181235000D01*
G75*
G02*
X390099000Y-181453750I0J-218750D01*
G01*
X390099000Y-181891250D01*
G75*
G02*
X389880250Y-182110000I-218750J0D01*
G01*
G37*
G36*
G01*
X389880250Y-183685000D02*
X389367750Y-183685000D01*
G75*
G02*
X389149000Y-183466250I0J218750D01*
G01*
X389149000Y-183028750D01*
G75*
G02*
X389367750Y-182810000I218750J0D01*
G01*
X389880250Y-182810000D01*
G75*
G02*
X390099000Y-183028750I0J-218750D01*
G01*
X390099000Y-183466250D01*
G75*
G02*
X389880250Y-183685000I-218750J0D01*
G01*
G37*
G36*
G01*
X391404250Y-182110000D02*
X390891750Y-182110000D01*
G75*
G02*
X390673000Y-181891250I0J218750D01*
G01*
X390673000Y-181453750D01*
G75*
G02*
X390891750Y-181235000I218750J0D01*
G01*
X391404250Y-181235000D01*
G75*
G02*
X391623000Y-181453750I0J-218750D01*
G01*
X391623000Y-181891250D01*
G75*
G02*
X391404250Y-182110000I-218750J0D01*
G01*
G37*
G36*
G01*
X391404250Y-183685000D02*
X390891750Y-183685000D01*
G75*
G02*
X390673000Y-183466250I0J218750D01*
G01*
X390673000Y-183028750D01*
G75*
G02*
X390891750Y-182810000I218750J0D01*
G01*
X391404250Y-182810000D01*
G75*
G02*
X391623000Y-183028750I0J-218750D01*
G01*
X391623000Y-183466250D01*
G75*
G02*
X391404250Y-183685000I-218750J0D01*
G01*
G37*
G36*
G01*
X392947250Y-182110000D02*
X392434750Y-182110000D01*
G75*
G02*
X392216000Y-181891250I0J218750D01*
G01*
X392216000Y-181453750D01*
G75*
G02*
X392434750Y-181235000I218750J0D01*
G01*
X392947250Y-181235000D01*
G75*
G02*
X393166000Y-181453750I0J-218750D01*
G01*
X393166000Y-181891250D01*
G75*
G02*
X392947250Y-182110000I-218750J0D01*
G01*
G37*
G36*
G01*
X392947250Y-183685000D02*
X392434750Y-183685000D01*
G75*
G02*
X392216000Y-183466250I0J218750D01*
G01*
X392216000Y-183028750D01*
G75*
G02*
X392434750Y-182810000I218750J0D01*
G01*
X392947250Y-182810000D01*
G75*
G02*
X393166000Y-183028750I0J-218750D01*
G01*
X393166000Y-183466250D01*
G75*
G02*
X392947250Y-183685000I-218750J0D01*
G01*
G37*
G36*
G01*
X371260750Y-158861000D02*
X371773250Y-158861000D01*
G75*
G02*
X371992000Y-159079750I0J-218750D01*
G01*
X371992000Y-159517250D01*
G75*
G02*
X371773250Y-159736000I-218750J0D01*
G01*
X371260750Y-159736000D01*
G75*
G02*
X371042000Y-159517250I0J218750D01*
G01*
X371042000Y-159079750D01*
G75*
G02*
X371260750Y-158861000I218750J0D01*
G01*
G37*
G36*
G01*
X371260750Y-157286000D02*
X371773250Y-157286000D01*
G75*
G02*
X371992000Y-157504750I0J-218750D01*
G01*
X371992000Y-157942250D01*
G75*
G02*
X371773250Y-158161000I-218750J0D01*
G01*
X371260750Y-158161000D01*
G75*
G02*
X371042000Y-157942250I0J218750D01*
G01*
X371042000Y-157504750D01*
G75*
G02*
X371260750Y-157286000I218750J0D01*
G01*
G37*
G36*
G01*
X373580000Y-162064750D02*
X373580000Y-162577250D01*
G75*
G02*
X373361250Y-162796000I-218750J0D01*
G01*
X372923750Y-162796000D01*
G75*
G02*
X372705000Y-162577250I0J218750D01*
G01*
X372705000Y-162064750D01*
G75*
G02*
X372923750Y-161846000I218750J0D01*
G01*
X373361250Y-161846000D01*
G75*
G02*
X373580000Y-162064750I0J-218750D01*
G01*
G37*
G36*
G01*
X375155000Y-162064750D02*
X375155000Y-162577250D01*
G75*
G02*
X374936250Y-162796000I-218750J0D01*
G01*
X374498750Y-162796000D01*
G75*
G02*
X374280000Y-162577250I0J218750D01*
G01*
X374280000Y-162064750D01*
G75*
G02*
X374498750Y-161846000I218750J0D01*
G01*
X374936250Y-161846000D01*
G75*
G02*
X375155000Y-162064750I0J-218750D01*
G01*
G37*
G36*
G01*
X374353000Y-158078250D02*
X374353000Y-157565750D01*
G75*
G02*
X374571750Y-157347000I218750J0D01*
G01*
X375009250Y-157347000D01*
G75*
G02*
X375228000Y-157565750I0J-218750D01*
G01*
X375228000Y-158078250D01*
G75*
G02*
X375009250Y-158297000I-218750J0D01*
G01*
X374571750Y-158297000D01*
G75*
G02*
X374353000Y-158078250I0J218750D01*
G01*
G37*
G36*
G01*
X372778000Y-158078250D02*
X372778000Y-157565750D01*
G75*
G02*
X372996750Y-157347000I218750J0D01*
G01*
X373434250Y-157347000D01*
G75*
G02*
X373653000Y-157565750I0J-218750D01*
G01*
X373653000Y-158078250D01*
G75*
G02*
X373434250Y-158297000I-218750J0D01*
G01*
X372996750Y-158297000D01*
G75*
G02*
X372778000Y-158078250I0J218750D01*
G01*
G37*
G36*
G01*
X376498750Y-163306000D02*
X377011250Y-163306000D01*
G75*
G02*
X377230000Y-163524750I0J-218750D01*
G01*
X377230000Y-163962250D01*
G75*
G02*
X377011250Y-164181000I-218750J0D01*
G01*
X376498750Y-164181000D01*
G75*
G02*
X376280000Y-163962250I0J218750D01*
G01*
X376280000Y-163524750D01*
G75*
G02*
X376498750Y-163306000I218750J0D01*
G01*
G37*
G36*
G01*
X376498750Y-161731000D02*
X377011250Y-161731000D01*
G75*
G02*
X377230000Y-161949750I0J-218750D01*
G01*
X377230000Y-162387250D01*
G75*
G02*
X377011250Y-162606000I-218750J0D01*
G01*
X376498750Y-162606000D01*
G75*
G02*
X376280000Y-162387250I0J218750D01*
G01*
X376280000Y-161949750D01*
G75*
G02*
X376498750Y-161731000I218750J0D01*
G01*
G37*
G36*
G01*
X358163000Y-162142250D02*
X358163000Y-161629750D01*
G75*
G02*
X358381750Y-161411000I218750J0D01*
G01*
X358819250Y-161411000D01*
G75*
G02*
X359038000Y-161629750I0J-218750D01*
G01*
X359038000Y-162142250D01*
G75*
G02*
X358819250Y-162361000I-218750J0D01*
G01*
X358381750Y-162361000D01*
G75*
G02*
X358163000Y-162142250I0J218750D01*
G01*
G37*
G36*
G01*
X356588000Y-162142250D02*
X356588000Y-161629750D01*
G75*
G02*
X356806750Y-161411000I218750J0D01*
G01*
X357244250Y-161411000D01*
G75*
G02*
X357463000Y-161629750I0J-218750D01*
G01*
X357463000Y-162142250D01*
G75*
G02*
X357244250Y-162361000I-218750J0D01*
G01*
X356806750Y-162361000D01*
G75*
G02*
X356588000Y-162142250I0J218750D01*
G01*
G37*
G36*
G01*
X376999250Y-165654000D02*
X376486750Y-165654000D01*
G75*
G02*
X376268000Y-165435250I0J218750D01*
G01*
X376268000Y-164997750D01*
G75*
G02*
X376486750Y-164779000I218750J0D01*
G01*
X376999250Y-164779000D01*
G75*
G02*
X377218000Y-164997750I0J-218750D01*
G01*
X377218000Y-165435250D01*
G75*
G02*
X376999250Y-165654000I-218750J0D01*
G01*
G37*
G36*
G01*
X376999250Y-167229000D02*
X376486750Y-167229000D01*
G75*
G02*
X376268000Y-167010250I0J218750D01*
G01*
X376268000Y-166572750D01*
G75*
G02*
X376486750Y-166354000I218750J0D01*
G01*
X376999250Y-166354000D01*
G75*
G02*
X377218000Y-166572750I0J-218750D01*
G01*
X377218000Y-167010250D01*
G75*
G02*
X376999250Y-167229000I-218750J0D01*
G01*
G37*
G36*
G01*
X397500250Y-168521000D02*
X396987750Y-168521000D01*
G75*
G02*
X396769000Y-168302250I0J218750D01*
G01*
X396769000Y-167864750D01*
G75*
G02*
X396987750Y-167646000I218750J0D01*
G01*
X397500250Y-167646000D01*
G75*
G02*
X397719000Y-167864750I0J-218750D01*
G01*
X397719000Y-168302250D01*
G75*
G02*
X397500250Y-168521000I-218750J0D01*
G01*
G37*
G36*
G01*
X397500250Y-170096000D02*
X396987750Y-170096000D01*
G75*
G02*
X396769000Y-169877250I0J218750D01*
G01*
X396769000Y-169439750D01*
G75*
G02*
X396987750Y-169221000I218750J0D01*
G01*
X397500250Y-169221000D01*
G75*
G02*
X397719000Y-169439750I0J-218750D01*
G01*
X397719000Y-169877250D01*
G75*
G02*
X397500250Y-170096000I-218750J0D01*
G01*
G37*
G36*
G01*
X393211000Y-161883750D02*
X393211000Y-162396250D01*
G75*
G02*
X392992250Y-162615000I-218750J0D01*
G01*
X392554750Y-162615000D01*
G75*
G02*
X392336000Y-162396250I0J218750D01*
G01*
X392336000Y-161883750D01*
G75*
G02*
X392554750Y-161665000I218750J0D01*
G01*
X392992250Y-161665000D01*
G75*
G02*
X393211000Y-161883750I0J-218750D01*
G01*
G37*
G36*
G01*
X394786000Y-161883750D02*
X394786000Y-162396250D01*
G75*
G02*
X394567250Y-162615000I-218750J0D01*
G01*
X394129750Y-162615000D01*
G75*
G02*
X393911000Y-162396250I0J218750D01*
G01*
X393911000Y-161883750D01*
G75*
G02*
X394129750Y-161665000I218750J0D01*
G01*
X394567250Y-161665000D01*
G75*
G02*
X394786000Y-161883750I0J-218750D01*
G01*
G37*
G36*
G01*
X394066750Y-160204000D02*
X394579250Y-160204000D01*
G75*
G02*
X394798000Y-160422750I0J-218750D01*
G01*
X394798000Y-160860250D01*
G75*
G02*
X394579250Y-161079000I-218750J0D01*
G01*
X394066750Y-161079000D01*
G75*
G02*
X393848000Y-160860250I0J218750D01*
G01*
X393848000Y-160422750D01*
G75*
G02*
X394066750Y-160204000I218750J0D01*
G01*
G37*
G36*
G01*
X394066750Y-158629000D02*
X394579250Y-158629000D01*
G75*
G02*
X394798000Y-158847750I0J-218750D01*
G01*
X394798000Y-159285250D01*
G75*
G02*
X394579250Y-159504000I-218750J0D01*
G01*
X394066750Y-159504000D01*
G75*
G02*
X393848000Y-159285250I0J218750D01*
G01*
X393848000Y-158847750D01*
G75*
G02*
X394066750Y-158629000I218750J0D01*
G01*
G37*
G36*
G01*
X399278250Y-168521000D02*
X398765750Y-168521000D01*
G75*
G02*
X398547000Y-168302250I0J218750D01*
G01*
X398547000Y-167864750D01*
G75*
G02*
X398765750Y-167646000I218750J0D01*
G01*
X399278250Y-167646000D01*
G75*
G02*
X399497000Y-167864750I0J-218750D01*
G01*
X399497000Y-168302250D01*
G75*
G02*
X399278250Y-168521000I-218750J0D01*
G01*
G37*
G36*
G01*
X399278250Y-170096000D02*
X398765750Y-170096000D01*
G75*
G02*
X398547000Y-169877250I0J218750D01*
G01*
X398547000Y-169439750D01*
G75*
G02*
X398765750Y-169221000I218750J0D01*
G01*
X399278250Y-169221000D01*
G75*
G02*
X399497000Y-169439750I0J-218750D01*
G01*
X399497000Y-169877250D01*
G75*
G02*
X399278250Y-170096000I-218750J0D01*
G01*
G37*
G36*
G01*
X395722250Y-168521000D02*
X395209750Y-168521000D01*
G75*
G02*
X394991000Y-168302250I0J218750D01*
G01*
X394991000Y-167864750D01*
G75*
G02*
X395209750Y-167646000I218750J0D01*
G01*
X395722250Y-167646000D01*
G75*
G02*
X395941000Y-167864750I0J-218750D01*
G01*
X395941000Y-168302250D01*
G75*
G02*
X395722250Y-168521000I-218750J0D01*
G01*
G37*
G36*
G01*
X395722250Y-170096000D02*
X395209750Y-170096000D01*
G75*
G02*
X394991000Y-169877250I0J218750D01*
G01*
X394991000Y-169439750D01*
G75*
G02*
X395209750Y-169221000I218750J0D01*
G01*
X395722250Y-169221000D01*
G75*
G02*
X395941000Y-169439750I0J-218750D01*
G01*
X395941000Y-169877250D01*
G75*
G02*
X395722250Y-170096000I-218750J0D01*
G01*
G37*
G36*
G01*
X387594250Y-148850000D02*
X387081750Y-148850000D01*
G75*
G02*
X386863000Y-148631250I0J218750D01*
G01*
X386863000Y-148193750D01*
G75*
G02*
X387081750Y-147975000I218750J0D01*
G01*
X387594250Y-147975000D01*
G75*
G02*
X387813000Y-148193750I0J-218750D01*
G01*
X387813000Y-148631250D01*
G75*
G02*
X387594250Y-148850000I-218750J0D01*
G01*
G37*
G36*
G01*
X387594250Y-150425000D02*
X387081750Y-150425000D01*
G75*
G02*
X386863000Y-150206250I0J218750D01*
G01*
X386863000Y-149768750D01*
G75*
G02*
X387081750Y-149550000I218750J0D01*
G01*
X387594250Y-149550000D01*
G75*
G02*
X387813000Y-149768750I0J-218750D01*
G01*
X387813000Y-150206250D01*
G75*
G02*
X387594250Y-150425000I-218750J0D01*
G01*
G37*
G36*
G01*
X388605750Y-149550000D02*
X389118250Y-149550000D01*
G75*
G02*
X389337000Y-149768750I0J-218750D01*
G01*
X389337000Y-150206250D01*
G75*
G02*
X389118250Y-150425000I-218750J0D01*
G01*
X388605750Y-150425000D01*
G75*
G02*
X388387000Y-150206250I0J218750D01*
G01*
X388387000Y-149768750D01*
G75*
G02*
X388605750Y-149550000I218750J0D01*
G01*
G37*
G36*
G01*
X388605750Y-147975000D02*
X389118250Y-147975000D01*
G75*
G02*
X389337000Y-148193750I0J-218750D01*
G01*
X389337000Y-148631250D01*
G75*
G02*
X389118250Y-148850000I-218750J0D01*
G01*
X388605750Y-148850000D01*
G75*
G02*
X388387000Y-148631250I0J218750D01*
G01*
X388387000Y-148193750D01*
G75*
G02*
X388605750Y-147975000I218750J0D01*
G01*
G37*
G36*
G01*
X403083750Y-170745000D02*
X403596250Y-170745000D01*
G75*
G02*
X403815000Y-170963750I0J-218750D01*
G01*
X403815000Y-171401250D01*
G75*
G02*
X403596250Y-171620000I-218750J0D01*
G01*
X403083750Y-171620000D01*
G75*
G02*
X402865000Y-171401250I0J218750D01*
G01*
X402865000Y-170963750D01*
G75*
G02*
X403083750Y-170745000I218750J0D01*
G01*
G37*
G36*
G01*
X403083750Y-169170000D02*
X403596250Y-169170000D01*
G75*
G02*
X403815000Y-169388750I0J-218750D01*
G01*
X403815000Y-169826250D01*
G75*
G02*
X403596250Y-170045000I-218750J0D01*
G01*
X403083750Y-170045000D01*
G75*
G02*
X402865000Y-169826250I0J218750D01*
G01*
X402865000Y-169388750D01*
G75*
G02*
X403083750Y-169170000I218750J0D01*
G01*
G37*
G36*
G01*
X400825750Y-176507000D02*
X401338250Y-176507000D01*
G75*
G02*
X401557000Y-176725750I0J-218750D01*
G01*
X401557000Y-177163250D01*
G75*
G02*
X401338250Y-177382000I-218750J0D01*
G01*
X400825750Y-177382000D01*
G75*
G02*
X400607000Y-177163250I0J218750D01*
G01*
X400607000Y-176725750D01*
G75*
G02*
X400825750Y-176507000I218750J0D01*
G01*
G37*
G36*
G01*
X400825750Y-174932000D02*
X401338250Y-174932000D01*
G75*
G02*
X401557000Y-175150750I0J-218750D01*
G01*
X401557000Y-175588250D01*
G75*
G02*
X401338250Y-175807000I-218750J0D01*
G01*
X400825750Y-175807000D01*
G75*
G02*
X400607000Y-175588250I0J218750D01*
G01*
X400607000Y-175150750D01*
G75*
G02*
X400825750Y-174932000I218750J0D01*
G01*
G37*
G36*
G01*
X386309000Y-137203000D02*
X386309000Y-139353000D01*
G75*
G02*
X386059000Y-139603000I-250000J0D01*
G01*
X385309000Y-139603000D01*
G75*
G02*
X385059000Y-139353000I0J250000D01*
G01*
X385059000Y-137203000D01*
G75*
G02*
X385309000Y-136953000I250000J0D01*
G01*
X386059000Y-136953000D01*
G75*
G02*
X386309000Y-137203000I0J-250000D01*
G01*
G37*
G36*
G01*
X389109000Y-137203000D02*
X389109000Y-139353000D01*
G75*
G02*
X388859000Y-139603000I-250000J0D01*
G01*
X388109000Y-139603000D01*
G75*
G02*
X387859000Y-139353000I0J250000D01*
G01*
X387859000Y-137203000D01*
G75*
G02*
X388109000Y-136953000I250000J0D01*
G01*
X388859000Y-136953000D01*
G75*
G02*
X389109000Y-137203000I0J-250000D01*
G01*
G37*
G36*
G01*
X384386000Y-143614250D02*
X384386000Y-143101750D01*
G75*
G02*
X384604750Y-142883000I218750J0D01*
G01*
X385042250Y-142883000D01*
G75*
G02*
X385261000Y-143101750I0J-218750D01*
G01*
X385261000Y-143614250D01*
G75*
G02*
X385042250Y-143833000I-218750J0D01*
G01*
X384604750Y-143833000D01*
G75*
G02*
X384386000Y-143614250I0J218750D01*
G01*
G37*
G36*
G01*
X382811000Y-143614250D02*
X382811000Y-143101750D01*
G75*
G02*
X383029750Y-142883000I218750J0D01*
G01*
X383467250Y-142883000D01*
G75*
G02*
X383686000Y-143101750I0J-218750D01*
G01*
X383686000Y-143614250D01*
G75*
G02*
X383467250Y-143833000I-218750J0D01*
G01*
X383029750Y-143833000D01*
G75*
G02*
X382811000Y-143614250I0J218750D01*
G01*
G37*
G36*
G01*
X405276000Y-169757750D02*
X405276000Y-170270250D01*
G75*
G02*
X405057250Y-170489000I-218750J0D01*
G01*
X404619750Y-170489000D01*
G75*
G02*
X404401000Y-170270250I0J218750D01*
G01*
X404401000Y-169757750D01*
G75*
G02*
X404619750Y-169539000I218750J0D01*
G01*
X405057250Y-169539000D01*
G75*
G02*
X405276000Y-169757750I0J-218750D01*
G01*
G37*
G36*
G01*
X406851000Y-169757750D02*
X406851000Y-170270250D01*
G75*
G02*
X406632250Y-170489000I-218750J0D01*
G01*
X406194750Y-170489000D01*
G75*
G02*
X405976000Y-170270250I0J218750D01*
G01*
X405976000Y-169757750D01*
G75*
G02*
X406194750Y-169539000I218750J0D01*
G01*
X406632250Y-169539000D01*
G75*
G02*
X406851000Y-169757750I0J-218750D01*
G01*
G37*
G36*
G01*
X405976000Y-171794250D02*
X405976000Y-171281750D01*
G75*
G02*
X406194750Y-171063000I218750J0D01*
G01*
X406632250Y-171063000D01*
G75*
G02*
X406851000Y-171281750I0J-218750D01*
G01*
X406851000Y-171794250D01*
G75*
G02*
X406632250Y-172013000I-218750J0D01*
G01*
X406194750Y-172013000D01*
G75*
G02*
X405976000Y-171794250I0J218750D01*
G01*
G37*
G36*
G01*
X404401000Y-171794250D02*
X404401000Y-171281750D01*
G75*
G02*
X404619750Y-171063000I218750J0D01*
G01*
X405057250Y-171063000D01*
G75*
G02*
X405276000Y-171281750I0J-218750D01*
G01*
X405276000Y-171794250D01*
G75*
G02*
X405057250Y-172013000I-218750J0D01*
G01*
X404619750Y-172013000D01*
G75*
G02*
X404401000Y-171794250I0J218750D01*
G01*
G37*
G36*
G01*
X407909750Y-175253000D02*
X408422250Y-175253000D01*
G75*
G02*
X408641000Y-175471750I0J-218750D01*
G01*
X408641000Y-175909250D01*
G75*
G02*
X408422250Y-176128000I-218750J0D01*
G01*
X407909750Y-176128000D01*
G75*
G02*
X407691000Y-175909250I0J218750D01*
G01*
X407691000Y-175471750D01*
G75*
G02*
X407909750Y-175253000I218750J0D01*
G01*
G37*
G36*
G01*
X407909750Y-173678000D02*
X408422250Y-173678000D01*
G75*
G02*
X408641000Y-173896750I0J-218750D01*
G01*
X408641000Y-174334250D01*
G75*
G02*
X408422250Y-174553000I-218750J0D01*
G01*
X407909750Y-174553000D01*
G75*
G02*
X407691000Y-174334250I0J218750D01*
G01*
X407691000Y-173896750D01*
G75*
G02*
X407909750Y-173678000I218750J0D01*
G01*
G37*
G36*
G01*
X407909750Y-172205000D02*
X408422250Y-172205000D01*
G75*
G02*
X408641000Y-172423750I0J-218750D01*
G01*
X408641000Y-172861250D01*
G75*
G02*
X408422250Y-173080000I-218750J0D01*
G01*
X407909750Y-173080000D01*
G75*
G02*
X407691000Y-172861250I0J218750D01*
G01*
X407691000Y-172423750D01*
G75*
G02*
X407909750Y-172205000I218750J0D01*
G01*
G37*
G36*
G01*
X407909750Y-170630000D02*
X408422250Y-170630000D01*
G75*
G02*
X408641000Y-170848750I0J-218750D01*
G01*
X408641000Y-171286250D01*
G75*
G02*
X408422250Y-171505000I-218750J0D01*
G01*
X407909750Y-171505000D01*
G75*
G02*
X407691000Y-171286250I0J218750D01*
G01*
X407691000Y-170848750D01*
G75*
G02*
X407909750Y-170630000I218750J0D01*
G01*
G37*
G36*
G01*
X392449000Y-150707750D02*
X392449000Y-151220250D01*
G75*
G02*
X392230250Y-151439000I-218750J0D01*
G01*
X391792750Y-151439000D01*
G75*
G02*
X391574000Y-151220250I0J218750D01*
G01*
X391574000Y-150707750D01*
G75*
G02*
X391792750Y-150489000I218750J0D01*
G01*
X392230250Y-150489000D01*
G75*
G02*
X392449000Y-150707750I0J-218750D01*
G01*
G37*
G36*
G01*
X394024000Y-150707750D02*
X394024000Y-151220250D01*
G75*
G02*
X393805250Y-151439000I-218750J0D01*
G01*
X393367750Y-151439000D01*
G75*
G02*
X393149000Y-151220250I0J218750D01*
G01*
X393149000Y-150707750D01*
G75*
G02*
X393367750Y-150489000I218750J0D01*
G01*
X393805250Y-150489000D01*
G75*
G02*
X394024000Y-150707750I0J-218750D01*
G01*
G37*
G36*
G01*
X409946250Y-174553000D02*
X409433750Y-174553000D01*
G75*
G02*
X409215000Y-174334250I0J218750D01*
G01*
X409215000Y-173896750D01*
G75*
G02*
X409433750Y-173678000I218750J0D01*
G01*
X409946250Y-173678000D01*
G75*
G02*
X410165000Y-173896750I0J-218750D01*
G01*
X410165000Y-174334250D01*
G75*
G02*
X409946250Y-174553000I-218750J0D01*
G01*
G37*
G36*
G01*
X409946250Y-176128000D02*
X409433750Y-176128000D01*
G75*
G02*
X409215000Y-175909250I0J218750D01*
G01*
X409215000Y-175471750D01*
G75*
G02*
X409433750Y-175253000I218750J0D01*
G01*
X409946250Y-175253000D01*
G75*
G02*
X410165000Y-175471750I0J-218750D01*
G01*
X410165000Y-175909250D01*
G75*
G02*
X409946250Y-176128000I-218750J0D01*
G01*
G37*
G36*
G01*
X389401000Y-151596750D02*
X389401000Y-152109250D01*
G75*
G02*
X389182250Y-152328000I-218750J0D01*
G01*
X388744750Y-152328000D01*
G75*
G02*
X388526000Y-152109250I0J218750D01*
G01*
X388526000Y-151596750D01*
G75*
G02*
X388744750Y-151378000I218750J0D01*
G01*
X389182250Y-151378000D01*
G75*
G02*
X389401000Y-151596750I0J-218750D01*
G01*
G37*
G36*
G01*
X390976000Y-151596750D02*
X390976000Y-152109250D01*
G75*
G02*
X390757250Y-152328000I-218750J0D01*
G01*
X390319750Y-152328000D01*
G75*
G02*
X390101000Y-152109250I0J218750D01*
G01*
X390101000Y-151596750D01*
G75*
G02*
X390319750Y-151378000I218750J0D01*
G01*
X390757250Y-151378000D01*
G75*
G02*
X390976000Y-151596750I0J-218750D01*
G01*
G37*
G36*
G01*
X401056250Y-168521000D02*
X400543750Y-168521000D01*
G75*
G02*
X400325000Y-168302250I0J218750D01*
G01*
X400325000Y-167864750D01*
G75*
G02*
X400543750Y-167646000I218750J0D01*
G01*
X401056250Y-167646000D01*
G75*
G02*
X401275000Y-167864750I0J-218750D01*
G01*
X401275000Y-168302250D01*
G75*
G02*
X401056250Y-168521000I-218750J0D01*
G01*
G37*
G36*
G01*
X401056250Y-170096000D02*
X400543750Y-170096000D01*
G75*
G02*
X400325000Y-169877250I0J218750D01*
G01*
X400325000Y-169439750D01*
G75*
G02*
X400543750Y-169221000I218750J0D01*
G01*
X401056250Y-169221000D01*
G75*
G02*
X401275000Y-169439750I0J-218750D01*
G01*
X401275000Y-169877250D01*
G75*
G02*
X401056250Y-170096000I-218750J0D01*
G01*
G37*
G36*
G01*
X393690250Y-168521000D02*
X393177750Y-168521000D01*
G75*
G02*
X392959000Y-168302250I0J218750D01*
G01*
X392959000Y-167864750D01*
G75*
G02*
X393177750Y-167646000I218750J0D01*
G01*
X393690250Y-167646000D01*
G75*
G02*
X393909000Y-167864750I0J-218750D01*
G01*
X393909000Y-168302250D01*
G75*
G02*
X393690250Y-168521000I-218750J0D01*
G01*
G37*
G36*
G01*
X393690250Y-170096000D02*
X393177750Y-170096000D01*
G75*
G02*
X392959000Y-169877250I0J218750D01*
G01*
X392959000Y-169439750D01*
G75*
G02*
X393177750Y-169221000I218750J0D01*
G01*
X393690250Y-169221000D01*
G75*
G02*
X393909000Y-169439750I0J-218750D01*
G01*
X393909000Y-169877250D01*
G75*
G02*
X393690250Y-170096000I-218750J0D01*
G01*
G37*
D31*
X372980000Y-159385000D03*
X372980000Y-160685000D03*
X374880000Y-160035000D03*
X372980000Y-160035000D03*
X374880000Y-160685000D03*
X374880000Y-159385000D03*
D32*
X383147000Y-158838000D03*
X383147000Y-155409000D03*
D33*
X392672000Y-137706000D03*
X392672000Y-142406000D03*
D34*
X407658000Y-137502000D03*
D35*
X413458000Y-137502000D03*
D36*
X410658000Y-132702000D03*
D18*
X408420000Y-129120000D03*
D19*
X403340000Y-129120000D03*
D26*
X354000000Y-129000000D03*
X416000000Y-129000000D03*
D37*
X386576000Y-128993000D03*
X355461000Y-182714000D03*
G36*
G01*
X356909750Y-136674000D02*
X357822250Y-136674000D01*
G75*
G02*
X358066000Y-136917750I0J-243750D01*
G01*
X358066000Y-137405250D01*
G75*
G02*
X357822250Y-137649000I-243750J0D01*
G01*
X356909750Y-137649000D01*
G75*
G02*
X356666000Y-137405250I0J243750D01*
G01*
X356666000Y-136917750D01*
G75*
G02*
X356909750Y-136674000I243750J0D01*
G01*
G37*
G36*
G01*
X356909750Y-134799000D02*
X357822250Y-134799000D01*
G75*
G02*
X358066000Y-135042750I0J-243750D01*
G01*
X358066000Y-135530250D01*
G75*
G02*
X357822250Y-135774000I-243750J0D01*
G01*
X356909750Y-135774000D01*
G75*
G02*
X356666000Y-135530250I0J243750D01*
G01*
X356666000Y-135042750D01*
G75*
G02*
X356909750Y-134799000I243750J0D01*
G01*
G37*
G36*
G01*
X367928250Y-132274000D02*
X367415750Y-132274000D01*
G75*
G02*
X367197000Y-132055250I0J218750D01*
G01*
X367197000Y-131617750D01*
G75*
G02*
X367415750Y-131399000I218750J0D01*
G01*
X367928250Y-131399000D01*
G75*
G02*
X368147000Y-131617750I0J-218750D01*
G01*
X368147000Y-132055250D01*
G75*
G02*
X367928250Y-132274000I-218750J0D01*
G01*
G37*
G36*
G01*
X367928250Y-133849000D02*
X367415750Y-133849000D01*
G75*
G02*
X367197000Y-133630250I0J218750D01*
G01*
X367197000Y-133192750D01*
G75*
G02*
X367415750Y-132974000I218750J0D01*
G01*
X367928250Y-132974000D01*
G75*
G02*
X368147000Y-133192750I0J-218750D01*
G01*
X368147000Y-133630250D01*
G75*
G02*
X367928250Y-133849000I-218750J0D01*
G01*
G37*
G36*
G01*
X359400250Y-137652000D02*
X358887750Y-137652000D01*
G75*
G02*
X358669000Y-137433250I0J218750D01*
G01*
X358669000Y-136995750D01*
G75*
G02*
X358887750Y-136777000I218750J0D01*
G01*
X359400250Y-136777000D01*
G75*
G02*
X359619000Y-136995750I0J-218750D01*
G01*
X359619000Y-137433250D01*
G75*
G02*
X359400250Y-137652000I-218750J0D01*
G01*
G37*
G36*
G01*
X359400250Y-139227000D02*
X358887750Y-139227000D01*
G75*
G02*
X358669000Y-139008250I0J218750D01*
G01*
X358669000Y-138570750D01*
G75*
G02*
X358887750Y-138352000I218750J0D01*
G01*
X359400250Y-138352000D01*
G75*
G02*
X359619000Y-138570750I0J-218750D01*
G01*
X359619000Y-139008250D01*
G75*
G02*
X359400250Y-139227000I-218750J0D01*
G01*
G37*
G36*
G01*
X357822250Y-139330000D02*
X356909750Y-139330000D01*
G75*
G02*
X356666000Y-139086250I0J243750D01*
G01*
X356666000Y-138598750D01*
G75*
G02*
X356909750Y-138355000I243750J0D01*
G01*
X357822250Y-138355000D01*
G75*
G02*
X358066000Y-138598750I0J-243750D01*
G01*
X358066000Y-139086250D01*
G75*
G02*
X357822250Y-139330000I-243750J0D01*
G01*
G37*
G36*
G01*
X357822250Y-141205000D02*
X356909750Y-141205000D01*
G75*
G02*
X356666000Y-140961250I0J243750D01*
G01*
X356666000Y-140473750D01*
G75*
G02*
X356909750Y-140230000I243750J0D01*
G01*
X357822250Y-140230000D01*
G75*
G02*
X358066000Y-140473750I0J-243750D01*
G01*
X358066000Y-140961250D01*
G75*
G02*
X357822250Y-141205000I-243750J0D01*
G01*
G37*
G36*
G01*
X356909750Y-147190000D02*
X357822250Y-147190000D01*
G75*
G02*
X358066000Y-147433750I0J-243750D01*
G01*
X358066000Y-147921250D01*
G75*
G02*
X357822250Y-148165000I-243750J0D01*
G01*
X356909750Y-148165000D01*
G75*
G02*
X356666000Y-147921250I0J243750D01*
G01*
X356666000Y-147433750D01*
G75*
G02*
X356909750Y-147190000I243750J0D01*
G01*
G37*
G36*
G01*
X356909750Y-145315000D02*
X357822250Y-145315000D01*
G75*
G02*
X358066000Y-145558750I0J-243750D01*
G01*
X358066000Y-146046250D01*
G75*
G02*
X357822250Y-146290000I-243750J0D01*
G01*
X356909750Y-146290000D01*
G75*
G02*
X356666000Y-146046250I0J243750D01*
G01*
X356666000Y-145558750D01*
G75*
G02*
X356909750Y-145315000I243750J0D01*
G01*
G37*
G36*
G01*
X359400250Y-147939500D02*
X358887750Y-147939500D01*
G75*
G02*
X358669000Y-147720750I0J218750D01*
G01*
X358669000Y-147283250D01*
G75*
G02*
X358887750Y-147064500I218750J0D01*
G01*
X359400250Y-147064500D01*
G75*
G02*
X359619000Y-147283250I0J-218750D01*
G01*
X359619000Y-147720750D01*
G75*
G02*
X359400250Y-147939500I-218750J0D01*
G01*
G37*
G36*
G01*
X359400250Y-149514500D02*
X358887750Y-149514500D01*
G75*
G02*
X358669000Y-149295750I0J218750D01*
G01*
X358669000Y-148858250D01*
G75*
G02*
X358887750Y-148639500I218750J0D01*
G01*
X359400250Y-148639500D01*
G75*
G02*
X359619000Y-148858250I0J-218750D01*
G01*
X359619000Y-149295750D01*
G75*
G02*
X359400250Y-149514500I-218750J0D01*
G01*
G37*
G36*
G01*
X357822250Y-149879000D02*
X356909750Y-149879000D01*
G75*
G02*
X356666000Y-149635250I0J243750D01*
G01*
X356666000Y-149147750D01*
G75*
G02*
X356909750Y-148904000I243750J0D01*
G01*
X357822250Y-148904000D01*
G75*
G02*
X358066000Y-149147750I0J-243750D01*
G01*
X358066000Y-149635250D01*
G75*
G02*
X357822250Y-149879000I-243750J0D01*
G01*
G37*
G36*
G01*
X357822250Y-151754000D02*
X356909750Y-151754000D01*
G75*
G02*
X356666000Y-151510250I0J243750D01*
G01*
X356666000Y-151022750D01*
G75*
G02*
X356909750Y-150779000I243750J0D01*
G01*
X357822250Y-150779000D01*
G75*
G02*
X358066000Y-151022750I0J-243750D01*
G01*
X358066000Y-151510250D01*
G75*
G02*
X357822250Y-151754000I-243750J0D01*
G01*
G37*
G36*
G01*
X367415750Y-150246000D02*
X367928250Y-150246000D01*
G75*
G02*
X368147000Y-150464750I0J-218750D01*
G01*
X368147000Y-150902250D01*
G75*
G02*
X367928250Y-151121000I-218750J0D01*
G01*
X367415750Y-151121000D01*
G75*
G02*
X367197000Y-150902250I0J218750D01*
G01*
X367197000Y-150464750D01*
G75*
G02*
X367415750Y-150246000I218750J0D01*
G01*
G37*
G36*
G01*
X367415750Y-148671000D02*
X367928250Y-148671000D01*
G75*
G02*
X368147000Y-148889750I0J-218750D01*
G01*
X368147000Y-149327250D01*
G75*
G02*
X367928250Y-149546000I-218750J0D01*
G01*
X367415750Y-149546000D01*
G75*
G02*
X367197000Y-149327250I0J218750D01*
G01*
X367197000Y-148889750D01*
G75*
G02*
X367415750Y-148671000I218750J0D01*
G01*
G37*
G36*
G01*
X410421000Y-180938250D02*
X410421000Y-180425750D01*
G75*
G02*
X410639750Y-180207000I218750J0D01*
G01*
X411077250Y-180207000D01*
G75*
G02*
X411296000Y-180425750I0J-218750D01*
G01*
X411296000Y-180938250D01*
G75*
G02*
X411077250Y-181157000I-218750J0D01*
G01*
X410639750Y-181157000D01*
G75*
G02*
X410421000Y-180938250I0J218750D01*
G01*
G37*
G36*
G01*
X408846000Y-180938250D02*
X408846000Y-180425750D01*
G75*
G02*
X409064750Y-180207000I218750J0D01*
G01*
X409502250Y-180207000D01*
G75*
G02*
X409721000Y-180425750I0J-218750D01*
G01*
X409721000Y-180938250D01*
G75*
G02*
X409502250Y-181157000I-218750J0D01*
G01*
X409064750Y-181157000D01*
G75*
G02*
X408846000Y-180938250I0J218750D01*
G01*
G37*
G36*
G01*
X373238750Y-182810000D02*
X373751250Y-182810000D01*
G75*
G02*
X373970000Y-183028750I0J-218750D01*
G01*
X373970000Y-183466250D01*
G75*
G02*
X373751250Y-183685000I-218750J0D01*
G01*
X373238750Y-183685000D01*
G75*
G02*
X373020000Y-183466250I0J218750D01*
G01*
X373020000Y-183028750D01*
G75*
G02*
X373238750Y-182810000I218750J0D01*
G01*
G37*
G36*
G01*
X373238750Y-181235000D02*
X373751250Y-181235000D01*
G75*
G02*
X373970000Y-181453750I0J-218750D01*
G01*
X373970000Y-181891250D01*
G75*
G02*
X373751250Y-182110000I-218750J0D01*
G01*
X373238750Y-182110000D01*
G75*
G02*
X373020000Y-181891250I0J218750D01*
G01*
X373020000Y-181453750D01*
G75*
G02*
X373238750Y-181235000I218750J0D01*
G01*
G37*
G36*
G01*
X363840750Y-182810000D02*
X364353250Y-182810000D01*
G75*
G02*
X364572000Y-183028750I0J-218750D01*
G01*
X364572000Y-183466250D01*
G75*
G02*
X364353250Y-183685000I-218750J0D01*
G01*
X363840750Y-183685000D01*
G75*
G02*
X363622000Y-183466250I0J218750D01*
G01*
X363622000Y-183028750D01*
G75*
G02*
X363840750Y-182810000I218750J0D01*
G01*
G37*
G36*
G01*
X363840750Y-181235000D02*
X364353250Y-181235000D01*
G75*
G02*
X364572000Y-181453750I0J-218750D01*
G01*
X364572000Y-181891250D01*
G75*
G02*
X364353250Y-182110000I-218750J0D01*
G01*
X363840750Y-182110000D01*
G75*
G02*
X363622000Y-181891250I0J218750D01*
G01*
X363622000Y-181453750D01*
G75*
G02*
X363840750Y-181235000I218750J0D01*
G01*
G37*
G36*
G01*
X351621000Y-176915750D02*
X351621000Y-177428250D01*
G75*
G02*
X351402250Y-177647000I-218750J0D01*
G01*
X350964750Y-177647000D01*
G75*
G02*
X350746000Y-177428250I0J218750D01*
G01*
X350746000Y-176915750D01*
G75*
G02*
X350964750Y-176697000I218750J0D01*
G01*
X351402250Y-176697000D01*
G75*
G02*
X351621000Y-176915750I0J-218750D01*
G01*
G37*
G36*
G01*
X353196000Y-176915750D02*
X353196000Y-177428250D01*
G75*
G02*
X352977250Y-177647000I-218750J0D01*
G01*
X352539750Y-177647000D01*
G75*
G02*
X352321000Y-177428250I0J218750D01*
G01*
X352321000Y-176915750D01*
G75*
G02*
X352539750Y-176697000I218750J0D01*
G01*
X352977250Y-176697000D01*
G75*
G02*
X353196000Y-176915750I0J-218750D01*
G01*
G37*
G36*
G01*
X351621000Y-175391750D02*
X351621000Y-175904250D01*
G75*
G02*
X351402250Y-176123000I-218750J0D01*
G01*
X350964750Y-176123000D01*
G75*
G02*
X350746000Y-175904250I0J218750D01*
G01*
X350746000Y-175391750D01*
G75*
G02*
X350964750Y-175173000I218750J0D01*
G01*
X351402250Y-175173000D01*
G75*
G02*
X351621000Y-175391750I0J-218750D01*
G01*
G37*
G36*
G01*
X353196000Y-175391750D02*
X353196000Y-175904250D01*
G75*
G02*
X352977250Y-176123000I-218750J0D01*
G01*
X352539750Y-176123000D01*
G75*
G02*
X352321000Y-175904250I0J218750D01*
G01*
X352321000Y-175391750D01*
G75*
G02*
X352539750Y-175173000I218750J0D01*
G01*
X352977250Y-175173000D01*
G75*
G02*
X353196000Y-175391750I0J-218750D01*
G01*
G37*
G36*
G01*
X385435250Y-159363000D02*
X384922750Y-159363000D01*
G75*
G02*
X384704000Y-159144250I0J218750D01*
G01*
X384704000Y-158706750D01*
G75*
G02*
X384922750Y-158488000I218750J0D01*
G01*
X385435250Y-158488000D01*
G75*
G02*
X385654000Y-158706750I0J-218750D01*
G01*
X385654000Y-159144250D01*
G75*
G02*
X385435250Y-159363000I-218750J0D01*
G01*
G37*
G36*
G01*
X385435250Y-160938000D02*
X384922750Y-160938000D01*
G75*
G02*
X384704000Y-160719250I0J218750D01*
G01*
X384704000Y-160281750D01*
G75*
G02*
X384922750Y-160063000I218750J0D01*
G01*
X385435250Y-160063000D01*
G75*
G02*
X385654000Y-160281750I0J-218750D01*
G01*
X385654000Y-160719250D01*
G75*
G02*
X385435250Y-160938000I-218750J0D01*
G01*
G37*
G36*
G01*
X391531250Y-159504000D02*
X391018750Y-159504000D01*
G75*
G02*
X390800000Y-159285250I0J218750D01*
G01*
X390800000Y-158847750D01*
G75*
G02*
X391018750Y-158629000I218750J0D01*
G01*
X391531250Y-158629000D01*
G75*
G02*
X391750000Y-158847750I0J-218750D01*
G01*
X391750000Y-159285250D01*
G75*
G02*
X391531250Y-159504000I-218750J0D01*
G01*
G37*
G36*
G01*
X391531250Y-161079000D02*
X391018750Y-161079000D01*
G75*
G02*
X390800000Y-160860250I0J218750D01*
G01*
X390800000Y-160422750D01*
G75*
G02*
X391018750Y-160204000I218750J0D01*
G01*
X391531250Y-160204000D01*
G75*
G02*
X391750000Y-160422750I0J-218750D01*
G01*
X391750000Y-160860250D01*
G75*
G02*
X391531250Y-161079000I-218750J0D01*
G01*
G37*
G36*
G01*
X391531250Y-155821000D02*
X391018750Y-155821000D01*
G75*
G02*
X390800000Y-155602250I0J218750D01*
G01*
X390800000Y-155164750D01*
G75*
G02*
X391018750Y-154946000I218750J0D01*
G01*
X391531250Y-154946000D01*
G75*
G02*
X391750000Y-155164750I0J-218750D01*
G01*
X391750000Y-155602250D01*
G75*
G02*
X391531250Y-155821000I-218750J0D01*
G01*
G37*
G36*
G01*
X391531250Y-157396000D02*
X391018750Y-157396000D01*
G75*
G02*
X390800000Y-157177250I0J218750D01*
G01*
X390800000Y-156739750D01*
G75*
G02*
X391018750Y-156521000I218750J0D01*
G01*
X391531250Y-156521000D01*
G75*
G02*
X391750000Y-156739750I0J-218750D01*
G01*
X391750000Y-157177250D01*
G75*
G02*
X391531250Y-157396000I-218750J0D01*
G01*
G37*
G36*
G01*
X385435250Y-155807000D02*
X384922750Y-155807000D01*
G75*
G02*
X384704000Y-155588250I0J218750D01*
G01*
X384704000Y-155150750D01*
G75*
G02*
X384922750Y-154932000I218750J0D01*
G01*
X385435250Y-154932000D01*
G75*
G02*
X385654000Y-155150750I0J-218750D01*
G01*
X385654000Y-155588250D01*
G75*
G02*
X385435250Y-155807000I-218750J0D01*
G01*
G37*
G36*
G01*
X385435250Y-157382000D02*
X384922750Y-157382000D01*
G75*
G02*
X384704000Y-157163250I0J218750D01*
G01*
X384704000Y-156725750D01*
G75*
G02*
X384922750Y-156507000I218750J0D01*
G01*
X385435250Y-156507000D01*
G75*
G02*
X385654000Y-156725750I0J-218750D01*
G01*
X385654000Y-157163250D01*
G75*
G02*
X385435250Y-157382000I-218750J0D01*
G01*
G37*
G36*
G01*
X393055250Y-159504000D02*
X392542750Y-159504000D01*
G75*
G02*
X392324000Y-159285250I0J218750D01*
G01*
X392324000Y-158847750D01*
G75*
G02*
X392542750Y-158629000I218750J0D01*
G01*
X393055250Y-158629000D01*
G75*
G02*
X393274000Y-158847750I0J-218750D01*
G01*
X393274000Y-159285250D01*
G75*
G02*
X393055250Y-159504000I-218750J0D01*
G01*
G37*
G36*
G01*
X393055250Y-161079000D02*
X392542750Y-161079000D01*
G75*
G02*
X392324000Y-160860250I0J218750D01*
G01*
X392324000Y-160422750D01*
G75*
G02*
X392542750Y-160204000I218750J0D01*
G01*
X393055250Y-160204000D01*
G75*
G02*
X393274000Y-160422750I0J-218750D01*
G01*
X393274000Y-160860250D01*
G75*
G02*
X393055250Y-161079000I-218750J0D01*
G01*
G37*
G36*
G01*
X396520000Y-164076250D02*
X396520000Y-163563750D01*
G75*
G02*
X396738750Y-163345000I218750J0D01*
G01*
X397176250Y-163345000D01*
G75*
G02*
X397395000Y-163563750I0J-218750D01*
G01*
X397395000Y-164076250D01*
G75*
G02*
X397176250Y-164295000I-218750J0D01*
G01*
X396738750Y-164295000D01*
G75*
G02*
X396520000Y-164076250I0J218750D01*
G01*
G37*
G36*
G01*
X394945000Y-164076250D02*
X394945000Y-163563750D01*
G75*
G02*
X395163750Y-163345000I218750J0D01*
G01*
X395601250Y-163345000D01*
G75*
G02*
X395820000Y-163563750I0J-218750D01*
G01*
X395820000Y-164076250D01*
G75*
G02*
X395601250Y-164295000I-218750J0D01*
G01*
X395163750Y-164295000D01*
G75*
G02*
X394945000Y-164076250I0J218750D01*
G01*
G37*
G36*
G01*
X386573750Y-141930000D02*
X387086250Y-141930000D01*
G75*
G02*
X387305000Y-142148750I0J-218750D01*
G01*
X387305000Y-142586250D01*
G75*
G02*
X387086250Y-142805000I-218750J0D01*
G01*
X386573750Y-142805000D01*
G75*
G02*
X386355000Y-142586250I0J218750D01*
G01*
X386355000Y-142148750D01*
G75*
G02*
X386573750Y-141930000I218750J0D01*
G01*
G37*
G36*
G01*
X386573750Y-140355000D02*
X387086250Y-140355000D01*
G75*
G02*
X387305000Y-140573750I0J-218750D01*
G01*
X387305000Y-141011250D01*
G75*
G02*
X387086250Y-141230000I-218750J0D01*
G01*
X386573750Y-141230000D01*
G75*
G02*
X386355000Y-141011250I0J218750D01*
G01*
X386355000Y-140573750D01*
G75*
G02*
X386573750Y-140355000I218750J0D01*
G01*
G37*
G36*
G01*
X390642250Y-148850000D02*
X390129750Y-148850000D01*
G75*
G02*
X389911000Y-148631250I0J218750D01*
G01*
X389911000Y-148193750D01*
G75*
G02*
X390129750Y-147975000I218750J0D01*
G01*
X390642250Y-147975000D01*
G75*
G02*
X390861000Y-148193750I0J-218750D01*
G01*
X390861000Y-148631250D01*
G75*
G02*
X390642250Y-148850000I-218750J0D01*
G01*
G37*
G36*
G01*
X390642250Y-150425000D02*
X390129750Y-150425000D01*
G75*
G02*
X389911000Y-150206250I0J218750D01*
G01*
X389911000Y-149768750D01*
G75*
G02*
X390129750Y-149550000I218750J0D01*
G01*
X390642250Y-149550000D01*
G75*
G02*
X390861000Y-149768750I0J-218750D01*
G01*
X390861000Y-150206250D01*
G75*
G02*
X390642250Y-150425000I-218750J0D01*
G01*
G37*
G36*
G01*
X388864250Y-141230000D02*
X388351750Y-141230000D01*
G75*
G02*
X388133000Y-141011250I0J218750D01*
G01*
X388133000Y-140573750D01*
G75*
G02*
X388351750Y-140355000I218750J0D01*
G01*
X388864250Y-140355000D01*
G75*
G02*
X389083000Y-140573750I0J-218750D01*
G01*
X389083000Y-141011250D01*
G75*
G02*
X388864250Y-141230000I-218750J0D01*
G01*
G37*
G36*
G01*
X388864250Y-142805000D02*
X388351750Y-142805000D01*
G75*
G02*
X388133000Y-142586250I0J218750D01*
G01*
X388133000Y-142148750D01*
G75*
G02*
X388351750Y-141930000I218750J0D01*
G01*
X388864250Y-141930000D01*
G75*
G02*
X389083000Y-142148750I0J-218750D01*
G01*
X389083000Y-142586250D01*
G75*
G02*
X388864250Y-142805000I-218750J0D01*
G01*
G37*
G36*
G01*
X384153000Y-139281000D02*
X382903000Y-139281000D01*
G75*
G02*
X382653000Y-139031000I0J250000D01*
G01*
X382653000Y-138281000D01*
G75*
G02*
X382903000Y-138031000I250000J0D01*
G01*
X384153000Y-138031000D01*
G75*
G02*
X384403000Y-138281000I0J-250000D01*
G01*
X384403000Y-139031000D01*
G75*
G02*
X384153000Y-139281000I-250000J0D01*
G01*
G37*
G36*
G01*
X384153000Y-142081000D02*
X382903000Y-142081000D01*
G75*
G02*
X382653000Y-141831000I0J250000D01*
G01*
X382653000Y-141081000D01*
G75*
G02*
X382903000Y-140831000I250000J0D01*
G01*
X384153000Y-140831000D01*
G75*
G02*
X384403000Y-141081000I0J-250000D01*
G01*
X384403000Y-141831000D01*
G75*
G02*
X384153000Y-142081000I-250000J0D01*
G01*
G37*
G36*
G01*
X393043000Y-146901000D02*
X391793000Y-146901000D01*
G75*
G02*
X391543000Y-146651000I0J250000D01*
G01*
X391543000Y-145901000D01*
G75*
G02*
X391793000Y-145651000I250000J0D01*
G01*
X393043000Y-145651000D01*
G75*
G02*
X393293000Y-145901000I0J-250000D01*
G01*
X393293000Y-146651000D01*
G75*
G02*
X393043000Y-146901000I-250000J0D01*
G01*
G37*
G36*
G01*
X393043000Y-149701000D02*
X391793000Y-149701000D01*
G75*
G02*
X391543000Y-149451000I0J250000D01*
G01*
X391543000Y-148701000D01*
G75*
G02*
X391793000Y-148451000I250000J0D01*
G01*
X393043000Y-148451000D01*
G75*
G02*
X393293000Y-148701000I0J-250000D01*
G01*
X393293000Y-149451000D01*
G75*
G02*
X393043000Y-149701000I-250000J0D01*
G01*
G37*
G36*
G01*
X402990000Y-176662750D02*
X402990000Y-177175250D01*
G75*
G02*
X402771250Y-177394000I-218750J0D01*
G01*
X402333750Y-177394000D01*
G75*
G02*
X402115000Y-177175250I0J218750D01*
G01*
X402115000Y-176662750D01*
G75*
G02*
X402333750Y-176444000I218750J0D01*
G01*
X402771250Y-176444000D01*
G75*
G02*
X402990000Y-176662750I0J-218750D01*
G01*
G37*
G36*
G01*
X404565000Y-176662750D02*
X404565000Y-177175250D01*
G75*
G02*
X404346250Y-177394000I-218750J0D01*
G01*
X403908750Y-177394000D01*
G75*
G02*
X403690000Y-177175250I0J218750D01*
G01*
X403690000Y-176662750D01*
G75*
G02*
X403908750Y-176444000I218750J0D01*
G01*
X404346250Y-176444000D01*
G75*
G02*
X404565000Y-176662750I0J-218750D01*
G01*
G37*
G36*
G01*
X402990000Y-175138750D02*
X402990000Y-175651250D01*
G75*
G02*
X402771250Y-175870000I-218750J0D01*
G01*
X402333750Y-175870000D01*
G75*
G02*
X402115000Y-175651250I0J218750D01*
G01*
X402115000Y-175138750D01*
G75*
G02*
X402333750Y-174920000I218750J0D01*
G01*
X402771250Y-174920000D01*
G75*
G02*
X402990000Y-175138750I0J-218750D01*
G01*
G37*
G36*
G01*
X404565000Y-175138750D02*
X404565000Y-175651250D01*
G75*
G02*
X404346250Y-175870000I-218750J0D01*
G01*
X403908750Y-175870000D01*
G75*
G02*
X403690000Y-175651250I0J218750D01*
G01*
X403690000Y-175138750D01*
G75*
G02*
X403908750Y-174920000I218750J0D01*
G01*
X404346250Y-174920000D01*
G75*
G02*
X404565000Y-175138750I0J-218750D01*
G01*
G37*
G36*
G01*
X409433750Y-172205000D02*
X409946250Y-172205000D01*
G75*
G02*
X410165000Y-172423750I0J-218750D01*
G01*
X410165000Y-172861250D01*
G75*
G02*
X409946250Y-173080000I-218750J0D01*
G01*
X409433750Y-173080000D01*
G75*
G02*
X409215000Y-172861250I0J218750D01*
G01*
X409215000Y-172423750D01*
G75*
G02*
X409433750Y-172205000I218750J0D01*
G01*
G37*
G36*
G01*
X409433750Y-170630000D02*
X409946250Y-170630000D01*
G75*
G02*
X410165000Y-170848750I0J-218750D01*
G01*
X410165000Y-171286250D01*
G75*
G02*
X409946250Y-171505000I-218750J0D01*
G01*
X409433750Y-171505000D01*
G75*
G02*
X409215000Y-171286250I0J218750D01*
G01*
X409215000Y-170848750D01*
G75*
G02*
X409433750Y-170630000I218750J0D01*
G01*
G37*
G36*
G01*
X405882250Y-175760000D02*
X405369750Y-175760000D01*
G75*
G02*
X405151000Y-175541250I0J218750D01*
G01*
X405151000Y-175103750D01*
G75*
G02*
X405369750Y-174885000I218750J0D01*
G01*
X405882250Y-174885000D01*
G75*
G02*
X406101000Y-175103750I0J-218750D01*
G01*
X406101000Y-175541250D01*
G75*
G02*
X405882250Y-175760000I-218750J0D01*
G01*
G37*
G36*
G01*
X405882250Y-177335000D02*
X405369750Y-177335000D01*
G75*
G02*
X405151000Y-177116250I0J218750D01*
G01*
X405151000Y-176678750D01*
G75*
G02*
X405369750Y-176460000I218750J0D01*
G01*
X405882250Y-176460000D01*
G75*
G02*
X406101000Y-176678750I0J-218750D01*
G01*
X406101000Y-177116250D01*
G75*
G02*
X405882250Y-177335000I-218750J0D01*
G01*
G37*
G36*
G01*
X412686250Y-174262000D02*
X411773750Y-174262000D01*
G75*
G02*
X411530000Y-174018250I0J243750D01*
G01*
X411530000Y-173530750D01*
G75*
G02*
X411773750Y-173287000I243750J0D01*
G01*
X412686250Y-173287000D01*
G75*
G02*
X412930000Y-173530750I0J-243750D01*
G01*
X412930000Y-174018250D01*
G75*
G02*
X412686250Y-174262000I-243750J0D01*
G01*
G37*
G36*
G01*
X412686250Y-176137000D02*
X411773750Y-176137000D01*
G75*
G02*
X411530000Y-175893250I0J243750D01*
G01*
X411530000Y-175405750D01*
G75*
G02*
X411773750Y-175162000I243750J0D01*
G01*
X412686250Y-175162000D01*
G75*
G02*
X412930000Y-175405750I0J-243750D01*
G01*
X412930000Y-175893250D01*
G75*
G02*
X412686250Y-176137000I-243750J0D01*
G01*
G37*
M02*
