G04 #@! TF.GenerationSoftware,KiCad,Pcbnew,(5.1.9)-1*
G04 #@! TF.CreationDate,2021-04-10T14:09:46+02:00*
G04 #@! TF.ProjectId,musical-box,6d757369-6361-46c2-9d62-6f782e6b6963,rev?*
G04 #@! TF.SameCoordinates,Original*
G04 #@! TF.FileFunction,Soldermask,Bot*
G04 #@! TF.FilePolarity,Negative*
%FSLAX46Y46*%
G04 Gerber Fmt 4.6, Leading zero omitted, Abs format (unit mm)*
G04 Created by KiCad (PCBNEW (5.1.9)-1) date 2021-04-10 14:09:46*
%MOMM*%
%LPD*%
G01*
G04 APERTURE LIST*
%ADD10C,0.010000*%
%ADD11R,0.800000X0.900000*%
%ADD12C,0.800000*%
%ADD13C,0.990600*%
%ADD14R,0.300000X0.300000*%
%ADD15C,1.800000*%
%ADD16C,0.600000*%
%ADD17C,3.000000*%
%ADD18R,3.000000X3.000000*%
%ADD19O,1.700000X0.900000*%
%ADD20O,2.400000X0.900000*%
%ADD21C,0.700000*%
%ADD22R,1.000000X0.750000*%
%ADD23R,1.500000X1.000000*%
%ADD24C,3.200000*%
%ADD25R,1.060000X0.650000*%
%ADD26R,0.250000X0.750000*%
%ADD27R,1.300000X0.250000*%
%ADD28C,1.000000*%
%ADD29R,5.700000X1.600000*%
%ADD30R,1.800000X4.400000*%
%ADD31O,1.800000X4.000000*%
%ADD32O,4.000000X1.800000*%
%ADD33C,2.000000*%
G04 APERTURE END LIST*
D10*
G36*
X403893000Y-141826000D02*
G01*
X403893000Y-137066000D01*
X403468000Y-137066000D01*
X403468000Y-136571000D01*
X402363000Y-136571000D01*
X402363000Y-137066000D01*
X399163000Y-137066000D01*
X399163000Y-138016000D01*
X399638000Y-138016000D01*
X399638000Y-140876000D01*
X399163000Y-140876000D01*
X399163000Y-141826000D01*
X402363000Y-141826000D01*
X402363000Y-142321000D01*
X403468000Y-142321000D01*
X403468000Y-141826000D01*
X403893000Y-141826000D01*
G37*
X403893000Y-141826000D02*
X403893000Y-137066000D01*
X403468000Y-137066000D01*
X403468000Y-136571000D01*
X402363000Y-136571000D01*
X402363000Y-137066000D01*
X399163000Y-137066000D01*
X399163000Y-138016000D01*
X399638000Y-138016000D01*
X399638000Y-140876000D01*
X399163000Y-140876000D01*
X399163000Y-141826000D01*
X402363000Y-141826000D01*
X402363000Y-142321000D01*
X403468000Y-142321000D01*
X403468000Y-141826000D01*
X403893000Y-141826000D01*
G36*
G01*
X383369000Y-144759000D02*
X383369000Y-145309000D01*
G75*
G02*
X383169000Y-145509000I-200000J0D01*
G01*
X382769000Y-145509000D01*
G75*
G02*
X382569000Y-145309000I0J200000D01*
G01*
X382569000Y-144759000D01*
G75*
G02*
X382769000Y-144559000I200000J0D01*
G01*
X383169000Y-144559000D01*
G75*
G02*
X383369000Y-144759000I0J-200000D01*
G01*
G37*
G36*
G01*
X385019000Y-144759000D02*
X385019000Y-145309000D01*
G75*
G02*
X384819000Y-145509000I-200000J0D01*
G01*
X384419000Y-145509000D01*
G75*
G02*
X384219000Y-145309000I0J200000D01*
G01*
X384219000Y-144759000D01*
G75*
G02*
X384419000Y-144559000I200000J0D01*
G01*
X384819000Y-144559000D01*
G75*
G02*
X385019000Y-144759000I0J-200000D01*
G01*
G37*
D11*
X369570000Y-163433000D03*
X370520000Y-161433000D03*
X368620000Y-161433000D03*
X373126000Y-163433000D03*
X374076000Y-161433000D03*
X372176000Y-161433000D03*
D12*
X357567000Y-166304000D03*
X360167000Y-166304000D03*
X358867000Y-166304000D03*
X356267000Y-166304000D03*
X358867000Y-165004000D03*
X357567000Y-165004000D03*
X360167000Y-165004000D03*
X356267000Y-165004000D03*
X357567000Y-167604000D03*
X360167000Y-167604000D03*
X358867000Y-167604000D03*
X356267000Y-167604000D03*
X360167000Y-168904000D03*
X358867000Y-168904000D03*
X357567000Y-168904000D03*
X356267000Y-168904000D03*
D13*
X378079000Y-157226000D03*
X377063000Y-162306000D03*
X379095000Y-162306000D03*
G36*
G01*
X384003000Y-139606000D02*
X383053000Y-139606000D01*
G75*
G02*
X382803000Y-139356000I0J250000D01*
G01*
X382803000Y-138856000D01*
G75*
G02*
X383053000Y-138606000I250000J0D01*
G01*
X384003000Y-138606000D01*
G75*
G02*
X384253000Y-138856000I0J-250000D01*
G01*
X384253000Y-139356000D01*
G75*
G02*
X384003000Y-139606000I-250000J0D01*
G01*
G37*
G36*
G01*
X384003000Y-141506000D02*
X383053000Y-141506000D01*
G75*
G02*
X382803000Y-141256000I0J250000D01*
G01*
X382803000Y-140756000D01*
G75*
G02*
X383053000Y-140506000I250000J0D01*
G01*
X384003000Y-140506000D01*
G75*
G02*
X384253000Y-140756000I0J-250000D01*
G01*
X384253000Y-141256000D01*
G75*
G02*
X384003000Y-141506000I-250000J0D01*
G01*
G37*
G36*
G01*
X392893000Y-147226000D02*
X391943000Y-147226000D01*
G75*
G02*
X391693000Y-146976000I0J250000D01*
G01*
X391693000Y-146476000D01*
G75*
G02*
X391943000Y-146226000I250000J0D01*
G01*
X392893000Y-146226000D01*
G75*
G02*
X393143000Y-146476000I0J-250000D01*
G01*
X393143000Y-146976000D01*
G75*
G02*
X392893000Y-147226000I-250000J0D01*
G01*
G37*
G36*
G01*
X392893000Y-149126000D02*
X391943000Y-149126000D01*
G75*
G02*
X391693000Y-148876000I0J250000D01*
G01*
X391693000Y-148376000D01*
G75*
G02*
X391943000Y-148126000I250000J0D01*
G01*
X392893000Y-148126000D01*
G75*
G02*
X393143000Y-148376000I0J-250000D01*
G01*
X393143000Y-148876000D01*
G75*
G02*
X392893000Y-149126000I-250000J0D01*
G01*
G37*
D14*
X411651000Y-168910000D03*
X410801000Y-168560000D03*
X410801000Y-169260000D03*
G36*
G01*
X411482250Y-170909500D02*
X410969750Y-170909500D01*
G75*
G02*
X410751000Y-170690750I0J218750D01*
G01*
X410751000Y-170253250D01*
G75*
G02*
X410969750Y-170034500I218750J0D01*
G01*
X411482250Y-170034500D01*
G75*
G02*
X411701000Y-170253250I0J-218750D01*
G01*
X411701000Y-170690750D01*
G75*
G02*
X411482250Y-170909500I-218750J0D01*
G01*
G37*
G36*
G01*
X411482250Y-172484500D02*
X410969750Y-172484500D01*
G75*
G02*
X410751000Y-172265750I0J218750D01*
G01*
X410751000Y-171828250D01*
G75*
G02*
X410969750Y-171609500I218750J0D01*
G01*
X411482250Y-171609500D01*
G75*
G02*
X411701000Y-171828250I0J-218750D01*
G01*
X411701000Y-172265750D01*
G75*
G02*
X411482250Y-172484500I-218750J0D01*
G01*
G37*
G36*
G01*
X417989500Y-169928250D02*
X417989500Y-169415750D01*
G75*
G02*
X418208250Y-169197000I218750J0D01*
G01*
X418645750Y-169197000D01*
G75*
G02*
X418864500Y-169415750I0J-218750D01*
G01*
X418864500Y-169928250D01*
G75*
G02*
X418645750Y-170147000I-218750J0D01*
G01*
X418208250Y-170147000D01*
G75*
G02*
X417989500Y-169928250I0J218750D01*
G01*
G37*
G36*
G01*
X416414500Y-169928250D02*
X416414500Y-169415750D01*
G75*
G02*
X416633250Y-169197000I218750J0D01*
G01*
X417070750Y-169197000D01*
G75*
G02*
X417289500Y-169415750I0J-218750D01*
G01*
X417289500Y-169928250D01*
G75*
G02*
X417070750Y-170147000I-218750J0D01*
G01*
X416633250Y-170147000D01*
G75*
G02*
X416414500Y-169928250I0J218750D01*
G01*
G37*
G36*
G01*
X376534000Y-134029000D02*
X377084000Y-134029000D01*
G75*
G02*
X377284000Y-134229000I0J-200000D01*
G01*
X377284000Y-134629000D01*
G75*
G02*
X377084000Y-134829000I-200000J0D01*
G01*
X376534000Y-134829000D01*
G75*
G02*
X376334000Y-134629000I0J200000D01*
G01*
X376334000Y-134229000D01*
G75*
G02*
X376534000Y-134029000I200000J0D01*
G01*
G37*
G36*
G01*
X376534000Y-132379000D02*
X377084000Y-132379000D01*
G75*
G02*
X377284000Y-132579000I0J-200000D01*
G01*
X377284000Y-132979000D01*
G75*
G02*
X377084000Y-133179000I-200000J0D01*
G01*
X376534000Y-133179000D01*
G75*
G02*
X376334000Y-132979000I0J200000D01*
G01*
X376334000Y-132579000D01*
G75*
G02*
X376534000Y-132379000I200000J0D01*
G01*
G37*
G36*
G01*
X373493000Y-134065000D02*
X374043000Y-134065000D01*
G75*
G02*
X374243000Y-134265000I0J-200000D01*
G01*
X374243000Y-134665000D01*
G75*
G02*
X374043000Y-134865000I-200000J0D01*
G01*
X373493000Y-134865000D01*
G75*
G02*
X373293000Y-134665000I0J200000D01*
G01*
X373293000Y-134265000D01*
G75*
G02*
X373493000Y-134065000I200000J0D01*
G01*
G37*
G36*
G01*
X373493000Y-132415000D02*
X374043000Y-132415000D01*
G75*
G02*
X374243000Y-132615000I0J-200000D01*
G01*
X374243000Y-133015000D01*
G75*
G02*
X374043000Y-133215000I-200000J0D01*
G01*
X373493000Y-133215000D01*
G75*
G02*
X373293000Y-133015000I0J200000D01*
G01*
X373293000Y-132615000D01*
G75*
G02*
X373493000Y-132415000I200000J0D01*
G01*
G37*
D15*
X408451600Y-160000000D03*
X415451600Y-160000000D03*
X408451600Y-149000000D03*
X415451600Y-149000000D03*
D16*
X379115800Y-141196500D03*
X379115800Y-142496500D03*
X379115800Y-139896500D03*
X377815800Y-141196500D03*
X377815800Y-142496500D03*
X377815800Y-139896500D03*
X376515800Y-141196500D03*
X376515800Y-142496500D03*
X376515800Y-139896500D03*
X375215800Y-141196500D03*
X375215800Y-142496500D03*
X375215800Y-139896500D03*
X373915800Y-141196500D03*
X373915800Y-142496500D03*
X373915800Y-139896500D03*
X372615800Y-141196500D03*
X372615800Y-142496500D03*
X372615800Y-139896500D03*
X371315800Y-142496500D03*
X371315800Y-141196500D03*
X371315800Y-139896500D03*
D17*
X398260000Y-129120000D03*
D18*
X393180000Y-129120000D03*
G36*
G01*
X392715000Y-163555000D02*
X392715000Y-164105000D01*
G75*
G02*
X392515000Y-164305000I-200000J0D01*
G01*
X392115000Y-164305000D01*
G75*
G02*
X391915000Y-164105000I0J200000D01*
G01*
X391915000Y-163555000D01*
G75*
G02*
X392115000Y-163355000I200000J0D01*
G01*
X392515000Y-163355000D01*
G75*
G02*
X392715000Y-163555000I0J-200000D01*
G01*
G37*
G36*
G01*
X394365000Y-163555000D02*
X394365000Y-164105000D01*
G75*
G02*
X394165000Y-164305000I-200000J0D01*
G01*
X393765000Y-164305000D01*
G75*
G02*
X393565000Y-164105000I0J200000D01*
G01*
X393565000Y-163555000D01*
G75*
G02*
X393765000Y-163355000I200000J0D01*
G01*
X394165000Y-163355000D01*
G75*
G02*
X394365000Y-163555000I0J-200000D01*
G01*
G37*
G36*
G01*
X414410000Y-145078000D02*
X413860000Y-145078000D01*
G75*
G02*
X413660000Y-144878000I0J200000D01*
G01*
X413660000Y-144478000D01*
G75*
G02*
X413860000Y-144278000I200000J0D01*
G01*
X414410000Y-144278000D01*
G75*
G02*
X414610000Y-144478000I0J-200000D01*
G01*
X414610000Y-144878000D01*
G75*
G02*
X414410000Y-145078000I-200000J0D01*
G01*
G37*
G36*
G01*
X414410000Y-146728000D02*
X413860000Y-146728000D01*
G75*
G02*
X413660000Y-146528000I0J200000D01*
G01*
X413660000Y-146128000D01*
G75*
G02*
X413860000Y-145928000I200000J0D01*
G01*
X414410000Y-145928000D01*
G75*
G02*
X414610000Y-146128000I0J-200000D01*
G01*
X414610000Y-146528000D01*
G75*
G02*
X414410000Y-146728000I-200000J0D01*
G01*
G37*
G36*
G01*
X405882250Y-180840000D02*
X405369750Y-180840000D01*
G75*
G02*
X405151000Y-180621250I0J218750D01*
G01*
X405151000Y-180183750D01*
G75*
G02*
X405369750Y-179965000I218750J0D01*
G01*
X405882250Y-179965000D01*
G75*
G02*
X406101000Y-180183750I0J-218750D01*
G01*
X406101000Y-180621250D01*
G75*
G02*
X405882250Y-180840000I-218750J0D01*
G01*
G37*
G36*
G01*
X405882250Y-182415000D02*
X405369750Y-182415000D01*
G75*
G02*
X405151000Y-182196250I0J218750D01*
G01*
X405151000Y-181758750D01*
G75*
G02*
X405369750Y-181540000I218750J0D01*
G01*
X405882250Y-181540000D01*
G75*
G02*
X406101000Y-181758750I0J-218750D01*
G01*
X406101000Y-182196250D01*
G75*
G02*
X405882250Y-182415000I-218750J0D01*
G01*
G37*
D19*
X418380000Y-166700000D03*
X418380000Y-175350000D03*
D20*
X415000000Y-166700000D03*
X415000000Y-175350000D03*
D21*
X415370000Y-170600000D03*
X415370000Y-168050000D03*
X415370000Y-168900000D03*
X415370000Y-169750000D03*
X415370000Y-174000000D03*
X415370000Y-172300000D03*
X415370000Y-171450000D03*
X415370000Y-173150000D03*
X414020000Y-168050000D03*
X414020000Y-168900000D03*
X414020000Y-169750000D03*
X414020000Y-170600000D03*
X414020000Y-171450000D03*
X414020000Y-172300000D03*
X414020000Y-173150000D03*
X414020000Y-174000000D03*
D17*
X354000000Y-135760000D03*
D18*
X354000000Y-151000000D03*
D17*
X354000000Y-140840000D03*
X354000000Y-145920000D03*
G36*
G01*
X380892000Y-182711750D02*
X380892000Y-183224250D01*
G75*
G02*
X380673250Y-183443000I-218750J0D01*
G01*
X380235750Y-183443000D01*
G75*
G02*
X380017000Y-183224250I0J218750D01*
G01*
X380017000Y-182711750D01*
G75*
G02*
X380235750Y-182493000I218750J0D01*
G01*
X380673250Y-182493000D01*
G75*
G02*
X380892000Y-182711750I0J-218750D01*
G01*
G37*
G36*
G01*
X382467000Y-182711750D02*
X382467000Y-183224250D01*
G75*
G02*
X382248250Y-183443000I-218750J0D01*
G01*
X381810750Y-183443000D01*
G75*
G02*
X381592000Y-183224250I0J218750D01*
G01*
X381592000Y-182711750D01*
G75*
G02*
X381810750Y-182493000I218750J0D01*
G01*
X382248250Y-182493000D01*
G75*
G02*
X382467000Y-182711750I0J-218750D01*
G01*
G37*
G36*
G01*
X380892000Y-181187750D02*
X380892000Y-181700250D01*
G75*
G02*
X380673250Y-181919000I-218750J0D01*
G01*
X380235750Y-181919000D01*
G75*
G02*
X380017000Y-181700250I0J218750D01*
G01*
X380017000Y-181187750D01*
G75*
G02*
X380235750Y-180969000I218750J0D01*
G01*
X380673250Y-180969000D01*
G75*
G02*
X380892000Y-181187750I0J-218750D01*
G01*
G37*
G36*
G01*
X382467000Y-181187750D02*
X382467000Y-181700250D01*
G75*
G02*
X382248250Y-181919000I-218750J0D01*
G01*
X381810750Y-181919000D01*
G75*
G02*
X381592000Y-181700250I0J218750D01*
G01*
X381592000Y-181187750D01*
G75*
G02*
X381810750Y-180969000I218750J0D01*
G01*
X382248250Y-180969000D01*
G75*
G02*
X382467000Y-181187750I0J-218750D01*
G01*
G37*
G36*
G01*
X387206250Y-173667000D02*
X386693750Y-173667000D01*
G75*
G02*
X386475000Y-173448250I0J218750D01*
G01*
X386475000Y-173010750D01*
G75*
G02*
X386693750Y-172792000I218750J0D01*
G01*
X387206250Y-172792000D01*
G75*
G02*
X387425000Y-173010750I0J-218750D01*
G01*
X387425000Y-173448250D01*
G75*
G02*
X387206250Y-173667000I-218750J0D01*
G01*
G37*
G36*
G01*
X387206250Y-175242000D02*
X386693750Y-175242000D01*
G75*
G02*
X386475000Y-175023250I0J218750D01*
G01*
X386475000Y-174585750D01*
G75*
G02*
X386693750Y-174367000I218750J0D01*
G01*
X387206250Y-174367000D01*
G75*
G02*
X387425000Y-174585750I0J-218750D01*
G01*
X387425000Y-175023250D01*
G75*
G02*
X387206250Y-175242000I-218750J0D01*
G01*
G37*
G36*
G01*
X362316750Y-182810000D02*
X362829250Y-182810000D01*
G75*
G02*
X363048000Y-183028750I0J-218750D01*
G01*
X363048000Y-183466250D01*
G75*
G02*
X362829250Y-183685000I-218750J0D01*
G01*
X362316750Y-183685000D01*
G75*
G02*
X362098000Y-183466250I0J218750D01*
G01*
X362098000Y-183028750D01*
G75*
G02*
X362316750Y-182810000I218750J0D01*
G01*
G37*
G36*
G01*
X362316750Y-181235000D02*
X362829250Y-181235000D01*
G75*
G02*
X363048000Y-181453750I0J-218750D01*
G01*
X363048000Y-181891250D01*
G75*
G02*
X362829250Y-182110000I-218750J0D01*
G01*
X362316750Y-182110000D01*
G75*
G02*
X362098000Y-181891250I0J218750D01*
G01*
X362098000Y-181453750D01*
G75*
G02*
X362316750Y-181235000I218750J0D01*
G01*
G37*
G36*
G01*
X402834250Y-182110000D02*
X402321750Y-182110000D01*
G75*
G02*
X402103000Y-181891250I0J218750D01*
G01*
X402103000Y-181453750D01*
G75*
G02*
X402321750Y-181235000I218750J0D01*
G01*
X402834250Y-181235000D01*
G75*
G02*
X403053000Y-181453750I0J-218750D01*
G01*
X403053000Y-181891250D01*
G75*
G02*
X402834250Y-182110000I-218750J0D01*
G01*
G37*
G36*
G01*
X402834250Y-183685000D02*
X402321750Y-183685000D01*
G75*
G02*
X402103000Y-183466250I0J218750D01*
G01*
X402103000Y-183028750D01*
G75*
G02*
X402321750Y-182810000I218750J0D01*
G01*
X402834250Y-182810000D01*
G75*
G02*
X403053000Y-183028750I0J-218750D01*
G01*
X403053000Y-183466250D01*
G75*
G02*
X402834250Y-183685000I-218750J0D01*
G01*
G37*
G36*
G01*
X414391250Y-156138500D02*
X413878750Y-156138500D01*
G75*
G02*
X413660000Y-155919750I0J218750D01*
G01*
X413660000Y-155482250D01*
G75*
G02*
X413878750Y-155263500I218750J0D01*
G01*
X414391250Y-155263500D01*
G75*
G02*
X414610000Y-155482250I0J-218750D01*
G01*
X414610000Y-155919750D01*
G75*
G02*
X414391250Y-156138500I-218750J0D01*
G01*
G37*
G36*
G01*
X414391250Y-157713500D02*
X413878750Y-157713500D01*
G75*
G02*
X413660000Y-157494750I0J218750D01*
G01*
X413660000Y-157057250D01*
G75*
G02*
X413878750Y-156838500I218750J0D01*
G01*
X414391250Y-156838500D01*
G75*
G02*
X414610000Y-157057250I0J-218750D01*
G01*
X414610000Y-157494750D01*
G75*
G02*
X414391250Y-157713500I-218750J0D01*
G01*
G37*
D22*
X405258000Y-137541000D03*
X405258000Y-141351000D03*
X405258000Y-138811000D03*
X405258000Y-140081000D03*
G36*
G01*
X370336000Y-167965000D02*
X370836000Y-167965000D01*
G75*
G02*
X371061000Y-168190000I0J-225000D01*
G01*
X371061000Y-168640000D01*
G75*
G02*
X370836000Y-168865000I-225000J0D01*
G01*
X370336000Y-168865000D01*
G75*
G02*
X370111000Y-168640000I0J225000D01*
G01*
X370111000Y-168190000D01*
G75*
G02*
X370336000Y-167965000I225000J0D01*
G01*
G37*
G36*
G01*
X370336000Y-166415000D02*
X370836000Y-166415000D01*
G75*
G02*
X371061000Y-166640000I0J-225000D01*
G01*
X371061000Y-167090000D01*
G75*
G02*
X370836000Y-167315000I-225000J0D01*
G01*
X370336000Y-167315000D01*
G75*
G02*
X370111000Y-167090000I0J225000D01*
G01*
X370111000Y-166640000D01*
G75*
G02*
X370336000Y-166415000I225000J0D01*
G01*
G37*
G36*
G01*
X396590000Y-173680000D02*
X396090000Y-173680000D01*
G75*
G02*
X395865000Y-173455000I0J225000D01*
G01*
X395865000Y-173005000D01*
G75*
G02*
X396090000Y-172780000I225000J0D01*
G01*
X396590000Y-172780000D01*
G75*
G02*
X396815000Y-173005000I0J-225000D01*
G01*
X396815000Y-173455000D01*
G75*
G02*
X396590000Y-173680000I-225000J0D01*
G01*
G37*
G36*
G01*
X396590000Y-175230000D02*
X396090000Y-175230000D01*
G75*
G02*
X395865000Y-175005000I0J225000D01*
G01*
X395865000Y-174555000D01*
G75*
G02*
X396090000Y-174330000I225000J0D01*
G01*
X396590000Y-174330000D01*
G75*
G02*
X396815000Y-174555000I0J-225000D01*
G01*
X396815000Y-175005000D01*
G75*
G02*
X396590000Y-175230000I-225000J0D01*
G01*
G37*
G36*
G01*
X358163000Y-160618250D02*
X358163000Y-160105750D01*
G75*
G02*
X358381750Y-159887000I218750J0D01*
G01*
X358819250Y-159887000D01*
G75*
G02*
X359038000Y-160105750I0J-218750D01*
G01*
X359038000Y-160618250D01*
G75*
G02*
X358819250Y-160837000I-218750J0D01*
G01*
X358381750Y-160837000D01*
G75*
G02*
X358163000Y-160618250I0J218750D01*
G01*
G37*
G36*
G01*
X356588000Y-160618250D02*
X356588000Y-160105750D01*
G75*
G02*
X356806750Y-159887000I218750J0D01*
G01*
X357244250Y-159887000D01*
G75*
G02*
X357463000Y-160105750I0J-218750D01*
G01*
X357463000Y-160618250D01*
G75*
G02*
X357244250Y-160837000I-218750J0D01*
G01*
X356806750Y-160837000D01*
G75*
G02*
X356588000Y-160618250I0J218750D01*
G01*
G37*
G36*
G01*
X361018500Y-160333000D02*
X361568500Y-160333000D01*
G75*
G02*
X361768500Y-160533000I0J-200000D01*
G01*
X361768500Y-160933000D01*
G75*
G02*
X361568500Y-161133000I-200000J0D01*
G01*
X361018500Y-161133000D01*
G75*
G02*
X360818500Y-160933000I0J200000D01*
G01*
X360818500Y-160533000D01*
G75*
G02*
X361018500Y-160333000I200000J0D01*
G01*
G37*
G36*
G01*
X361018500Y-158683000D02*
X361568500Y-158683000D01*
G75*
G02*
X361768500Y-158883000I0J-200000D01*
G01*
X361768500Y-159283000D01*
G75*
G02*
X361568500Y-159483000I-200000J0D01*
G01*
X361018500Y-159483000D01*
G75*
G02*
X360818500Y-159283000I0J200000D01*
G01*
X360818500Y-158883000D01*
G75*
G02*
X361018500Y-158683000I200000J0D01*
G01*
G37*
G36*
G01*
X362542500Y-160333000D02*
X363092500Y-160333000D01*
G75*
G02*
X363292500Y-160533000I0J-200000D01*
G01*
X363292500Y-160933000D01*
G75*
G02*
X363092500Y-161133000I-200000J0D01*
G01*
X362542500Y-161133000D01*
G75*
G02*
X362342500Y-160933000I0J200000D01*
G01*
X362342500Y-160533000D01*
G75*
G02*
X362542500Y-160333000I200000J0D01*
G01*
G37*
G36*
G01*
X362542500Y-158683000D02*
X363092500Y-158683000D01*
G75*
G02*
X363292500Y-158883000I0J-200000D01*
G01*
X363292500Y-159283000D01*
G75*
G02*
X363092500Y-159483000I-200000J0D01*
G01*
X362542500Y-159483000D01*
G75*
G02*
X362342500Y-159283000I0J200000D01*
G01*
X362342500Y-158883000D01*
G75*
G02*
X362542500Y-158683000I200000J0D01*
G01*
G37*
D23*
X354064000Y-138914000D03*
X354064000Y-137614000D03*
X354064000Y-149168000D03*
X354064000Y-147868000D03*
G36*
G01*
X359481000Y-135068000D02*
X359481000Y-135618000D01*
G75*
G02*
X359281000Y-135818000I-200000J0D01*
G01*
X358881000Y-135818000D01*
G75*
G02*
X358681000Y-135618000I0J200000D01*
G01*
X358681000Y-135068000D01*
G75*
G02*
X358881000Y-134868000I200000J0D01*
G01*
X359281000Y-134868000D01*
G75*
G02*
X359481000Y-135068000I0J-200000D01*
G01*
G37*
G36*
G01*
X361131000Y-135068000D02*
X361131000Y-135618000D01*
G75*
G02*
X360931000Y-135818000I-200000J0D01*
G01*
X360531000Y-135818000D01*
G75*
G02*
X360331000Y-135618000I0J200000D01*
G01*
X360331000Y-135068000D01*
G75*
G02*
X360531000Y-134868000I200000J0D01*
G01*
X360931000Y-134868000D01*
G75*
G02*
X361131000Y-135068000I0J-200000D01*
G01*
G37*
G36*
G01*
X359481000Y-140402000D02*
X359481000Y-140952000D01*
G75*
G02*
X359281000Y-141152000I-200000J0D01*
G01*
X358881000Y-141152000D01*
G75*
G02*
X358681000Y-140952000I0J200000D01*
G01*
X358681000Y-140402000D01*
G75*
G02*
X358881000Y-140202000I200000J0D01*
G01*
X359281000Y-140202000D01*
G75*
G02*
X359481000Y-140402000I0J-200000D01*
G01*
G37*
G36*
G01*
X361131000Y-140402000D02*
X361131000Y-140952000D01*
G75*
G02*
X360931000Y-141152000I-200000J0D01*
G01*
X360531000Y-141152000D01*
G75*
G02*
X360331000Y-140952000I0J200000D01*
G01*
X360331000Y-140402000D01*
G75*
G02*
X360531000Y-140202000I200000J0D01*
G01*
X360931000Y-140202000D01*
G75*
G02*
X361131000Y-140402000I0J-200000D01*
G01*
G37*
G36*
G01*
X359481000Y-145609000D02*
X359481000Y-146159000D01*
G75*
G02*
X359281000Y-146359000I-200000J0D01*
G01*
X358881000Y-146359000D01*
G75*
G02*
X358681000Y-146159000I0J200000D01*
G01*
X358681000Y-145609000D01*
G75*
G02*
X358881000Y-145409000I200000J0D01*
G01*
X359281000Y-145409000D01*
G75*
G02*
X359481000Y-145609000I0J-200000D01*
G01*
G37*
G36*
G01*
X361131000Y-145609000D02*
X361131000Y-146159000D01*
G75*
G02*
X360931000Y-146359000I-200000J0D01*
G01*
X360531000Y-146359000D01*
G75*
G02*
X360331000Y-146159000I0J200000D01*
G01*
X360331000Y-145609000D01*
G75*
G02*
X360531000Y-145409000I200000J0D01*
G01*
X360931000Y-145409000D01*
G75*
G02*
X361131000Y-145609000I0J-200000D01*
G01*
G37*
G36*
G01*
X359481000Y-150943000D02*
X359481000Y-151493000D01*
G75*
G02*
X359281000Y-151693000I-200000J0D01*
G01*
X358881000Y-151693000D01*
G75*
G02*
X358681000Y-151493000I0J200000D01*
G01*
X358681000Y-150943000D01*
G75*
G02*
X358881000Y-150743000I200000J0D01*
G01*
X359281000Y-150743000D01*
G75*
G02*
X359481000Y-150943000I0J-200000D01*
G01*
G37*
G36*
G01*
X361131000Y-150943000D02*
X361131000Y-151493000D01*
G75*
G02*
X360931000Y-151693000I-200000J0D01*
G01*
X360531000Y-151693000D01*
G75*
G02*
X360331000Y-151493000I0J200000D01*
G01*
X360331000Y-150943000D01*
G75*
G02*
X360531000Y-150743000I200000J0D01*
G01*
X360931000Y-150743000D01*
G75*
G02*
X361131000Y-150943000I0J-200000D01*
G01*
G37*
G36*
G01*
X359581000Y-133569000D02*
X359581000Y-134069000D01*
G75*
G02*
X359356000Y-134294000I-225000J0D01*
G01*
X358906000Y-134294000D01*
G75*
G02*
X358681000Y-134069000I0J225000D01*
G01*
X358681000Y-133569000D01*
G75*
G02*
X358906000Y-133344000I225000J0D01*
G01*
X359356000Y-133344000D01*
G75*
G02*
X359581000Y-133569000I0J-225000D01*
G01*
G37*
G36*
G01*
X361131000Y-133569000D02*
X361131000Y-134069000D01*
G75*
G02*
X360906000Y-134294000I-225000J0D01*
G01*
X360456000Y-134294000D01*
G75*
G02*
X360231000Y-134069000I0J225000D01*
G01*
X360231000Y-133569000D01*
G75*
G02*
X360456000Y-133344000I225000J0D01*
G01*
X360906000Y-133344000D01*
G75*
G02*
X361131000Y-133569000I0J-225000D01*
G01*
G37*
G36*
G01*
X359581000Y-142078000D02*
X359581000Y-142578000D01*
G75*
G02*
X359356000Y-142803000I-225000J0D01*
G01*
X358906000Y-142803000D01*
G75*
G02*
X358681000Y-142578000I0J225000D01*
G01*
X358681000Y-142078000D01*
G75*
G02*
X358906000Y-141853000I225000J0D01*
G01*
X359356000Y-141853000D01*
G75*
G02*
X359581000Y-142078000I0J-225000D01*
G01*
G37*
G36*
G01*
X361131000Y-142078000D02*
X361131000Y-142578000D01*
G75*
G02*
X360906000Y-142803000I-225000J0D01*
G01*
X360456000Y-142803000D01*
G75*
G02*
X360231000Y-142578000I0J225000D01*
G01*
X360231000Y-142078000D01*
G75*
G02*
X360456000Y-141853000I225000J0D01*
G01*
X360906000Y-141853000D01*
G75*
G02*
X361131000Y-142078000I0J-225000D01*
G01*
G37*
G36*
G01*
X359581000Y-144110000D02*
X359581000Y-144610000D01*
G75*
G02*
X359356000Y-144835000I-225000J0D01*
G01*
X358906000Y-144835000D01*
G75*
G02*
X358681000Y-144610000I0J225000D01*
G01*
X358681000Y-144110000D01*
G75*
G02*
X358906000Y-143885000I225000J0D01*
G01*
X359356000Y-143885000D01*
G75*
G02*
X359581000Y-144110000I0J-225000D01*
G01*
G37*
G36*
G01*
X361131000Y-144110000D02*
X361131000Y-144610000D01*
G75*
G02*
X360906000Y-144835000I-225000J0D01*
G01*
X360456000Y-144835000D01*
G75*
G02*
X360231000Y-144610000I0J225000D01*
G01*
X360231000Y-144110000D01*
G75*
G02*
X360456000Y-143885000I225000J0D01*
G01*
X360906000Y-143885000D01*
G75*
G02*
X361131000Y-144110000I0J-225000D01*
G01*
G37*
G36*
G01*
X359581000Y-152492000D02*
X359581000Y-152992000D01*
G75*
G02*
X359356000Y-153217000I-225000J0D01*
G01*
X358906000Y-153217000D01*
G75*
G02*
X358681000Y-152992000I0J225000D01*
G01*
X358681000Y-152492000D01*
G75*
G02*
X358906000Y-152267000I225000J0D01*
G01*
X359356000Y-152267000D01*
G75*
G02*
X359581000Y-152492000I0J-225000D01*
G01*
G37*
G36*
G01*
X361131000Y-152492000D02*
X361131000Y-152992000D01*
G75*
G02*
X360906000Y-153217000I-225000J0D01*
G01*
X360456000Y-153217000D01*
G75*
G02*
X360231000Y-152992000I0J225000D01*
G01*
X360231000Y-152492000D01*
G75*
G02*
X360456000Y-152267000I225000J0D01*
G01*
X360906000Y-152267000D01*
G75*
G02*
X361131000Y-152492000I0J-225000D01*
G01*
G37*
G36*
G01*
X398128250Y-173641500D02*
X397615750Y-173641500D01*
G75*
G02*
X397397000Y-173422750I0J218750D01*
G01*
X397397000Y-172985250D01*
G75*
G02*
X397615750Y-172766500I218750J0D01*
G01*
X398128250Y-172766500D01*
G75*
G02*
X398347000Y-172985250I0J-218750D01*
G01*
X398347000Y-173422750D01*
G75*
G02*
X398128250Y-173641500I-218750J0D01*
G01*
G37*
G36*
G01*
X398128250Y-175216500D02*
X397615750Y-175216500D01*
G75*
G02*
X397397000Y-174997750I0J218750D01*
G01*
X397397000Y-174560250D01*
G75*
G02*
X397615750Y-174341500I218750J0D01*
G01*
X398128250Y-174341500D01*
G75*
G02*
X398347000Y-174560250I0J-218750D01*
G01*
X398347000Y-174997750D01*
G75*
G02*
X398128250Y-175216500I-218750J0D01*
G01*
G37*
D24*
X416000000Y-181000000D03*
D11*
X373126000Y-168513000D03*
X374076000Y-166513000D03*
X372176000Y-166513000D03*
D25*
X386873000Y-159017000D03*
X386873000Y-160917000D03*
X389073000Y-160917000D03*
X389073000Y-159967000D03*
X389073000Y-159017000D03*
X386873000Y-155207000D03*
X386873000Y-157107000D03*
X389073000Y-157107000D03*
X389073000Y-156157000D03*
X389073000Y-155207000D03*
D26*
X389104000Y-144074000D03*
X388608000Y-144074000D03*
X388104000Y-144074000D03*
X387604000Y-144074000D03*
X387084000Y-144074000D03*
D27*
X386950000Y-145020000D03*
X386950000Y-145520000D03*
X386950000Y-146020000D03*
D26*
X387096000Y-146974000D03*
X387596000Y-146974000D03*
X388096000Y-146974000D03*
X388596000Y-146974000D03*
X389116000Y-146974000D03*
D27*
X389250000Y-146028000D03*
X389250000Y-145528000D03*
X389250000Y-145028000D03*
G36*
G01*
X373399000Y-127847750D02*
X373399000Y-128360250D01*
G75*
G02*
X373180250Y-128579000I-218750J0D01*
G01*
X372742750Y-128579000D01*
G75*
G02*
X372524000Y-128360250I0J218750D01*
G01*
X372524000Y-127847750D01*
G75*
G02*
X372742750Y-127629000I218750J0D01*
G01*
X373180250Y-127629000D01*
G75*
G02*
X373399000Y-127847750I0J-218750D01*
G01*
G37*
G36*
G01*
X374974000Y-127847750D02*
X374974000Y-128360250D01*
G75*
G02*
X374755250Y-128579000I-218750J0D01*
G01*
X374317750Y-128579000D01*
G75*
G02*
X374099000Y-128360250I0J218750D01*
G01*
X374099000Y-127847750D01*
G75*
G02*
X374317750Y-127629000I218750J0D01*
G01*
X374755250Y-127629000D01*
G75*
G02*
X374974000Y-127847750I0J-218750D01*
G01*
G37*
G36*
G01*
X373399000Y-126323750D02*
X373399000Y-126836250D01*
G75*
G02*
X373180250Y-127055000I-218750J0D01*
G01*
X372742750Y-127055000D01*
G75*
G02*
X372524000Y-126836250I0J218750D01*
G01*
X372524000Y-126323750D01*
G75*
G02*
X372742750Y-126105000I218750J0D01*
G01*
X373180250Y-126105000D01*
G75*
G02*
X373399000Y-126323750I0J-218750D01*
G01*
G37*
G36*
G01*
X374974000Y-126323750D02*
X374974000Y-126836250D01*
G75*
G02*
X374755250Y-127055000I-218750J0D01*
G01*
X374317750Y-127055000D01*
G75*
G02*
X374099000Y-126836250I0J218750D01*
G01*
X374099000Y-126323750D01*
G75*
G02*
X374317750Y-126105000I218750J0D01*
G01*
X374755250Y-126105000D01*
G75*
G02*
X374974000Y-126323750I0J-218750D01*
G01*
G37*
G36*
G01*
X407406250Y-180840000D02*
X406893750Y-180840000D01*
G75*
G02*
X406675000Y-180621250I0J218750D01*
G01*
X406675000Y-180183750D01*
G75*
G02*
X406893750Y-179965000I218750J0D01*
G01*
X407406250Y-179965000D01*
G75*
G02*
X407625000Y-180183750I0J-218750D01*
G01*
X407625000Y-180621250D01*
G75*
G02*
X407406250Y-180840000I-218750J0D01*
G01*
G37*
G36*
G01*
X407406250Y-182415000D02*
X406893750Y-182415000D01*
G75*
G02*
X406675000Y-182196250I0J218750D01*
G01*
X406675000Y-181758750D01*
G75*
G02*
X406893750Y-181540000I218750J0D01*
G01*
X407406250Y-181540000D01*
G75*
G02*
X407625000Y-181758750I0J-218750D01*
G01*
X407625000Y-182196250D01*
G75*
G02*
X407406250Y-182415000I-218750J0D01*
G01*
G37*
G36*
G01*
X399786250Y-182110000D02*
X399273750Y-182110000D01*
G75*
G02*
X399055000Y-181891250I0J218750D01*
G01*
X399055000Y-181453750D01*
G75*
G02*
X399273750Y-181235000I218750J0D01*
G01*
X399786250Y-181235000D01*
G75*
G02*
X400005000Y-181453750I0J-218750D01*
G01*
X400005000Y-181891250D01*
G75*
G02*
X399786250Y-182110000I-218750J0D01*
G01*
G37*
G36*
G01*
X399786250Y-183685000D02*
X399273750Y-183685000D01*
G75*
G02*
X399055000Y-183466250I0J218750D01*
G01*
X399055000Y-183028750D01*
G75*
G02*
X399273750Y-182810000I218750J0D01*
G01*
X399786250Y-182810000D01*
G75*
G02*
X400005000Y-183028750I0J-218750D01*
G01*
X400005000Y-183466250D01*
G75*
G02*
X399786250Y-183685000I-218750J0D01*
G01*
G37*
G36*
G01*
X401310250Y-182110000D02*
X400797750Y-182110000D01*
G75*
G02*
X400579000Y-181891250I0J218750D01*
G01*
X400579000Y-181453750D01*
G75*
G02*
X400797750Y-181235000I218750J0D01*
G01*
X401310250Y-181235000D01*
G75*
G02*
X401529000Y-181453750I0J-218750D01*
G01*
X401529000Y-181891250D01*
G75*
G02*
X401310250Y-182110000I-218750J0D01*
G01*
G37*
G36*
G01*
X401310250Y-183685000D02*
X400797750Y-183685000D01*
G75*
G02*
X400579000Y-183466250I0J218750D01*
G01*
X400579000Y-183028750D01*
G75*
G02*
X400797750Y-182810000I218750J0D01*
G01*
X401310250Y-182810000D01*
G75*
G02*
X401529000Y-183028750I0J-218750D01*
G01*
X401529000Y-183466250D01*
G75*
G02*
X401310250Y-183685000I-218750J0D01*
G01*
G37*
G36*
G01*
X389880250Y-182110000D02*
X389367750Y-182110000D01*
G75*
G02*
X389149000Y-181891250I0J218750D01*
G01*
X389149000Y-181453750D01*
G75*
G02*
X389367750Y-181235000I218750J0D01*
G01*
X389880250Y-181235000D01*
G75*
G02*
X390099000Y-181453750I0J-218750D01*
G01*
X390099000Y-181891250D01*
G75*
G02*
X389880250Y-182110000I-218750J0D01*
G01*
G37*
G36*
G01*
X389880250Y-183685000D02*
X389367750Y-183685000D01*
G75*
G02*
X389149000Y-183466250I0J218750D01*
G01*
X389149000Y-183028750D01*
G75*
G02*
X389367750Y-182810000I218750J0D01*
G01*
X389880250Y-182810000D01*
G75*
G02*
X390099000Y-183028750I0J-218750D01*
G01*
X390099000Y-183466250D01*
G75*
G02*
X389880250Y-183685000I-218750J0D01*
G01*
G37*
G36*
G01*
X391404250Y-182110000D02*
X390891750Y-182110000D01*
G75*
G02*
X390673000Y-181891250I0J218750D01*
G01*
X390673000Y-181453750D01*
G75*
G02*
X390891750Y-181235000I218750J0D01*
G01*
X391404250Y-181235000D01*
G75*
G02*
X391623000Y-181453750I0J-218750D01*
G01*
X391623000Y-181891250D01*
G75*
G02*
X391404250Y-182110000I-218750J0D01*
G01*
G37*
G36*
G01*
X391404250Y-183685000D02*
X390891750Y-183685000D01*
G75*
G02*
X390673000Y-183466250I0J218750D01*
G01*
X390673000Y-183028750D01*
G75*
G02*
X390891750Y-182810000I218750J0D01*
G01*
X391404250Y-182810000D01*
G75*
G02*
X391623000Y-183028750I0J-218750D01*
G01*
X391623000Y-183466250D01*
G75*
G02*
X391404250Y-183685000I-218750J0D01*
G01*
G37*
G36*
G01*
X392947250Y-182110000D02*
X392434750Y-182110000D01*
G75*
G02*
X392216000Y-181891250I0J218750D01*
G01*
X392216000Y-181453750D01*
G75*
G02*
X392434750Y-181235000I218750J0D01*
G01*
X392947250Y-181235000D01*
G75*
G02*
X393166000Y-181453750I0J-218750D01*
G01*
X393166000Y-181891250D01*
G75*
G02*
X392947250Y-182110000I-218750J0D01*
G01*
G37*
G36*
G01*
X392947250Y-183685000D02*
X392434750Y-183685000D01*
G75*
G02*
X392216000Y-183466250I0J218750D01*
G01*
X392216000Y-183028750D01*
G75*
G02*
X392434750Y-182810000I218750J0D01*
G01*
X392947250Y-182810000D01*
G75*
G02*
X393166000Y-183028750I0J-218750D01*
G01*
X393166000Y-183466250D01*
G75*
G02*
X392947250Y-183685000I-218750J0D01*
G01*
G37*
G36*
G01*
X369920000Y-165229250D02*
X369920000Y-164716750D01*
G75*
G02*
X370138750Y-164498000I218750J0D01*
G01*
X370576250Y-164498000D01*
G75*
G02*
X370795000Y-164716750I0J-218750D01*
G01*
X370795000Y-165229250D01*
G75*
G02*
X370576250Y-165448000I-218750J0D01*
G01*
X370138750Y-165448000D01*
G75*
G02*
X369920000Y-165229250I0J218750D01*
G01*
G37*
G36*
G01*
X368345000Y-165229250D02*
X368345000Y-164716750D01*
G75*
G02*
X368563750Y-164498000I218750J0D01*
G01*
X369001250Y-164498000D01*
G75*
G02*
X369220000Y-164716750I0J-218750D01*
G01*
X369220000Y-165229250D01*
G75*
G02*
X369001250Y-165448000I-218750J0D01*
G01*
X368563750Y-165448000D01*
G75*
G02*
X368345000Y-165229250I0J218750D01*
G01*
G37*
G36*
G01*
X369920000Y-160149250D02*
X369920000Y-159636750D01*
G75*
G02*
X370138750Y-159418000I218750J0D01*
G01*
X370576250Y-159418000D01*
G75*
G02*
X370795000Y-159636750I0J-218750D01*
G01*
X370795000Y-160149250D01*
G75*
G02*
X370576250Y-160368000I-218750J0D01*
G01*
X370138750Y-160368000D01*
G75*
G02*
X369920000Y-160149250I0J218750D01*
G01*
G37*
G36*
G01*
X368345000Y-160149250D02*
X368345000Y-159636750D01*
G75*
G02*
X368563750Y-159418000I218750J0D01*
G01*
X369001250Y-159418000D01*
G75*
G02*
X369220000Y-159636750I0J-218750D01*
G01*
X369220000Y-160149250D01*
G75*
G02*
X369001250Y-160368000I-218750J0D01*
G01*
X368563750Y-160368000D01*
G75*
G02*
X368345000Y-160149250I0J218750D01*
G01*
G37*
G36*
G01*
X373476000Y-160149250D02*
X373476000Y-159636750D01*
G75*
G02*
X373694750Y-159418000I218750J0D01*
G01*
X374132250Y-159418000D01*
G75*
G02*
X374351000Y-159636750I0J-218750D01*
G01*
X374351000Y-160149250D01*
G75*
G02*
X374132250Y-160368000I-218750J0D01*
G01*
X373694750Y-160368000D01*
G75*
G02*
X373476000Y-160149250I0J218750D01*
G01*
G37*
G36*
G01*
X371901000Y-160149250D02*
X371901000Y-159636750D01*
G75*
G02*
X372119750Y-159418000I218750J0D01*
G01*
X372557250Y-159418000D01*
G75*
G02*
X372776000Y-159636750I0J-218750D01*
G01*
X372776000Y-160149250D01*
G75*
G02*
X372557250Y-160368000I-218750J0D01*
G01*
X372119750Y-160368000D01*
G75*
G02*
X371901000Y-160149250I0J218750D01*
G01*
G37*
G36*
G01*
X373349000Y-165229250D02*
X373349000Y-164716750D01*
G75*
G02*
X373567750Y-164498000I218750J0D01*
G01*
X374005250Y-164498000D01*
G75*
G02*
X374224000Y-164716750I0J-218750D01*
G01*
X374224000Y-165229250D01*
G75*
G02*
X374005250Y-165448000I-218750J0D01*
G01*
X373567750Y-165448000D01*
G75*
G02*
X373349000Y-165229250I0J218750D01*
G01*
G37*
G36*
G01*
X371774000Y-165229250D02*
X371774000Y-164716750D01*
G75*
G02*
X371992750Y-164498000I218750J0D01*
G01*
X372430250Y-164498000D01*
G75*
G02*
X372649000Y-164716750I0J-218750D01*
G01*
X372649000Y-165229250D01*
G75*
G02*
X372430250Y-165448000I-218750J0D01*
G01*
X371992750Y-165448000D01*
G75*
G02*
X371774000Y-165229250I0J218750D01*
G01*
G37*
G36*
G01*
X358163000Y-162142250D02*
X358163000Y-161629750D01*
G75*
G02*
X358381750Y-161411000I218750J0D01*
G01*
X358819250Y-161411000D01*
G75*
G02*
X359038000Y-161629750I0J-218750D01*
G01*
X359038000Y-162142250D01*
G75*
G02*
X358819250Y-162361000I-218750J0D01*
G01*
X358381750Y-162361000D01*
G75*
G02*
X358163000Y-162142250I0J218750D01*
G01*
G37*
G36*
G01*
X356588000Y-162142250D02*
X356588000Y-161629750D01*
G75*
G02*
X356806750Y-161411000I218750J0D01*
G01*
X357244250Y-161411000D01*
G75*
G02*
X357463000Y-161629750I0J-218750D01*
G01*
X357463000Y-162142250D01*
G75*
G02*
X357244250Y-162361000I-218750J0D01*
G01*
X356806750Y-162361000D01*
G75*
G02*
X356588000Y-162142250I0J218750D01*
G01*
G37*
G36*
G01*
X375922250Y-167290000D02*
X375409750Y-167290000D01*
G75*
G02*
X375191000Y-167071250I0J218750D01*
G01*
X375191000Y-166633750D01*
G75*
G02*
X375409750Y-166415000I218750J0D01*
G01*
X375922250Y-166415000D01*
G75*
G02*
X376141000Y-166633750I0J-218750D01*
G01*
X376141000Y-167071250D01*
G75*
G02*
X375922250Y-167290000I-218750J0D01*
G01*
G37*
G36*
G01*
X375922250Y-168865000D02*
X375409750Y-168865000D01*
G75*
G02*
X375191000Y-168646250I0J218750D01*
G01*
X375191000Y-168208750D01*
G75*
G02*
X375409750Y-167990000I218750J0D01*
G01*
X375922250Y-167990000D01*
G75*
G02*
X376141000Y-168208750I0J-218750D01*
G01*
X376141000Y-168646250D01*
G75*
G02*
X375922250Y-168865000I-218750J0D01*
G01*
G37*
G36*
G01*
X397500250Y-168521000D02*
X396987750Y-168521000D01*
G75*
G02*
X396769000Y-168302250I0J218750D01*
G01*
X396769000Y-167864750D01*
G75*
G02*
X396987750Y-167646000I218750J0D01*
G01*
X397500250Y-167646000D01*
G75*
G02*
X397719000Y-167864750I0J-218750D01*
G01*
X397719000Y-168302250D01*
G75*
G02*
X397500250Y-168521000I-218750J0D01*
G01*
G37*
G36*
G01*
X397500250Y-170096000D02*
X396987750Y-170096000D01*
G75*
G02*
X396769000Y-169877250I0J218750D01*
G01*
X396769000Y-169439750D01*
G75*
G02*
X396987750Y-169221000I218750J0D01*
G01*
X397500250Y-169221000D01*
G75*
G02*
X397719000Y-169439750I0J-218750D01*
G01*
X397719000Y-169877250D01*
G75*
G02*
X397500250Y-170096000I-218750J0D01*
G01*
G37*
G36*
G01*
X393211000Y-161883750D02*
X393211000Y-162396250D01*
G75*
G02*
X392992250Y-162615000I-218750J0D01*
G01*
X392554750Y-162615000D01*
G75*
G02*
X392336000Y-162396250I0J218750D01*
G01*
X392336000Y-161883750D01*
G75*
G02*
X392554750Y-161665000I218750J0D01*
G01*
X392992250Y-161665000D01*
G75*
G02*
X393211000Y-161883750I0J-218750D01*
G01*
G37*
G36*
G01*
X394786000Y-161883750D02*
X394786000Y-162396250D01*
G75*
G02*
X394567250Y-162615000I-218750J0D01*
G01*
X394129750Y-162615000D01*
G75*
G02*
X393911000Y-162396250I0J218750D01*
G01*
X393911000Y-161883750D01*
G75*
G02*
X394129750Y-161665000I218750J0D01*
G01*
X394567250Y-161665000D01*
G75*
G02*
X394786000Y-161883750I0J-218750D01*
G01*
G37*
G36*
G01*
X394066750Y-160204000D02*
X394579250Y-160204000D01*
G75*
G02*
X394798000Y-160422750I0J-218750D01*
G01*
X394798000Y-160860250D01*
G75*
G02*
X394579250Y-161079000I-218750J0D01*
G01*
X394066750Y-161079000D01*
G75*
G02*
X393848000Y-160860250I0J218750D01*
G01*
X393848000Y-160422750D01*
G75*
G02*
X394066750Y-160204000I218750J0D01*
G01*
G37*
G36*
G01*
X394066750Y-158629000D02*
X394579250Y-158629000D01*
G75*
G02*
X394798000Y-158847750I0J-218750D01*
G01*
X394798000Y-159285250D01*
G75*
G02*
X394579250Y-159504000I-218750J0D01*
G01*
X394066750Y-159504000D01*
G75*
G02*
X393848000Y-159285250I0J218750D01*
G01*
X393848000Y-158847750D01*
G75*
G02*
X394066750Y-158629000I218750J0D01*
G01*
G37*
G36*
G01*
X399278250Y-168521000D02*
X398765750Y-168521000D01*
G75*
G02*
X398547000Y-168302250I0J218750D01*
G01*
X398547000Y-167864750D01*
G75*
G02*
X398765750Y-167646000I218750J0D01*
G01*
X399278250Y-167646000D01*
G75*
G02*
X399497000Y-167864750I0J-218750D01*
G01*
X399497000Y-168302250D01*
G75*
G02*
X399278250Y-168521000I-218750J0D01*
G01*
G37*
G36*
G01*
X399278250Y-170096000D02*
X398765750Y-170096000D01*
G75*
G02*
X398547000Y-169877250I0J218750D01*
G01*
X398547000Y-169439750D01*
G75*
G02*
X398765750Y-169221000I218750J0D01*
G01*
X399278250Y-169221000D01*
G75*
G02*
X399497000Y-169439750I0J-218750D01*
G01*
X399497000Y-169877250D01*
G75*
G02*
X399278250Y-170096000I-218750J0D01*
G01*
G37*
G36*
G01*
X395722250Y-168521000D02*
X395209750Y-168521000D01*
G75*
G02*
X394991000Y-168302250I0J218750D01*
G01*
X394991000Y-167864750D01*
G75*
G02*
X395209750Y-167646000I218750J0D01*
G01*
X395722250Y-167646000D01*
G75*
G02*
X395941000Y-167864750I0J-218750D01*
G01*
X395941000Y-168302250D01*
G75*
G02*
X395722250Y-168521000I-218750J0D01*
G01*
G37*
G36*
G01*
X395722250Y-170096000D02*
X395209750Y-170096000D01*
G75*
G02*
X394991000Y-169877250I0J218750D01*
G01*
X394991000Y-169439750D01*
G75*
G02*
X395209750Y-169221000I218750J0D01*
G01*
X395722250Y-169221000D01*
G75*
G02*
X395941000Y-169439750I0J-218750D01*
G01*
X395941000Y-169877250D01*
G75*
G02*
X395722250Y-170096000I-218750J0D01*
G01*
G37*
G36*
G01*
X387594250Y-148850000D02*
X387081750Y-148850000D01*
G75*
G02*
X386863000Y-148631250I0J218750D01*
G01*
X386863000Y-148193750D01*
G75*
G02*
X387081750Y-147975000I218750J0D01*
G01*
X387594250Y-147975000D01*
G75*
G02*
X387813000Y-148193750I0J-218750D01*
G01*
X387813000Y-148631250D01*
G75*
G02*
X387594250Y-148850000I-218750J0D01*
G01*
G37*
G36*
G01*
X387594250Y-150425000D02*
X387081750Y-150425000D01*
G75*
G02*
X386863000Y-150206250I0J218750D01*
G01*
X386863000Y-149768750D01*
G75*
G02*
X387081750Y-149550000I218750J0D01*
G01*
X387594250Y-149550000D01*
G75*
G02*
X387813000Y-149768750I0J-218750D01*
G01*
X387813000Y-150206250D01*
G75*
G02*
X387594250Y-150425000I-218750J0D01*
G01*
G37*
G36*
G01*
X388605750Y-149550000D02*
X389118250Y-149550000D01*
G75*
G02*
X389337000Y-149768750I0J-218750D01*
G01*
X389337000Y-150206250D01*
G75*
G02*
X389118250Y-150425000I-218750J0D01*
G01*
X388605750Y-150425000D01*
G75*
G02*
X388387000Y-150206250I0J218750D01*
G01*
X388387000Y-149768750D01*
G75*
G02*
X388605750Y-149550000I218750J0D01*
G01*
G37*
G36*
G01*
X388605750Y-147975000D02*
X389118250Y-147975000D01*
G75*
G02*
X389337000Y-148193750I0J-218750D01*
G01*
X389337000Y-148631250D01*
G75*
G02*
X389118250Y-148850000I-218750J0D01*
G01*
X388605750Y-148850000D01*
G75*
G02*
X388387000Y-148631250I0J218750D01*
G01*
X388387000Y-148193750D01*
G75*
G02*
X388605750Y-147975000I218750J0D01*
G01*
G37*
G36*
G01*
X403083750Y-170745000D02*
X403596250Y-170745000D01*
G75*
G02*
X403815000Y-170963750I0J-218750D01*
G01*
X403815000Y-171401250D01*
G75*
G02*
X403596250Y-171620000I-218750J0D01*
G01*
X403083750Y-171620000D01*
G75*
G02*
X402865000Y-171401250I0J218750D01*
G01*
X402865000Y-170963750D01*
G75*
G02*
X403083750Y-170745000I218750J0D01*
G01*
G37*
G36*
G01*
X403083750Y-169170000D02*
X403596250Y-169170000D01*
G75*
G02*
X403815000Y-169388750I0J-218750D01*
G01*
X403815000Y-169826250D01*
G75*
G02*
X403596250Y-170045000I-218750J0D01*
G01*
X403083750Y-170045000D01*
G75*
G02*
X402865000Y-169826250I0J218750D01*
G01*
X402865000Y-169388750D01*
G75*
G02*
X403083750Y-169170000I218750J0D01*
G01*
G37*
G36*
G01*
X400825750Y-176507000D02*
X401338250Y-176507000D01*
G75*
G02*
X401557000Y-176725750I0J-218750D01*
G01*
X401557000Y-177163250D01*
G75*
G02*
X401338250Y-177382000I-218750J0D01*
G01*
X400825750Y-177382000D01*
G75*
G02*
X400607000Y-177163250I0J218750D01*
G01*
X400607000Y-176725750D01*
G75*
G02*
X400825750Y-176507000I218750J0D01*
G01*
G37*
G36*
G01*
X400825750Y-174932000D02*
X401338250Y-174932000D01*
G75*
G02*
X401557000Y-175150750I0J-218750D01*
G01*
X401557000Y-175588250D01*
G75*
G02*
X401338250Y-175807000I-218750J0D01*
G01*
X400825750Y-175807000D01*
G75*
G02*
X400607000Y-175588250I0J218750D01*
G01*
X400607000Y-175150750D01*
G75*
G02*
X400825750Y-174932000I218750J0D01*
G01*
G37*
G36*
G01*
X386309000Y-137203000D02*
X386309000Y-139353000D01*
G75*
G02*
X386059000Y-139603000I-250000J0D01*
G01*
X385309000Y-139603000D01*
G75*
G02*
X385059000Y-139353000I0J250000D01*
G01*
X385059000Y-137203000D01*
G75*
G02*
X385309000Y-136953000I250000J0D01*
G01*
X386059000Y-136953000D01*
G75*
G02*
X386309000Y-137203000I0J-250000D01*
G01*
G37*
G36*
G01*
X389109000Y-137203000D02*
X389109000Y-139353000D01*
G75*
G02*
X388859000Y-139603000I-250000J0D01*
G01*
X388109000Y-139603000D01*
G75*
G02*
X387859000Y-139353000I0J250000D01*
G01*
X387859000Y-137203000D01*
G75*
G02*
X388109000Y-136953000I250000J0D01*
G01*
X388859000Y-136953000D01*
G75*
G02*
X389109000Y-137203000I0J-250000D01*
G01*
G37*
G36*
G01*
X384144000Y-143614250D02*
X384144000Y-143101750D01*
G75*
G02*
X384362750Y-142883000I218750J0D01*
G01*
X384800250Y-142883000D01*
G75*
G02*
X385019000Y-143101750I0J-218750D01*
G01*
X385019000Y-143614250D01*
G75*
G02*
X384800250Y-143833000I-218750J0D01*
G01*
X384362750Y-143833000D01*
G75*
G02*
X384144000Y-143614250I0J218750D01*
G01*
G37*
G36*
G01*
X382569000Y-143614250D02*
X382569000Y-143101750D01*
G75*
G02*
X382787750Y-142883000I218750J0D01*
G01*
X383225250Y-142883000D01*
G75*
G02*
X383444000Y-143101750I0J-218750D01*
G01*
X383444000Y-143614250D01*
G75*
G02*
X383225250Y-143833000I-218750J0D01*
G01*
X382787750Y-143833000D01*
G75*
G02*
X382569000Y-143614250I0J218750D01*
G01*
G37*
G36*
G01*
X405276000Y-169757750D02*
X405276000Y-170270250D01*
G75*
G02*
X405057250Y-170489000I-218750J0D01*
G01*
X404619750Y-170489000D01*
G75*
G02*
X404401000Y-170270250I0J218750D01*
G01*
X404401000Y-169757750D01*
G75*
G02*
X404619750Y-169539000I218750J0D01*
G01*
X405057250Y-169539000D01*
G75*
G02*
X405276000Y-169757750I0J-218750D01*
G01*
G37*
G36*
G01*
X406851000Y-169757750D02*
X406851000Y-170270250D01*
G75*
G02*
X406632250Y-170489000I-218750J0D01*
G01*
X406194750Y-170489000D01*
G75*
G02*
X405976000Y-170270250I0J218750D01*
G01*
X405976000Y-169757750D01*
G75*
G02*
X406194750Y-169539000I218750J0D01*
G01*
X406632250Y-169539000D01*
G75*
G02*
X406851000Y-169757750I0J-218750D01*
G01*
G37*
G36*
G01*
X405976000Y-171794250D02*
X405976000Y-171281750D01*
G75*
G02*
X406194750Y-171063000I218750J0D01*
G01*
X406632250Y-171063000D01*
G75*
G02*
X406851000Y-171281750I0J-218750D01*
G01*
X406851000Y-171794250D01*
G75*
G02*
X406632250Y-172013000I-218750J0D01*
G01*
X406194750Y-172013000D01*
G75*
G02*
X405976000Y-171794250I0J218750D01*
G01*
G37*
G36*
G01*
X404401000Y-171794250D02*
X404401000Y-171281750D01*
G75*
G02*
X404619750Y-171063000I218750J0D01*
G01*
X405057250Y-171063000D01*
G75*
G02*
X405276000Y-171281750I0J-218750D01*
G01*
X405276000Y-171794250D01*
G75*
G02*
X405057250Y-172013000I-218750J0D01*
G01*
X404619750Y-172013000D01*
G75*
G02*
X404401000Y-171794250I0J218750D01*
G01*
G37*
G36*
G01*
X407909750Y-175253000D02*
X408422250Y-175253000D01*
G75*
G02*
X408641000Y-175471750I0J-218750D01*
G01*
X408641000Y-175909250D01*
G75*
G02*
X408422250Y-176128000I-218750J0D01*
G01*
X407909750Y-176128000D01*
G75*
G02*
X407691000Y-175909250I0J218750D01*
G01*
X407691000Y-175471750D01*
G75*
G02*
X407909750Y-175253000I218750J0D01*
G01*
G37*
G36*
G01*
X407909750Y-173678000D02*
X408422250Y-173678000D01*
G75*
G02*
X408641000Y-173896750I0J-218750D01*
G01*
X408641000Y-174334250D01*
G75*
G02*
X408422250Y-174553000I-218750J0D01*
G01*
X407909750Y-174553000D01*
G75*
G02*
X407691000Y-174334250I0J218750D01*
G01*
X407691000Y-173896750D01*
G75*
G02*
X407909750Y-173678000I218750J0D01*
G01*
G37*
G36*
G01*
X407909750Y-172205000D02*
X408422250Y-172205000D01*
G75*
G02*
X408641000Y-172423750I0J-218750D01*
G01*
X408641000Y-172861250D01*
G75*
G02*
X408422250Y-173080000I-218750J0D01*
G01*
X407909750Y-173080000D01*
G75*
G02*
X407691000Y-172861250I0J218750D01*
G01*
X407691000Y-172423750D01*
G75*
G02*
X407909750Y-172205000I218750J0D01*
G01*
G37*
G36*
G01*
X407909750Y-170630000D02*
X408422250Y-170630000D01*
G75*
G02*
X408641000Y-170848750I0J-218750D01*
G01*
X408641000Y-171286250D01*
G75*
G02*
X408422250Y-171505000I-218750J0D01*
G01*
X407909750Y-171505000D01*
G75*
G02*
X407691000Y-171286250I0J218750D01*
G01*
X407691000Y-170848750D01*
G75*
G02*
X407909750Y-170630000I218750J0D01*
G01*
G37*
G36*
G01*
X392449000Y-150707750D02*
X392449000Y-151220250D01*
G75*
G02*
X392230250Y-151439000I-218750J0D01*
G01*
X391792750Y-151439000D01*
G75*
G02*
X391574000Y-151220250I0J218750D01*
G01*
X391574000Y-150707750D01*
G75*
G02*
X391792750Y-150489000I218750J0D01*
G01*
X392230250Y-150489000D01*
G75*
G02*
X392449000Y-150707750I0J-218750D01*
G01*
G37*
G36*
G01*
X394024000Y-150707750D02*
X394024000Y-151220250D01*
G75*
G02*
X393805250Y-151439000I-218750J0D01*
G01*
X393367750Y-151439000D01*
G75*
G02*
X393149000Y-151220250I0J218750D01*
G01*
X393149000Y-150707750D01*
G75*
G02*
X393367750Y-150489000I218750J0D01*
G01*
X393805250Y-150489000D01*
G75*
G02*
X394024000Y-150707750I0J-218750D01*
G01*
G37*
G36*
G01*
X409946250Y-174553000D02*
X409433750Y-174553000D01*
G75*
G02*
X409215000Y-174334250I0J218750D01*
G01*
X409215000Y-173896750D01*
G75*
G02*
X409433750Y-173678000I218750J0D01*
G01*
X409946250Y-173678000D01*
G75*
G02*
X410165000Y-173896750I0J-218750D01*
G01*
X410165000Y-174334250D01*
G75*
G02*
X409946250Y-174553000I-218750J0D01*
G01*
G37*
G36*
G01*
X409946250Y-176128000D02*
X409433750Y-176128000D01*
G75*
G02*
X409215000Y-175909250I0J218750D01*
G01*
X409215000Y-175471750D01*
G75*
G02*
X409433750Y-175253000I218750J0D01*
G01*
X409946250Y-175253000D01*
G75*
G02*
X410165000Y-175471750I0J-218750D01*
G01*
X410165000Y-175909250D01*
G75*
G02*
X409946250Y-176128000I-218750J0D01*
G01*
G37*
G36*
G01*
X389401000Y-151596750D02*
X389401000Y-152109250D01*
G75*
G02*
X389182250Y-152328000I-218750J0D01*
G01*
X388744750Y-152328000D01*
G75*
G02*
X388526000Y-152109250I0J218750D01*
G01*
X388526000Y-151596750D01*
G75*
G02*
X388744750Y-151378000I218750J0D01*
G01*
X389182250Y-151378000D01*
G75*
G02*
X389401000Y-151596750I0J-218750D01*
G01*
G37*
G36*
G01*
X390976000Y-151596750D02*
X390976000Y-152109250D01*
G75*
G02*
X390757250Y-152328000I-218750J0D01*
G01*
X390319750Y-152328000D01*
G75*
G02*
X390101000Y-152109250I0J218750D01*
G01*
X390101000Y-151596750D01*
G75*
G02*
X390319750Y-151378000I218750J0D01*
G01*
X390757250Y-151378000D01*
G75*
G02*
X390976000Y-151596750I0J-218750D01*
G01*
G37*
G36*
G01*
X401056250Y-168521000D02*
X400543750Y-168521000D01*
G75*
G02*
X400325000Y-168302250I0J218750D01*
G01*
X400325000Y-167864750D01*
G75*
G02*
X400543750Y-167646000I218750J0D01*
G01*
X401056250Y-167646000D01*
G75*
G02*
X401275000Y-167864750I0J-218750D01*
G01*
X401275000Y-168302250D01*
G75*
G02*
X401056250Y-168521000I-218750J0D01*
G01*
G37*
G36*
G01*
X401056250Y-170096000D02*
X400543750Y-170096000D01*
G75*
G02*
X400325000Y-169877250I0J218750D01*
G01*
X400325000Y-169439750D01*
G75*
G02*
X400543750Y-169221000I218750J0D01*
G01*
X401056250Y-169221000D01*
G75*
G02*
X401275000Y-169439750I0J-218750D01*
G01*
X401275000Y-169877250D01*
G75*
G02*
X401056250Y-170096000I-218750J0D01*
G01*
G37*
G36*
G01*
X393690250Y-168521000D02*
X393177750Y-168521000D01*
G75*
G02*
X392959000Y-168302250I0J218750D01*
G01*
X392959000Y-167864750D01*
G75*
G02*
X393177750Y-167646000I218750J0D01*
G01*
X393690250Y-167646000D01*
G75*
G02*
X393909000Y-167864750I0J-218750D01*
G01*
X393909000Y-168302250D01*
G75*
G02*
X393690250Y-168521000I-218750J0D01*
G01*
G37*
G36*
G01*
X393690250Y-170096000D02*
X393177750Y-170096000D01*
G75*
G02*
X392959000Y-169877250I0J218750D01*
G01*
X392959000Y-169439750D01*
G75*
G02*
X393177750Y-169221000I218750J0D01*
G01*
X393690250Y-169221000D01*
G75*
G02*
X393909000Y-169439750I0J-218750D01*
G01*
X393909000Y-169877250D01*
G75*
G02*
X393690250Y-170096000I-218750J0D01*
G01*
G37*
D28*
X383147000Y-158838000D03*
X383147000Y-155409000D03*
D29*
X392672000Y-137706000D03*
X392672000Y-142406000D03*
D30*
X407658000Y-137502000D03*
D31*
X413458000Y-137502000D03*
D32*
X410658000Y-132702000D03*
D17*
X408420000Y-129120000D03*
D18*
X403340000Y-129120000D03*
D24*
X354000000Y-129000000D03*
X416000000Y-129000000D03*
D33*
X386576000Y-128993000D03*
X355461000Y-182714000D03*
G36*
G01*
X356909750Y-136674000D02*
X357822250Y-136674000D01*
G75*
G02*
X358066000Y-136917750I0J-243750D01*
G01*
X358066000Y-137405250D01*
G75*
G02*
X357822250Y-137649000I-243750J0D01*
G01*
X356909750Y-137649000D01*
G75*
G02*
X356666000Y-137405250I0J243750D01*
G01*
X356666000Y-136917750D01*
G75*
G02*
X356909750Y-136674000I243750J0D01*
G01*
G37*
G36*
G01*
X356909750Y-134799000D02*
X357822250Y-134799000D01*
G75*
G02*
X358066000Y-135042750I0J-243750D01*
G01*
X358066000Y-135530250D01*
G75*
G02*
X357822250Y-135774000I-243750J0D01*
G01*
X356909750Y-135774000D01*
G75*
G02*
X356666000Y-135530250I0J243750D01*
G01*
X356666000Y-135042750D01*
G75*
G02*
X356909750Y-134799000I243750J0D01*
G01*
G37*
G36*
G01*
X367928250Y-132274000D02*
X367415750Y-132274000D01*
G75*
G02*
X367197000Y-132055250I0J218750D01*
G01*
X367197000Y-131617750D01*
G75*
G02*
X367415750Y-131399000I218750J0D01*
G01*
X367928250Y-131399000D01*
G75*
G02*
X368147000Y-131617750I0J-218750D01*
G01*
X368147000Y-132055250D01*
G75*
G02*
X367928250Y-132274000I-218750J0D01*
G01*
G37*
G36*
G01*
X367928250Y-133849000D02*
X367415750Y-133849000D01*
G75*
G02*
X367197000Y-133630250I0J218750D01*
G01*
X367197000Y-133192750D01*
G75*
G02*
X367415750Y-132974000I218750J0D01*
G01*
X367928250Y-132974000D01*
G75*
G02*
X368147000Y-133192750I0J-218750D01*
G01*
X368147000Y-133630250D01*
G75*
G02*
X367928250Y-133849000I-218750J0D01*
G01*
G37*
G36*
G01*
X359400250Y-137652000D02*
X358887750Y-137652000D01*
G75*
G02*
X358669000Y-137433250I0J218750D01*
G01*
X358669000Y-136995750D01*
G75*
G02*
X358887750Y-136777000I218750J0D01*
G01*
X359400250Y-136777000D01*
G75*
G02*
X359619000Y-136995750I0J-218750D01*
G01*
X359619000Y-137433250D01*
G75*
G02*
X359400250Y-137652000I-218750J0D01*
G01*
G37*
G36*
G01*
X359400250Y-139227000D02*
X358887750Y-139227000D01*
G75*
G02*
X358669000Y-139008250I0J218750D01*
G01*
X358669000Y-138570750D01*
G75*
G02*
X358887750Y-138352000I218750J0D01*
G01*
X359400250Y-138352000D01*
G75*
G02*
X359619000Y-138570750I0J-218750D01*
G01*
X359619000Y-139008250D01*
G75*
G02*
X359400250Y-139227000I-218750J0D01*
G01*
G37*
G36*
G01*
X357822250Y-139330000D02*
X356909750Y-139330000D01*
G75*
G02*
X356666000Y-139086250I0J243750D01*
G01*
X356666000Y-138598750D01*
G75*
G02*
X356909750Y-138355000I243750J0D01*
G01*
X357822250Y-138355000D01*
G75*
G02*
X358066000Y-138598750I0J-243750D01*
G01*
X358066000Y-139086250D01*
G75*
G02*
X357822250Y-139330000I-243750J0D01*
G01*
G37*
G36*
G01*
X357822250Y-141205000D02*
X356909750Y-141205000D01*
G75*
G02*
X356666000Y-140961250I0J243750D01*
G01*
X356666000Y-140473750D01*
G75*
G02*
X356909750Y-140230000I243750J0D01*
G01*
X357822250Y-140230000D01*
G75*
G02*
X358066000Y-140473750I0J-243750D01*
G01*
X358066000Y-140961250D01*
G75*
G02*
X357822250Y-141205000I-243750J0D01*
G01*
G37*
G36*
G01*
X356909750Y-147190000D02*
X357822250Y-147190000D01*
G75*
G02*
X358066000Y-147433750I0J-243750D01*
G01*
X358066000Y-147921250D01*
G75*
G02*
X357822250Y-148165000I-243750J0D01*
G01*
X356909750Y-148165000D01*
G75*
G02*
X356666000Y-147921250I0J243750D01*
G01*
X356666000Y-147433750D01*
G75*
G02*
X356909750Y-147190000I243750J0D01*
G01*
G37*
G36*
G01*
X356909750Y-145315000D02*
X357822250Y-145315000D01*
G75*
G02*
X358066000Y-145558750I0J-243750D01*
G01*
X358066000Y-146046250D01*
G75*
G02*
X357822250Y-146290000I-243750J0D01*
G01*
X356909750Y-146290000D01*
G75*
G02*
X356666000Y-146046250I0J243750D01*
G01*
X356666000Y-145558750D01*
G75*
G02*
X356909750Y-145315000I243750J0D01*
G01*
G37*
G36*
G01*
X359400250Y-147939500D02*
X358887750Y-147939500D01*
G75*
G02*
X358669000Y-147720750I0J218750D01*
G01*
X358669000Y-147283250D01*
G75*
G02*
X358887750Y-147064500I218750J0D01*
G01*
X359400250Y-147064500D01*
G75*
G02*
X359619000Y-147283250I0J-218750D01*
G01*
X359619000Y-147720750D01*
G75*
G02*
X359400250Y-147939500I-218750J0D01*
G01*
G37*
G36*
G01*
X359400250Y-149514500D02*
X358887750Y-149514500D01*
G75*
G02*
X358669000Y-149295750I0J218750D01*
G01*
X358669000Y-148858250D01*
G75*
G02*
X358887750Y-148639500I218750J0D01*
G01*
X359400250Y-148639500D01*
G75*
G02*
X359619000Y-148858250I0J-218750D01*
G01*
X359619000Y-149295750D01*
G75*
G02*
X359400250Y-149514500I-218750J0D01*
G01*
G37*
G36*
G01*
X357822250Y-149879000D02*
X356909750Y-149879000D01*
G75*
G02*
X356666000Y-149635250I0J243750D01*
G01*
X356666000Y-149147750D01*
G75*
G02*
X356909750Y-148904000I243750J0D01*
G01*
X357822250Y-148904000D01*
G75*
G02*
X358066000Y-149147750I0J-243750D01*
G01*
X358066000Y-149635250D01*
G75*
G02*
X357822250Y-149879000I-243750J0D01*
G01*
G37*
G36*
G01*
X357822250Y-151754000D02*
X356909750Y-151754000D01*
G75*
G02*
X356666000Y-151510250I0J243750D01*
G01*
X356666000Y-151022750D01*
G75*
G02*
X356909750Y-150779000I243750J0D01*
G01*
X357822250Y-150779000D01*
G75*
G02*
X358066000Y-151022750I0J-243750D01*
G01*
X358066000Y-151510250D01*
G75*
G02*
X357822250Y-151754000I-243750J0D01*
G01*
G37*
G36*
G01*
X367415750Y-150246000D02*
X367928250Y-150246000D01*
G75*
G02*
X368147000Y-150464750I0J-218750D01*
G01*
X368147000Y-150902250D01*
G75*
G02*
X367928250Y-151121000I-218750J0D01*
G01*
X367415750Y-151121000D01*
G75*
G02*
X367197000Y-150902250I0J218750D01*
G01*
X367197000Y-150464750D01*
G75*
G02*
X367415750Y-150246000I218750J0D01*
G01*
G37*
G36*
G01*
X367415750Y-148671000D02*
X367928250Y-148671000D01*
G75*
G02*
X368147000Y-148889750I0J-218750D01*
G01*
X368147000Y-149327250D01*
G75*
G02*
X367928250Y-149546000I-218750J0D01*
G01*
X367415750Y-149546000D01*
G75*
G02*
X367197000Y-149327250I0J218750D01*
G01*
X367197000Y-148889750D01*
G75*
G02*
X367415750Y-148671000I218750J0D01*
G01*
G37*
G36*
G01*
X410421000Y-180938250D02*
X410421000Y-180425750D01*
G75*
G02*
X410639750Y-180207000I218750J0D01*
G01*
X411077250Y-180207000D01*
G75*
G02*
X411296000Y-180425750I0J-218750D01*
G01*
X411296000Y-180938250D01*
G75*
G02*
X411077250Y-181157000I-218750J0D01*
G01*
X410639750Y-181157000D01*
G75*
G02*
X410421000Y-180938250I0J218750D01*
G01*
G37*
G36*
G01*
X408846000Y-180938250D02*
X408846000Y-180425750D01*
G75*
G02*
X409064750Y-180207000I218750J0D01*
G01*
X409502250Y-180207000D01*
G75*
G02*
X409721000Y-180425750I0J-218750D01*
G01*
X409721000Y-180938250D01*
G75*
G02*
X409502250Y-181157000I-218750J0D01*
G01*
X409064750Y-181157000D01*
G75*
G02*
X408846000Y-180938250I0J218750D01*
G01*
G37*
G36*
G01*
X373238750Y-182810000D02*
X373751250Y-182810000D01*
G75*
G02*
X373970000Y-183028750I0J-218750D01*
G01*
X373970000Y-183466250D01*
G75*
G02*
X373751250Y-183685000I-218750J0D01*
G01*
X373238750Y-183685000D01*
G75*
G02*
X373020000Y-183466250I0J218750D01*
G01*
X373020000Y-183028750D01*
G75*
G02*
X373238750Y-182810000I218750J0D01*
G01*
G37*
G36*
G01*
X373238750Y-181235000D02*
X373751250Y-181235000D01*
G75*
G02*
X373970000Y-181453750I0J-218750D01*
G01*
X373970000Y-181891250D01*
G75*
G02*
X373751250Y-182110000I-218750J0D01*
G01*
X373238750Y-182110000D01*
G75*
G02*
X373020000Y-181891250I0J218750D01*
G01*
X373020000Y-181453750D01*
G75*
G02*
X373238750Y-181235000I218750J0D01*
G01*
G37*
G36*
G01*
X363840750Y-182810000D02*
X364353250Y-182810000D01*
G75*
G02*
X364572000Y-183028750I0J-218750D01*
G01*
X364572000Y-183466250D01*
G75*
G02*
X364353250Y-183685000I-218750J0D01*
G01*
X363840750Y-183685000D01*
G75*
G02*
X363622000Y-183466250I0J218750D01*
G01*
X363622000Y-183028750D01*
G75*
G02*
X363840750Y-182810000I218750J0D01*
G01*
G37*
G36*
G01*
X363840750Y-181235000D02*
X364353250Y-181235000D01*
G75*
G02*
X364572000Y-181453750I0J-218750D01*
G01*
X364572000Y-181891250D01*
G75*
G02*
X364353250Y-182110000I-218750J0D01*
G01*
X363840750Y-182110000D01*
G75*
G02*
X363622000Y-181891250I0J218750D01*
G01*
X363622000Y-181453750D01*
G75*
G02*
X363840750Y-181235000I218750J0D01*
G01*
G37*
G36*
G01*
X351621000Y-176915750D02*
X351621000Y-177428250D01*
G75*
G02*
X351402250Y-177647000I-218750J0D01*
G01*
X350964750Y-177647000D01*
G75*
G02*
X350746000Y-177428250I0J218750D01*
G01*
X350746000Y-176915750D01*
G75*
G02*
X350964750Y-176697000I218750J0D01*
G01*
X351402250Y-176697000D01*
G75*
G02*
X351621000Y-176915750I0J-218750D01*
G01*
G37*
G36*
G01*
X353196000Y-176915750D02*
X353196000Y-177428250D01*
G75*
G02*
X352977250Y-177647000I-218750J0D01*
G01*
X352539750Y-177647000D01*
G75*
G02*
X352321000Y-177428250I0J218750D01*
G01*
X352321000Y-176915750D01*
G75*
G02*
X352539750Y-176697000I218750J0D01*
G01*
X352977250Y-176697000D01*
G75*
G02*
X353196000Y-176915750I0J-218750D01*
G01*
G37*
G36*
G01*
X351621000Y-175391750D02*
X351621000Y-175904250D01*
G75*
G02*
X351402250Y-176123000I-218750J0D01*
G01*
X350964750Y-176123000D01*
G75*
G02*
X350746000Y-175904250I0J218750D01*
G01*
X350746000Y-175391750D01*
G75*
G02*
X350964750Y-175173000I218750J0D01*
G01*
X351402250Y-175173000D01*
G75*
G02*
X351621000Y-175391750I0J-218750D01*
G01*
G37*
G36*
G01*
X353196000Y-175391750D02*
X353196000Y-175904250D01*
G75*
G02*
X352977250Y-176123000I-218750J0D01*
G01*
X352539750Y-176123000D01*
G75*
G02*
X352321000Y-175904250I0J218750D01*
G01*
X352321000Y-175391750D01*
G75*
G02*
X352539750Y-175173000I218750J0D01*
G01*
X352977250Y-175173000D01*
G75*
G02*
X353196000Y-175391750I0J-218750D01*
G01*
G37*
G36*
G01*
X385435250Y-159363000D02*
X384922750Y-159363000D01*
G75*
G02*
X384704000Y-159144250I0J218750D01*
G01*
X384704000Y-158706750D01*
G75*
G02*
X384922750Y-158488000I218750J0D01*
G01*
X385435250Y-158488000D01*
G75*
G02*
X385654000Y-158706750I0J-218750D01*
G01*
X385654000Y-159144250D01*
G75*
G02*
X385435250Y-159363000I-218750J0D01*
G01*
G37*
G36*
G01*
X385435250Y-160938000D02*
X384922750Y-160938000D01*
G75*
G02*
X384704000Y-160719250I0J218750D01*
G01*
X384704000Y-160281750D01*
G75*
G02*
X384922750Y-160063000I218750J0D01*
G01*
X385435250Y-160063000D01*
G75*
G02*
X385654000Y-160281750I0J-218750D01*
G01*
X385654000Y-160719250D01*
G75*
G02*
X385435250Y-160938000I-218750J0D01*
G01*
G37*
G36*
G01*
X391531250Y-159504000D02*
X391018750Y-159504000D01*
G75*
G02*
X390800000Y-159285250I0J218750D01*
G01*
X390800000Y-158847750D01*
G75*
G02*
X391018750Y-158629000I218750J0D01*
G01*
X391531250Y-158629000D01*
G75*
G02*
X391750000Y-158847750I0J-218750D01*
G01*
X391750000Y-159285250D01*
G75*
G02*
X391531250Y-159504000I-218750J0D01*
G01*
G37*
G36*
G01*
X391531250Y-161079000D02*
X391018750Y-161079000D01*
G75*
G02*
X390800000Y-160860250I0J218750D01*
G01*
X390800000Y-160422750D01*
G75*
G02*
X391018750Y-160204000I218750J0D01*
G01*
X391531250Y-160204000D01*
G75*
G02*
X391750000Y-160422750I0J-218750D01*
G01*
X391750000Y-160860250D01*
G75*
G02*
X391531250Y-161079000I-218750J0D01*
G01*
G37*
G36*
G01*
X391531250Y-155821000D02*
X391018750Y-155821000D01*
G75*
G02*
X390800000Y-155602250I0J218750D01*
G01*
X390800000Y-155164750D01*
G75*
G02*
X391018750Y-154946000I218750J0D01*
G01*
X391531250Y-154946000D01*
G75*
G02*
X391750000Y-155164750I0J-218750D01*
G01*
X391750000Y-155602250D01*
G75*
G02*
X391531250Y-155821000I-218750J0D01*
G01*
G37*
G36*
G01*
X391531250Y-157396000D02*
X391018750Y-157396000D01*
G75*
G02*
X390800000Y-157177250I0J218750D01*
G01*
X390800000Y-156739750D01*
G75*
G02*
X391018750Y-156521000I218750J0D01*
G01*
X391531250Y-156521000D01*
G75*
G02*
X391750000Y-156739750I0J-218750D01*
G01*
X391750000Y-157177250D01*
G75*
G02*
X391531250Y-157396000I-218750J0D01*
G01*
G37*
G36*
G01*
X385435250Y-155807000D02*
X384922750Y-155807000D01*
G75*
G02*
X384704000Y-155588250I0J218750D01*
G01*
X384704000Y-155150750D01*
G75*
G02*
X384922750Y-154932000I218750J0D01*
G01*
X385435250Y-154932000D01*
G75*
G02*
X385654000Y-155150750I0J-218750D01*
G01*
X385654000Y-155588250D01*
G75*
G02*
X385435250Y-155807000I-218750J0D01*
G01*
G37*
G36*
G01*
X385435250Y-157382000D02*
X384922750Y-157382000D01*
G75*
G02*
X384704000Y-157163250I0J218750D01*
G01*
X384704000Y-156725750D01*
G75*
G02*
X384922750Y-156507000I218750J0D01*
G01*
X385435250Y-156507000D01*
G75*
G02*
X385654000Y-156725750I0J-218750D01*
G01*
X385654000Y-157163250D01*
G75*
G02*
X385435250Y-157382000I-218750J0D01*
G01*
G37*
G36*
G01*
X393055250Y-159504000D02*
X392542750Y-159504000D01*
G75*
G02*
X392324000Y-159285250I0J218750D01*
G01*
X392324000Y-158847750D01*
G75*
G02*
X392542750Y-158629000I218750J0D01*
G01*
X393055250Y-158629000D01*
G75*
G02*
X393274000Y-158847750I0J-218750D01*
G01*
X393274000Y-159285250D01*
G75*
G02*
X393055250Y-159504000I-218750J0D01*
G01*
G37*
G36*
G01*
X393055250Y-161079000D02*
X392542750Y-161079000D01*
G75*
G02*
X392324000Y-160860250I0J218750D01*
G01*
X392324000Y-160422750D01*
G75*
G02*
X392542750Y-160204000I218750J0D01*
G01*
X393055250Y-160204000D01*
G75*
G02*
X393274000Y-160422750I0J-218750D01*
G01*
X393274000Y-160860250D01*
G75*
G02*
X393055250Y-161079000I-218750J0D01*
G01*
G37*
G36*
G01*
X396520000Y-164076250D02*
X396520000Y-163563750D01*
G75*
G02*
X396738750Y-163345000I218750J0D01*
G01*
X397176250Y-163345000D01*
G75*
G02*
X397395000Y-163563750I0J-218750D01*
G01*
X397395000Y-164076250D01*
G75*
G02*
X397176250Y-164295000I-218750J0D01*
G01*
X396738750Y-164295000D01*
G75*
G02*
X396520000Y-164076250I0J218750D01*
G01*
G37*
G36*
G01*
X394945000Y-164076250D02*
X394945000Y-163563750D01*
G75*
G02*
X395163750Y-163345000I218750J0D01*
G01*
X395601250Y-163345000D01*
G75*
G02*
X395820000Y-163563750I0J-218750D01*
G01*
X395820000Y-164076250D01*
G75*
G02*
X395601250Y-164295000I-218750J0D01*
G01*
X395163750Y-164295000D01*
G75*
G02*
X394945000Y-164076250I0J218750D01*
G01*
G37*
G36*
G01*
X386573750Y-141930000D02*
X387086250Y-141930000D01*
G75*
G02*
X387305000Y-142148750I0J-218750D01*
G01*
X387305000Y-142586250D01*
G75*
G02*
X387086250Y-142805000I-218750J0D01*
G01*
X386573750Y-142805000D01*
G75*
G02*
X386355000Y-142586250I0J218750D01*
G01*
X386355000Y-142148750D01*
G75*
G02*
X386573750Y-141930000I218750J0D01*
G01*
G37*
G36*
G01*
X386573750Y-140355000D02*
X387086250Y-140355000D01*
G75*
G02*
X387305000Y-140573750I0J-218750D01*
G01*
X387305000Y-141011250D01*
G75*
G02*
X387086250Y-141230000I-218750J0D01*
G01*
X386573750Y-141230000D01*
G75*
G02*
X386355000Y-141011250I0J218750D01*
G01*
X386355000Y-140573750D01*
G75*
G02*
X386573750Y-140355000I218750J0D01*
G01*
G37*
G36*
G01*
X390642250Y-148850000D02*
X390129750Y-148850000D01*
G75*
G02*
X389911000Y-148631250I0J218750D01*
G01*
X389911000Y-148193750D01*
G75*
G02*
X390129750Y-147975000I218750J0D01*
G01*
X390642250Y-147975000D01*
G75*
G02*
X390861000Y-148193750I0J-218750D01*
G01*
X390861000Y-148631250D01*
G75*
G02*
X390642250Y-148850000I-218750J0D01*
G01*
G37*
G36*
G01*
X390642250Y-150425000D02*
X390129750Y-150425000D01*
G75*
G02*
X389911000Y-150206250I0J218750D01*
G01*
X389911000Y-149768750D01*
G75*
G02*
X390129750Y-149550000I218750J0D01*
G01*
X390642250Y-149550000D01*
G75*
G02*
X390861000Y-149768750I0J-218750D01*
G01*
X390861000Y-150206250D01*
G75*
G02*
X390642250Y-150425000I-218750J0D01*
G01*
G37*
G36*
G01*
X388864250Y-141230000D02*
X388351750Y-141230000D01*
G75*
G02*
X388133000Y-141011250I0J218750D01*
G01*
X388133000Y-140573750D01*
G75*
G02*
X388351750Y-140355000I218750J0D01*
G01*
X388864250Y-140355000D01*
G75*
G02*
X389083000Y-140573750I0J-218750D01*
G01*
X389083000Y-141011250D01*
G75*
G02*
X388864250Y-141230000I-218750J0D01*
G01*
G37*
G36*
G01*
X388864250Y-142805000D02*
X388351750Y-142805000D01*
G75*
G02*
X388133000Y-142586250I0J218750D01*
G01*
X388133000Y-142148750D01*
G75*
G02*
X388351750Y-141930000I218750J0D01*
G01*
X388864250Y-141930000D01*
G75*
G02*
X389083000Y-142148750I0J-218750D01*
G01*
X389083000Y-142586250D01*
G75*
G02*
X388864250Y-142805000I-218750J0D01*
G01*
G37*
G36*
G01*
X402990000Y-176662750D02*
X402990000Y-177175250D01*
G75*
G02*
X402771250Y-177394000I-218750J0D01*
G01*
X402333750Y-177394000D01*
G75*
G02*
X402115000Y-177175250I0J218750D01*
G01*
X402115000Y-176662750D01*
G75*
G02*
X402333750Y-176444000I218750J0D01*
G01*
X402771250Y-176444000D01*
G75*
G02*
X402990000Y-176662750I0J-218750D01*
G01*
G37*
G36*
G01*
X404565000Y-176662750D02*
X404565000Y-177175250D01*
G75*
G02*
X404346250Y-177394000I-218750J0D01*
G01*
X403908750Y-177394000D01*
G75*
G02*
X403690000Y-177175250I0J218750D01*
G01*
X403690000Y-176662750D01*
G75*
G02*
X403908750Y-176444000I218750J0D01*
G01*
X404346250Y-176444000D01*
G75*
G02*
X404565000Y-176662750I0J-218750D01*
G01*
G37*
G36*
G01*
X402990000Y-175138750D02*
X402990000Y-175651250D01*
G75*
G02*
X402771250Y-175870000I-218750J0D01*
G01*
X402333750Y-175870000D01*
G75*
G02*
X402115000Y-175651250I0J218750D01*
G01*
X402115000Y-175138750D01*
G75*
G02*
X402333750Y-174920000I218750J0D01*
G01*
X402771250Y-174920000D01*
G75*
G02*
X402990000Y-175138750I0J-218750D01*
G01*
G37*
G36*
G01*
X404565000Y-175138750D02*
X404565000Y-175651250D01*
G75*
G02*
X404346250Y-175870000I-218750J0D01*
G01*
X403908750Y-175870000D01*
G75*
G02*
X403690000Y-175651250I0J218750D01*
G01*
X403690000Y-175138750D01*
G75*
G02*
X403908750Y-174920000I218750J0D01*
G01*
X404346250Y-174920000D01*
G75*
G02*
X404565000Y-175138750I0J-218750D01*
G01*
G37*
G36*
G01*
X409433750Y-172205000D02*
X409946250Y-172205000D01*
G75*
G02*
X410165000Y-172423750I0J-218750D01*
G01*
X410165000Y-172861250D01*
G75*
G02*
X409946250Y-173080000I-218750J0D01*
G01*
X409433750Y-173080000D01*
G75*
G02*
X409215000Y-172861250I0J218750D01*
G01*
X409215000Y-172423750D01*
G75*
G02*
X409433750Y-172205000I218750J0D01*
G01*
G37*
G36*
G01*
X409433750Y-170630000D02*
X409946250Y-170630000D01*
G75*
G02*
X410165000Y-170848750I0J-218750D01*
G01*
X410165000Y-171286250D01*
G75*
G02*
X409946250Y-171505000I-218750J0D01*
G01*
X409433750Y-171505000D01*
G75*
G02*
X409215000Y-171286250I0J218750D01*
G01*
X409215000Y-170848750D01*
G75*
G02*
X409433750Y-170630000I218750J0D01*
G01*
G37*
G36*
G01*
X405882250Y-175760000D02*
X405369750Y-175760000D01*
G75*
G02*
X405151000Y-175541250I0J218750D01*
G01*
X405151000Y-175103750D01*
G75*
G02*
X405369750Y-174885000I218750J0D01*
G01*
X405882250Y-174885000D01*
G75*
G02*
X406101000Y-175103750I0J-218750D01*
G01*
X406101000Y-175541250D01*
G75*
G02*
X405882250Y-175760000I-218750J0D01*
G01*
G37*
G36*
G01*
X405882250Y-177335000D02*
X405369750Y-177335000D01*
G75*
G02*
X405151000Y-177116250I0J218750D01*
G01*
X405151000Y-176678750D01*
G75*
G02*
X405369750Y-176460000I218750J0D01*
G01*
X405882250Y-176460000D01*
G75*
G02*
X406101000Y-176678750I0J-218750D01*
G01*
X406101000Y-177116250D01*
G75*
G02*
X405882250Y-177335000I-218750J0D01*
G01*
G37*
G36*
G01*
X412686250Y-174262000D02*
X411773750Y-174262000D01*
G75*
G02*
X411530000Y-174018250I0J243750D01*
G01*
X411530000Y-173530750D01*
G75*
G02*
X411773750Y-173287000I243750J0D01*
G01*
X412686250Y-173287000D01*
G75*
G02*
X412930000Y-173530750I0J-243750D01*
G01*
X412930000Y-174018250D01*
G75*
G02*
X412686250Y-174262000I-243750J0D01*
G01*
G37*
G36*
G01*
X412686250Y-176137000D02*
X411773750Y-176137000D01*
G75*
G02*
X411530000Y-175893250I0J243750D01*
G01*
X411530000Y-175405750D01*
G75*
G02*
X411773750Y-175162000I243750J0D01*
G01*
X412686250Y-175162000D01*
G75*
G02*
X412930000Y-175405750I0J-243750D01*
G01*
X412930000Y-175893250D01*
G75*
G02*
X412686250Y-176137000I-243750J0D01*
G01*
G37*
M02*
