M48
; DRILL file {KiCad (5.1.9)-1} date 04/10/21 14:09:51
; FORMAT={-:-/ absolute / metric / decimal}
; #@! TF.CreationDate,2021-04-10T14:09:51+02:00
; #@! TF.GenerationSoftware,Kicad,Pcbnew,(5.1.9)-1
; #@! TF.FileFunction,Plated,1,4,PTH
FMAT,2
METRIC
T1C0.200
T2C0.300
T3C0.400
T4C0.600
T5C0.800
T6C1.520
%
G90
G05
T1
X352.921Y-154.52
X353.937Y-155.536
X355.167Y-173.737
X355.207Y-160.362
X356.477Y-161.886
X357.722Y-158.99
X357.747Y-155.663
X357.747Y-177.434
X359.144Y-160.362
X359.144Y-161.886
X359.525Y-155.155
X360.214Y-155.971
X361.547Y-155.951
X361.557Y-176.87
X362.7Y-178.93
X362.817Y-156.456
X363.12Y-162.367
X366.636Y-173.313
X367.248Y-173.064
X367.792Y-159.639
X367.919Y-173.316
X368.808Y-165.735
X370.447Y-177.253
X370.459Y-172.966
X371.463Y-148.17
X371.466Y-138.379
X373.423Y-135.87
X374.777Y-133.985
X374.892Y-170.268
X375.104Y-165.789
X375.273Y-133.438
X375.527Y-135.47
X375.781Y-174.459
X375.792Y-171.449
X376.301Y-159.766
X376.814Y-146.241
X377.051Y-152.234
X377.461Y-146.111
X377.813Y-151.726
X378.049Y-146.724
X378.321Y-173.57
X378.448Y-172.3
X378.829Y-128.802
X379.019Y-127.913
X379.21Y-178.523
X379.857Y-158.496
X379.857Y-159.766
X379.972Y-135.881
X382.284Y-146.082
X383.286Y-144.018
X383.794Y-162.56
X384.835Y-144.36
X385.064Y-162.56
X385.433Y-170.491
X386.195Y-144.741
X386.322Y-166.839
X386.573Y-143.482
X386.957Y-175.602
X387.592Y-166.28
X389.255Y-144.018
X389.624Y-181.063
X391.148Y-181.063
X391.275Y-161.632
X391.312Y-151.663
X391.402Y-163.537
X392.164Y-170.491
X392.672Y-181.063
X393.434Y-169.125
X393.815Y-174.713
X395.466Y-169.125
X397.244Y-169.125
X399.022Y-169.125
X399.53Y-180.428
X400.124Y-174.639
X400.788Y-171.536
X400.8Y-169.125
X400.8Y-180.301
X401.435Y-171.665
X401.458Y-177.038
X402.07Y-169.252
X402.07Y-180.301
X402.553Y-175.395
X402.578Y-168.766
X402.578Y-172.173
X403.086Y-177.998
X403.34Y-150.964
X403.594Y-172.173
X404.102Y-177.998
X405.118Y-152.742
X405.118Y-154.012
X405.118Y-176.999
X405.372Y-171.538
X405.626Y-183.476
X406.769Y-150.329
X406.769Y-174.459
X407.023Y-170.014
X407.15Y-182.841
X408.928Y-174.84
X410.579Y-175.602
X411.849Y-155.028
X411.849Y-158.203
X412.798Y-174.724
X412.84Y-165.975
X418.58Y-145.63
X419.342Y-158.203
T2
X351.336Y-159.265
X351.397Y-178.142
X352.667Y-178.142
X353.302Y-160.425
X355.207Y-178.396
X356.267Y-165.004
X356.267Y-166.304
X356.267Y-167.604
X356.267Y-168.904
X357.366Y-138.01
X357.366Y-148.551
X357.567Y-165.004
X357.567Y-166.304
X357.567Y-167.604
X357.567Y-168.904
X358.255Y-152.742
X358.382Y-133.819
X358.382Y-142.328
X358.382Y-144.36
X358.867Y-165.004
X358.867Y-166.304
X358.867Y-167.604
X358.867Y-168.904
X360.16Y-160.362
X360.167Y-165.004
X360.167Y-166.304
X360.167Y-167.604
X360.167Y-168.904
X363.604Y-162.922
X364.097Y-180.936
X366.002Y-159.663
X367.164Y-128.306
X367.164Y-128.941
X367.164Y-129.576
X367.164Y-130.211
X367.164Y-130.846
X367.291Y-151.674
X367.291Y-152.309
X367.291Y-152.944
X367.291Y-153.579
X368.446Y-148.778
X368.446Y-149.413
X368.7Y-133.094
X368.7Y-133.665
X368.7Y-134.237
X369.177Y-177.634
X369.685Y-178.523
X369.691Y-135.418
X369.697Y-166.878
X369.697Y-168.402
X370.701Y-135.013
X370.701Y-135.673
X370.72Y-150.15
X370.72Y-150.785
X370.72Y-151.42
X370.72Y-152.055
X370.72Y-152.69
X370.72Y-153.325
X370.72Y-153.96
X370.847Y-128.814
X370.847Y-129.449
X370.847Y-130.084
X370.847Y-130.719
X370.847Y-131.354
X370.847Y-131.989
X370.847Y-132.624
X371.082Y-143.725
X371.209Y-135.343
X371.316Y-139.897
X371.316Y-141.196
X371.316Y-142.496
X371.717Y-143.725
X372.616Y-139.897
X372.616Y-141.196
X372.616Y-142.496
X373.495Y-180.936
X373.749Y-128.993
X373.749Y-132.295
X373.916Y-139.897
X373.916Y-141.196
X373.916Y-142.496
X374.034Y-153.401
X375.216Y-139.897
X375.216Y-141.196
X375.216Y-142.496
X375.388Y-131.303
X375.558Y-153.452
X375.666Y-169.164
X376.301Y-161.036
X376.516Y-139.897
X376.516Y-141.196
X376.516Y-142.496
X376.816Y-132.116
X376.924Y-170.091
X377.19Y-165.227
X377.816Y-139.897
X377.816Y-141.196
X377.816Y-142.496
X378.309Y-131.303
X378.594Y-150.404
X378.829Y-147.408
X379.116Y-139.897
X379.116Y-141.196
X379.116Y-142.496
X379.857Y-161.036
X379.864Y-132.116
X379.876Y-133.792
X380.226Y-166.712
X380.48Y-178.396
X381.115Y-151.345
X381.242Y-169.887
X381.75Y-180.442
X381.75Y-181.077
X382.258Y-156.425
X382.258Y-157.06
X382.258Y-160.108
X382.258Y-160.743
X382.385Y-180.442
X382.385Y-181.077
X382.639Y-151.345
X382.78Y-182.714
X382.78Y-183.349
X382.78Y-183.984
X382.893Y-156.425
X382.893Y-157.06
X382.893Y-160.108
X382.893Y-160.743
X383.02Y-180.442
X383.02Y-181.077
X383.415Y-182.714
X383.415Y-183.349
X383.415Y-183.984
X383.528Y-156.425
X383.528Y-157.06
X383.528Y-160.108
X383.528Y-160.743
X384.798Y-142.836
X384.829Y-148.143
X385.687Y-135.279
X385.687Y-135.915
X386.322Y-135.279
X386.322Y-135.915
X386.588Y-146.627
X386.957Y-135.279
X386.957Y-135.915
X387.592Y-135.279
X387.592Y-135.915
X387.592Y-152.234
X387.592Y-162.14
X387.719Y-173.189
X388.227Y-135.279
X388.227Y-135.915
X388.227Y-162.14
X388.354Y-151.853
X388.354Y-159.981
X388.735Y-180.682
X388.862Y-135.279
X388.862Y-135.915
X388.862Y-162.14
X389.344Y-141.564
X389.497Y-135.279
X389.497Y-135.915
X389.497Y-162.14
X389.763Y-146.939
X390.132Y-135.279
X390.132Y-135.915
X390.132Y-162.14
X390.767Y-162.14
X390.958Y-160.935
X391.148Y-183.984
X393.307Y-155.282
X393.307Y-155.917
X393.307Y-156.552
X393.307Y-157.187
X393.307Y-157.822
X393.434Y-167.474
X393.942Y-155.282
X393.942Y-156.552
X393.942Y-157.187
X394.704Y-155.282
X394.704Y-155.917
X394.704Y-156.552
X394.704Y-157.187
X394.704Y-157.822
X395.212Y-173.316
X395.339Y-155.282
X395.339Y-155.917
X395.339Y-156.552
X395.466Y-167.474
X396.113Y-140.589
X396.113Y-141.224
X396.113Y-141.859
X396.113Y-142.494
X396.482Y-156.552
X396.875Y-141.224
X396.875Y-141.859
X396.875Y-142.494
X396.9Y-140.577
X397.244Y-167.474
X397.637Y-141.224
X397.637Y-141.859
X397.637Y-142.494
X397.662Y-140.577
X397.799Y-163.61
X398.259Y-180.67
X398.399Y-141.224
X398.399Y-141.859
X398.399Y-142.494
X398.424Y-140.577
X398.895Y-173.189
X399.026Y-167.39
X399.085Y-159.191
X399.784Y-175.348
X400.038Y-137.541
X400.038Y-138.391
X400.038Y-139.026
X400.038Y-139.7
X400.038Y-140.335
X400.038Y-141.224
X400.673Y-137.541
X400.673Y-138.391
X400.673Y-139.026
X400.673Y-139.7
X400.673Y-140.335
X400.673Y-141.224
X400.8Y-167.474
X400.927Y-154.558
X401.054Y-152.361
X401.054Y-183.984
X401.308Y-137.541
X401.308Y-138.391
X401.308Y-139.026
X401.308Y-139.7
X401.308Y-140.335
X401.308Y-141.224
X401.943Y-137.541
X401.943Y-138.391
X401.943Y-139.026
X401.943Y-139.7
X401.943Y-140.335
X401.943Y-141.224
X403.34Y-168.998
X403.594Y-178.495
X405.372Y-172.935
X406.762Y-176.013
X407.912Y-167.092
X407.912Y-167.727
X408.674Y-167.092
X408.674Y-167.727
X409.436Y-167.092
X409.436Y-167.727
X409.817Y-180.682
X410.198Y-167.092
X410.198Y-167.727
X410.325Y-172.554
X410.96Y-167.092
X410.96Y-167.727
X411.722Y-180.428
X412.611Y-176.491
X412.686Y-168.91
X414.135Y-144.233
X414.135Y-155.155
T3
X414.02Y-168.05
X414.02Y-168.9
X414.02Y-169.75
X414.02Y-170.6
X414.02Y-171.45
X414.02Y-172.3
X414.02Y-173.15
X414.02Y-174.0
X415.37Y-168.05
X415.37Y-168.9
X415.37Y-169.75
X415.37Y-170.6
X415.37Y-171.45
X415.37Y-172.3
X415.37Y-173.15
X415.37Y-174.0
T6
X354.0Y-135.76
X354.0Y-140.84
X354.0Y-145.92
X354.0Y-151.0
X393.18Y-129.12
X398.26Y-129.12
X403.34Y-129.12
X408.42Y-129.12
T4
X414.25Y-166.7G85X415.75Y-166.7
G05
X414.25Y-175.35G85X415.75Y-175.35
G05
X417.98Y-166.7G85X418.78Y-166.7
G05
X417.98Y-175.35G85X418.78Y-175.35
G05
T5
X407.658Y-138.802G85X407.658Y-136.202
G05
X411.758Y-132.702G85X409.558Y-132.702
G05
X413.458Y-138.602G85X413.458Y-136.402
G05
T0
M30
